<?xml version="1.0" encoding="UTF-8"?>
<svg width="16" height="16" viewBox="0 0 16 16" version="1.1" xmlns="http://www.w3.org/2000/svg" xmlns:xlink="http://www.w3.org/1999/xlink">
    <title>icon/light/abs-brakes</title>
    <g id="icon/light/abs-brakes" stroke="none" stroke-width="1" fill="none" fill-rule="evenodd">
        <path d="M8,2 C11.3137,2 14,4.68629 14,8 C14,11.3137 11.3137,14 8,14 C4.68629,14 2,11.3137 2,8 C2,4.68629 4.68629,2 8,2 Z M13.6569,2.34315 C15.1046,3.79086 16,5.79086 16,8 C16,10.2091 15.1046,12.2091 13.6569,13.6569 L12.9497,12.9497 C14.2165,11.683 15,9.933 15,8 C15,6.06701 14.2165,4.317 12.9497,3.05025 L13.6569,2.34315 Z M2.34315,2.34315 L3.05025,3.05025 C1.7835,4.317 1,6.06701 1,8 C1,9.933 1.7835,11.683 3.05025,12.9497 L2.34315,13.6569 C0.895431,12.2091 0,10.2091 0,8 C0,5.79086 0.895431,3.79086 2.34315,2.34315 Z M8,3 C5.23858,3 3,5.23858 3,8 C3,10.7614 5.23858,13 8,13 C10.7614,13 13,10.7614 13,8 C13,5.23858 10.7614,3 8,3 Z M11.0308,6.2974 C11.3888,6.2974 11.6878,6.3644 11.8948,6.4894 L11.9558,6.5264 L11.9558,7.2914 L11.7718,7.1934 C11.5578,7.0794 11.2928,7.0174 11.0218,7.0174 C10.7158,7.0174 10.5608,7.1004 10.5608,7.2654 C10.5608,7.4014 10.6528,7.4684 11.0098,7.5914 L11.2328,7.6704 C11.7098,7.8344 12.1508,8.0704 12.1508,8.6824 C12.1508,9.3024 11.6658,9.7024 10.9138,9.7024 C10.4388,9.7024 10.0288,9.5604 9.83282,9.4194 L9.77982,9.3824 L9.77982,8.5954 L9.97082,8.7154 C10.1658,8.8384 10.4858,8.9834 10.9048,8.9834 C11.1328,8.9834 11.4048,8.9344 11.4048,8.6994 C11.4048,8.5594 11.3438,8.4754 10.9818,8.3534 L10.7458,8.2694 C10.2548,8.0974 9.81482,7.8924 9.81482,7.2834 C9.81482,6.6934 10.3028,6.2974 11.0308,6.2974 Z M8.5,6.3543 C9.114,6.3543 9.541,6.7463 9.541,7.3093 C9.541,7.5483 9.453,7.7563 9.287,7.9113 C9.503,8.0873 9.62,8.3403 9.62,8.6393 C9.62,9.2323 9.175,9.6463 8.538,9.6463 L8.538,9.6463 L7.145,9.6463 L7.145,6.3543 Z M5.87101,6.3539 L7.01801,9.6459 L6.22301,9.6459 L5.96201,8.8769 L4.89301,8.8769 L4.63201,9.6459 L3.85001,9.6459 L4.99801,6.3539 L5.87101,6.3539 Z M8.53,8.3203 L7.891,8.3203 L7.891,8.9183 L8.53,8.9183 C8.751,8.9183 8.878,8.8083 8.878,8.6173 C8.878,8.4283 8.751,8.3203 8.53,8.3203 L8.53,8.3203 Z M5.42901,7.3119 L5.14401,8.1489 L5.71101,8.1489 L5.42901,7.3119 Z M8.491,7.0823 L7.891,7.0823 L7.891,7.5923 L8.491,7.5923 C8.685,7.5923 8.796,7.4993 8.796,7.3353 C8.796,7.1723 8.688,7.0823 8.491,7.0823 L8.491,7.0823 Z" id="shape" fill="#242424"></path>
    </g>
</svg>