<?xml version="1.0" encoding="UTF-8"?>
<svg width="16" height="16" viewBox="0 0 16 16" version="1.1" xmlns="http://www.w3.org/2000/svg" xmlns:xlink="http://www.w3.org/1999/xlink">
    <title>icon/light/airbag</title>
    <g id="icon/light/airbag" stroke="none" stroke-width="1" fill="none" fill-rule="evenodd">
        <path d="M11.1888,6.77153 C11.5911,6.04736 12.5043,5.78644 13.2285,6.18876 C13.9527,6.59108 14.2136,7.50429 13.8113,8.22846 L13.8113,8.22846 L12.1081,11.2942 L13.9999995,12.1351 L13.9999995,12.1429 L13.5801,13.0427 L11.6205,12.1718 L10.6448,13.9281 L5.9118,11.8245 L3.63891,14.4762 C3.09978,15.1052 2.15283,15.178 1.52384,14.6389 C0.894851,14.0998 0.822009,13.1528 1.36114,12.5238 L1.36114,12.5238 L5.08826,8.17551 L9.35578,10.071 Z M5.36277,9.39184 L2.1204,13.1746 C1.94069,13.3843 1.96497,13.6999 2.17463,13.8796 C2.38429,14.0593 2.69994,14.0351 2.87966,13.8254 L5.63728,10.6082 L10.215,12.6427 L10.7031,11.7641 L9.78565,11.3563 L9.78509,11.3573 L5.36277,9.39184 Z M12.0629,7.25718 L10.2732,10.4787 L11.1906,10.8864 L12.9371,7.74282 C13.0712,7.50143 12.9842,7.19703 12.7428,7.06292 C12.5015,6.92881 12.1971,7.01579 12.0629,7.25718 Z M6.25003,1 C8.04496,1 9.50003,2.45507 9.50003,4.25 C9.50003,6.04493 8.04496,7.5 6.25003,7.5 C4.45511,7.5 3.00003,6.04493 3.00003,4.25 C3.00003,2.45507 4.45511,1 6.25003,1 Z M6.25003,2 C5.00739,2 4.00003,3.00736 4.00003,4.25 C4.00003,5.49264 5.00739,6.5 6.25003,6.5 C7.49267,6.5 8.50003,5.49264 8.50003,4.25 C8.50003,3.00736 7.49267,2 6.25003,2 Z M13,1.5 C14.1046,1.5 15,2.39543 15,3.5 C15,4.60457 14.1046,5.5 13,5.5 C11.8955,5.5 11,4.60457 11,3.5 C11,2.39543 11.8955,1.5 13,1.5 Z M13,2.5 C12.4477,2.5 12,2.94772 12,3.5 C12,4.05228 12.4477,4.5 13,4.5 C13.5523,4.5 14,4.05228 14,3.5 C14,2.94772 13.5523,2.5 13,2.5 Z" id="shape" fill="#242424"></path>
    </g>
</svg>