<?xml version="1.0" encoding="UTF-8"?>
<svg width="16" height="16" viewBox="0 0 16 16" version="1.1" xmlns="http://www.w3.org/2000/svg" xmlns:xlink="http://www.w3.org/1999/xlink">
    <title>icon/light/alarm-on</title>
    <g id="icon/light/alarm-on" stroke="none" stroke-width="1" fill="none" fill-rule="evenodd">
        <path d="M13.5,13 L13.5,14 L2.5,14 L2.5,13 L13.5,13 Z M9.69948,2.5 C10.723,2.5 11.5813,3.27274 11.6885,4.29063 L11.6885,4.29063 L12.5,12 L3.5,12 L4.31151,4.29063 C4.41866,3.27274 5.27701,2.5 6.30052,2.5 L6.30052,2.5 Z M9.69948,3.5 L6.30052,3.5 C5.78876,3.5 5.35959,3.88637 5.30602,4.39532 L4.61079,11 L11.3892,11 L10.694,4.39531 C10.6404,3.88637 10.2112,3.5 9.69948,3.5 Z M2.19083,8.10759 L2.53285,9.04729 L0.653467,9.73133 L0.311447,8.79163 L2.19083,8.10759 Z M13.8092,8.1076 L15.6886,8.79164 L15.3465,9.73133 L13.4671,9.04729 L13.8092,8.1076 Z M15.8296,4.64373 L16.0033,5.62854 L14.0336,5.97583 L13.86,4.99103 L15.8296,4.64373 Z M0.173648,4.64374 L2.14326,4.99103 L1.96962,5.97584 L0,5.62855 L0.173648,4.64374 Z M2.19305,1 L3.72514,2.28558 L3.08235,3.05162 L1.55026,1.76604 L2.19305,1 Z M13.807,1.00001 L14.4498,1.76605 L12.9177,3.05163 L12.2749,2.28558 L13.807,1.00001 Z" id="shape" fill="#242424"></path>
    </g>
</svg>