<?xml version="1.0" encoding="UTF-8"?>
<svg width="16" height="16" viewBox="0 0 16 16" version="1.1" xmlns="http://www.w3.org/2000/svg" xmlns:xlink="http://www.w3.org/1999/xlink">
    <title>icon/light/alarm-off</title>
    <g id="icon/light/alarm-off" stroke="none" stroke-width="1" fill="none" fill-rule="evenodd">
        <path d="M14.2929,1 L15,1.70712 L11.7578,4.9493 L12.5,12 L4.70712,12 L3.70712,13 L13.5,13 L13.5,14 L2.70712,14 L1.70712,15 L1,14.2929 L14.2929,1 Z M10.8481,5.85906 L5.70712,11 L11.3892,11 L10.8481,5.85906 Z M9.69948,2.5 C10.1676,2.5 10.6012,2.66165 10.9442,2.93448 L10.9442,2.93448 L10.2278,3.65086 C10.0739,3.55501 9.89258,3.5 9.69948,3.5 L9.69948,3.5 L6.30052,3.5 C5.78876,3.5 5.35959,3.88637 5.30602,4.39532 L5.30602,4.39532 L4.81457,9.06407 L3.69075,10.1879 L4.31151,4.29063 C4.41866,3.27274 5.27701,2.5 6.30052,2.5 L6.30052,2.5 Z" id="shape" fill="#242424"></path>
    </g>
</svg>