<?xml version="1.0" encoding="UTF-8"?>
<svg width="16" height="16" viewBox="0 0 16 16" version="1.1" xmlns="http://www.w3.org/2000/svg" xmlns:xlink="http://www.w3.org/1999/xlink">
    <title>icon/light/alarm</title>
    <g id="icon/light/alarm" stroke="none" stroke-width="1" fill="none" fill-rule="evenodd">
        <path d="M13.5,13 L13.5,14 L2.5,14 L2.5,13 L13.5,13 Z M9.69948,2.5 C10.723,2.5 11.5813,3.27274 11.6885,4.29063 L12.5,12 L3.5,12 L4.31151,4.29063 C4.41866,3.27274 5.27701,2.5 6.30052,2.5 L9.69948,2.5 Z M9.69948,3.5 L6.30052,3.5 C5.78876,3.5 5.35959,3.88637 5.30602,4.39532 L5.30602,4.39532 L4.61079,11 L11.3892,11 L10.694,4.39531 C10.6404,3.88637 10.2112,3.5 9.69948,3.5 L9.69948,3.5 Z" id="shape" fill="#242424"></path>
    </g>
</svg>