<?xml version="1.0" encoding="UTF-8"?>
<svg width="16" height="16" viewBox="0 0 16 16" version="1.1" xmlns="http://www.w3.org/2000/svg" xmlns:xlink="http://www.w3.org/1999/xlink">
    <title>icon/light/antenna-microwave</title>
    <g id="icon/light/antenna-microwave" stroke="none" stroke-width="1" fill="none" fill-rule="evenodd">
        <path d="M8.5,13 L8.5,15 L7.5,15 L7.5,13 L8.5,13 Z M11.182,8.31799 C11.9963,9.13233 12.5,10.2573 12.5,11.5 C12.5,12.7426 11.9963,13.8676 11.182,14.682 L10.4749,13.9748 C11.1082,13.3415 11.5,12.4665 11.5,11.5 C11.5,10.5335 11.1082,9.65848 10.4749,9.0251 L11.182,8.31799 Z M9.76777,9.73218 C10.2202,10.1846 10.5,10.8096 10.5,11.4999 C10.5,12.1903 10.2202,12.8153 9.76777,13.2677 L9.06066,12.5606 C9.33211,12.2892 9.5,11.9142 9.5,11.4999 C9.5,11.0857 9.33211,10.7107 9.06066,10.4393 L9.76777,9.73218 Z M8,11 C8.27614,11 8.5,11.2239 8.5,11.5 C8.5,11.7761 8.27614,12 8,12 C7.72386,12 7.5,11.7761 7.5,11.5 C7.5,11.2239 7.72386,11 8,11 Z M8.5,1 L8.5,10 L7.5,10 L7.5,1 L8.5,1 Z M13.1951,0.996338 C13.707,1.8797 14,2.90567 14,4.00008 C14,5.09448 13.707,6.12044 13.1951,7.0038 L12.3293,6.50318 C12.7558,5.76704 13,4.91207 13,4.00008 C13,3.08807 12.7558,2.2331 12.3293,1.49696 L13.1951,0.996338 Z M2.80486,0.996338 L3.67071,1.49696 C3.24417,2.2331 3,3.08807 3,4.00008 C3,4.91208 3.24417,5.76705 3.67071,6.50318 L3.67071,6.50318 L2.80485,7.0038 C2.29301,6.12044 2,5.09448 2,4.00008 C2,2.90567 2.29301,1.8797 2.80486,0.996338 L2.80486,0.996338 Z M5.18596,2.37305 L6.05182,2.87367 C5.85988,3.20493 5.75,3.58967 5.75,4.00007 C5.75,4.41047 5.85988,4.79521 6.05182,5.12647 L6.05182,5.12647 L5.18596,5.62709 C4.90871,5.1486 4.75,4.59287 4.75,4.00007 C4.75,3.40727 4.90871,2.85154 5.18596,2.37305 L5.18596,2.37305 Z M10.814,2.37305 C11.0913,2.85154 11.25,3.40727 11.25,4.00007 C11.25,4.59287 11.0913,5.1486 10.814,5.62709 L9.94818,5.12646 C10.1401,4.7952 10.25,4.41047 10.25,4.00007 C10.25,3.58967 10.1401,3.20493 9.94818,2.87367 L10.814,2.37305 Z" id="shape" fill="#242424"></path>
    </g>
</svg>