<?xml version="1.0" encoding="UTF-8"?>
<svg width="16" height="16" viewBox="0 0 16 16" version="1.1" xmlns="http://www.w3.org/2000/svg" xmlns:xlink="http://www.w3.org/1999/xlink">
    <title>icon/light/antenna</title>
    <g id="icon/light/antenna" stroke="none" stroke-width="1" fill="none" fill-rule="evenodd">
        <path d="M8.5,1.00003 L8.5,15 L7.5,15 L7.5,1.00003 L8.5,1.00003 Z M3.53033,0.997192 L4.27527,1.66433 C3.48228,2.54921 3,3.7183 3,5.00003 C3,6.28176 3.48228,7.45085 4.27527,8.33573 L4.27527,8.33573 L3.53033,9.00287 C2.57874,7.94102 2,6.53811 2,5.00003 C2,3.46195 2.57874,2.05904 3.53033,0.997192 L3.53033,0.997192 Z M12.4697,0.997192 C13.4213,2.05904 14,3.46195 14,5.00003 C14,6.53811 13.4213,7.94102 12.4697,9.00287 L12.4697,9.00287 L11.7247,8.33573 C12.5177,7.45085 13,6.28176 13,5.00003 C13,3.7183 12.5177,2.54921 11.7247,1.66433 L11.7247,1.66433 Z M5.46719,2.73176 L6.21213,3.39889 C5.83149,3.82364 5.6,4.3848 5.6,5.00003 C5.6,5.61526 5.83149,6.17643 6.21213,6.60117 L6.21213,6.60117 L5.46719,7.26831 C4.92795,6.66659 4.6,5.87161 4.6,5.00003 C4.6,4.12845 4.92795,3.33347 5.46719,2.73176 L5.46719,2.73176 Z M10.5328,2.73176 C11.0721,3.33347 11.4,4.12845 11.4,5.00003 C11.4,5.87161 11.0721,6.66659 10.5328,7.26831 L10.5328,7.26831 L9.78787,6.60117 C10.1685,6.17643 10.4,5.61526 10.4,5.00003 C10.4,4.3848 10.1685,3.82364 9.78787,3.39889 L9.78787,3.39889 Z" id="shape" fill="#242424"></path>
    </g>
</svg>