<?xml version="1.0" encoding="UTF-8"?>
<svg width="16" height="16" viewBox="0 0 16 16" version="1.1" xmlns="http://www.w3.org/2000/svg" xmlns:xlink="http://www.w3.org/1999/xlink">
    <title>icon/light/arrow-rotate-vertical</title>
    <g id="icon/light/arrow-rotate-vertical" stroke="none" stroke-width="1" fill="none" fill-rule="evenodd">
        <path d="M5.00654,7.57494 C5.06313,5.74197 5.48293,4.11291 6.11275,2.93199 C6.80232,1.63905 7.66998,1 8.5,1 C9.33002,1 10.1977,1.63905 10.8873,2.93199 C11.5654,4.20345 12,5.99439 12,8 C12,10.0056 11.5654,11.7966 10.8873,13.068 C10.1977,14.3609 9.33002,15 8.5,15 C7.93282,15 7.35447,14.708 6.81525,14.0998 C6.27536,13.4909 5.80622,12.596 5.47944,11.4919 L4.52056,11.7756 C4.87614,12.9772 5.404,14.0154 6.06701,14.7632 C6.7307,15.5118 7.56117,16 8.5,16 C9.87912,16 11.0115,14.9601 11.7696,13.5386 C12.5392,12.0956 13,10.1365 13,8 C13,5.86348 12.5392,3.90442 11.7696,2.46141 C11.0115,1.03988 9.87912,0 8.5,0 C7.12088,0 5.98854,1.03988 5.2304,2.46141 C4.51064,3.81096 4.06098,5.61187 4.00576,7.58719 L2.70857,6.29 L2.00146,6.99711 L4.50003,9.49567 L6.99857,6.99712 L6.29146,6.29002 L5.00654,7.57494 Z" id="shape" fill="#242424"></path>
    </g>
</svg>