<?xml version="1.0" encoding="UTF-8"?>
<svg width="16" height="16" viewBox="0 0 16 16" version="1.1" xmlns="http://www.w3.org/2000/svg" xmlns:xlink="http://www.w3.org/1999/xlink">
    <title>icon/light/arrow-rotate-horizontal</title>
    <g id="icon/light/arrow-rotate-horizontal" stroke="none" stroke-width="1" fill="none" fill-rule="evenodd">
        <path d="M7.57494,10.9935 C5.74197,10.9369 4.11291,10.5171 2.93199,9.88725 C1.63905,9.19768 1,8.33002 1,7.5 C1,6.66998 1.63905,5.80232 2.93199,5.11275 C4.20345,4.43464 5.99439,4 8,4 C10.0056,4 11.7966,4.43464 13.068,5.11275 C14.3609,5.80232 15,6.66998 15,7.5 C15,8.06718 14.708,8.64553 14.0998,9.18475 C13.4909,9.72464 12.596,10.1938 11.4919,10.5206 L11.7756,11.4794 C12.9772,11.1239 14.0154,10.596 14.7632,9.93299 C15.5118,9.2693 16,8.43883 16,7.5 C16,6.12088 14.9601,4.98854 13.5386,4.2304 C12.0956,3.46079 10.1365,3 8,3 C5.86348,3 3.90442,3.46079 2.4614,4.2304 C1.03988,4.98854 0,6.12088 0,7.5 C0,8.87912 1.03988,10.0115 2.46141,10.7696 C3.81096,11.4894 5.61187,11.939 7.58719,11.9942 L6.29,13.2914 L6.99711,13.9985 L9.49567,11.5 L6.99712,9.00143 L6.29002,9.70854 L7.57494,10.9935 Z" id="shape" fill="#242424"></path>
    </g>
</svg>