<?xml version="1.0" encoding="UTF-8"?>
<svg width="16" height="16" viewBox="0 0 16 16" version="1.1" xmlns="http://www.w3.org/2000/svg" xmlns:xlink="http://www.w3.org/1999/xlink">
    <title>icon/light/attach</title>
    <g id="icon/light/attach" stroke="none" stroke-width="1" fill="none" fill-rule="evenodd">
        <path d="M12.6318,2.53697 C11.9158,1.82101 10.755,1.82101 10.039,2.53697 L3.69869,8.87732 C2.52711,10.0489 2.52711,11.9484 3.69869,13.12 C4.87026,14.2915 6.76976,14.2915 7.94133,13.12 L13.0466,8.01466 L13.7537,8.72177 L8.64844,13.8271 C7.08634,15.3892 4.55368,15.3892 2.99158,13.8271 C1.42948,12.265 1.42948,9.73231 2.99158,8.17021 L9.33193,1.82986 C10.4384,0.723379 12.2324,0.723378 13.3389,1.82986 C14.4454,2.93635 14.4454,4.73032 13.3389,5.8368 L6.99615,12.1795 C6.34527,12.8304 5.29,12.8304 4.63913,12.1795 C3.98825,11.5286 3.98825,10.4734 4.63913,9.8225 L11.161,3.30061 L11.8681,4.00772 L5.34623,10.5296 C5.08588,10.79 5.08588,11.2121 5.34623,11.4724 C5.60658,11.7328 6.02869,11.7328 6.28904,11.4724 L12.6318,5.1297 C13.3477,4.41373 13.3477,3.25293 12.6318,2.53697 Z" id="shape" fill="#242424"></path>
    </g>
</svg>