<?xml version="1.0" encoding="UTF-8"?>
<svg width="16" height="16" viewBox="0 0 16 16" version="1.1" xmlns="http://www.w3.org/2000/svg" xmlns:xlink="http://www.w3.org/1999/xlink">
    <title>icon/light/automotive-battery</title>
    <g id="icon/light/automotive-battery" stroke="none" stroke-width="1" fill="none" fill-rule="evenodd">
        <path d="M6.5,3 L6.5,4 L9.5,4 L9.5,3 L11.5,3 L11.5,4 L15,4 L15,13 L1,13 L1,4 L4.5,4 L4.5,3 L6.5,3 Z M14,5 L2,5 L2,12 L14,12 L14,5 Z M11,7 L11,8 L12,8 L12,9 L11,9 L11,10 L10,10 L10,9 L9,9 L9,8 L10,8 L10,7 L11,7 Z M7,8 L7,9 L4,9 L4,8 L7,8 Z" id="shape" fill="#242424"></path>
    </g>
</svg>