<?xml version="1.0" encoding="UTF-8"?>
<svg width="16" height="16" viewBox="0 0 16 16" version="1.1" xmlns="http://www.w3.org/2000/svg" xmlns:xlink="http://www.w3.org/1999/xlink">
    <title>icon/light/avatar</title>
    <g id="icon/light/avatar" stroke="none" stroke-width="1" fill="none" fill-rule="evenodd">
        <path d="M11.5,11 C13.433,11 15,12.567 15,14.5 L15,14.5 L14,14.5 C14,13.1193 12.8807,12 11.5,12 L11.5,12 L4.5,12 C3.11929,12 2,13.1193 2,14.5 L2,14.5 L1,14.5 C1,12.567 2.567,11 4.5,11 L4.5,11 Z M8,1.5 C9.933,1.5 11.5,3.067 11.5,5 L11.5,5 L11.5,6.5 C11.5,8.433 9.933,10 8,10 C6.067,10 4.5,8.433 4.5,6.5 L4.5,6.5 L4.5,5 C4.5,3.067 6.067,1.5 8,1.5 Z M8,2.5 C6.61929,2.5 5.5,3.61929 5.5,5 L5.5,5 L5.5,6.5 C5.5,7.88071 6.61929,9 8,9 C9.38071,9 10.5,7.88071 10.5,6.5 L10.5,6.5 L10.5,5 C10.5,3.61929 9.38071,2.5 8,2.5 Z" id="shape" fill="#242424"></path>
    </g>
</svg>