<?xml version="1.0" encoding="UTF-8"?>
<svg width="16" height="16" viewBox="0 0 16 16" version="1.1" xmlns="http://www.w3.org/2000/svg" xmlns:xlink="http://www.w3.org/1999/xlink">
    <title>icon/light/bank</title>
    <g id="icon/light/bank" stroke="none" stroke-width="1" fill="none" fill-rule="evenodd">
        <path d="M13.5,11.5 L13.5,13.5 L14.5,13.5 L14.5,14.5 L1.5,14.5 L1.5,13.5 L2.5,13.5 L2.5,11.5 L13.5,11.5 Z M12.5,12.5 L3.5,12.5 L3.5,13.5 L12.5,13.5 L12.5,12.5 Z M3.5,6 L3.5,10.5 L2.5,10.5 L2.5,6 L3.5,6 Z M5,6 L5,10.5 L4,10.5 L4,6 L5,6 Z M13.5,6 L13.5,10.5 L12.5,10.5 L12.5,6 L13.5,6 Z M12,6 L12,10.5 L11,10.5 L11,6 L12,6 Z M8.5,4.5 L8.5,5.5 L9.75,5.5 L9.75,6.5 L7.25,6.5 C7.11193,6.5 7,6.61193 7,6.75 C7,6.88807 7.11193,7 7.25,7 L7.25,7 L8.75,7 C9.44036,7 10,7.55964 10,8.25 C10,8.94036 9.44036,9.5 8.75,9.5 L8.75,9.5 L8.5,9.5 L8.5,10.5 L7.5,10.5 L7.5,9.5 L6.25,9.5 L6.25,8.5 L8.75,8.5 C8.88807,8.5 9,8.38807 9,8.25 C9,8.11193 8.88807,8 8.75,8 L8.75,8 L7.25,8 C6.55964,8 6,7.44036 6,6.75 C6,6.05964 6.55964,5.5 7.25,5.5 L7.25,5.5 L7.5,5.5 L7.5,4.5 L8.5,4.5 Z M8,1.5 L14.5,4 L14.5,5 L10,5 L10,4 L11.7143,4 L8,2.57141 L4.28568,4 L6,4 L6,5 L1.5,5 L1.5,4 L8,1.5 Z" id="shape" fill="#242424"></path>
    </g>
</svg>