<?xml version="1.0" encoding="UTF-8"?>
<svg width="16" height="16" viewBox="0 0 16 16" version="1.1" xmlns="http://www.w3.org/2000/svg" xmlns:xlink="http://www.w3.org/1999/xlink">
    <title>icon/light/blog</title>
    <g id="icon/light/blog" stroke="none" stroke-width="1" fill="none" fill-rule="evenodd">
        <path d="M14,1 L14,15 L2.5,15 L2.5,12 L1.5,12 L1.5,11 L2.5,11 L2.5,8.5 L1.5,8.5 L1.5,7.5 L2.5,7.5 L2.5,5 L1.5,5 L1.5,4 L2.5,4 L2.5,1 L14,1 Z M13,2 L3.5,2 L3.5,4 L4.5,4 L4.5,5 L3.5,5 L3.5,7.5 L4.5,7.5 L4.5,8.5 L3.5,8.5 L3.5,11 L4.5,11 L4.5,12 L3.5,12 L3.5,14 L13,14 L13,2 Z M8.84,5 C9.902,5 10.59,5.64119 10.59,6.66619 C10.59,7.14619 10.403,7.56119 10.07,7.84719 C10.507,8.15619 10.75,8.64319 10.75,9.22719 C10.75,10.2982 9.941,11 8.84,11 L6.75,11 L6.75,5 L8.84,5 Z M8.84,8.42719 L7.73,8.42719 L7.73,9.99518 L8.84,9.99518 C9.364,9.99518 9.7,9.70218 9.7,9.21119 C9.7,8.72019 9.364,8.42719 8.84,8.42719 Z M8.84,6.00519 L7.73,6.00519 L7.73,7.37719 L8.84,7.37719 C9.311,7.37719 9.55,7.12019 9.55,6.69019 C9.55,6.26119 9.311,6.00519 8.84,6.00519 L8.84,6.00519 Z" id="shape" fill="#242424"></path>
    </g>
</svg>