<?xml version="1.0" encoding="UTF-8"?>
<svg width="16" height="16" viewBox="0 0 16 16" version="1.1" xmlns="http://www.w3.org/2000/svg" xmlns:xlink="http://www.w3.org/1999/xlink">
    <title>icon/light/brakes</title>
    <g id="icon/light/brakes" stroke="none" stroke-width="1" fill="none" fill-rule="evenodd">
        <path d="M8,2 C11.3137,2 14,4.68629 14,8 C14,11.3137 11.3137,14 8,14 C4.68629,14 2,11.3137 2,8 C2,4.68629 4.68629,2 8,2 Z M13.6569,2.34315 C15.1046,3.79086 16,5.79086 16,8 C16,10.2091 15.1046,12.2091 13.6569,13.6569 L13.6569,13.6569 L12.9497,12.9497 C14.2165,11.683 15,9.933 15,8 C15,6.06701 14.2165,4.317 12.9497,3.05025 L12.9497,3.05025 Z M2.34315,2.34315 L3.05025,3.05025 C1.7835,4.317 1,6.06701 1,8 C1,9.933 1.7835,11.683 3.05025,12.9497 L3.05025,12.9497 L2.34315,13.6569 C0.895431,12.2091 0,10.2091 0,8 C0,5.79086 0.895431,3.79086 2.34315,2.34315 L2.34315,2.34315 Z M8,3 C5.23858,3 3,5.23858 3,8 C3,10.7614 5.23858,13 8,13 C10.7614,13 13,10.7614 13,8 C13,5.23858 10.7614,3 8,3 Z M8,10 C8.41421,10 8.75,10.3358 8.75,10.75 C8.75,11.1642 8.41421,11.5 8,11.5 C7.58579,11.5 7.25,11.1642 7.25,10.75 C7.25,10.3358 7.58579,10 8,10 Z M8.5,4.5 L8.5,9 L7.5,9 L7.5,4.5 L8.5,4.5 Z" id="shape" fill="#242424"></path>
    </g>
</svg>