<?xml version="1.0" encoding="UTF-8"?>
<svg width="16" height="16" viewBox="0 0 16 16" version="1.1" xmlns="http://www.w3.org/2000/svg" xmlns:xlink="http://www.w3.org/1999/xlink">
    <title>icon/light/bug</title>
    <g id="icon/light/bug" stroke="none" stroke-width="1" fill="none" fill-rule="evenodd">
        <path d="M8,14 C9.61762,14 11.0359,12.862 11.829,11.1536 L13.7227,12.416 L14.2774,11.584 L12.1901,10.1925 C12.3466,9.66112 12.4479,9.09278 12.4846,8.5 L15,8.5 L15,7.5 L12.4846,7.5 C12.4479,6.90722 12.3466,6.33887 12.1901,5.80751 L14.2774,4.416 L13.7227,3.58395 L11.829,4.84638 L11.8296,4.84757 C11.0365,3.13856 9.618,2 8,2 C6.38238,2 4.9641,3.13804 4.17098,4.8464 L2.27736,3.58398 L1.72266,4.41603 L3.8099,5.80753 C3.65338,6.33888 3.55208,6.90723 3.5154,7.5 L1,7.5 L1,8.5 L3.5154,8.5 C3.55208,9.09277 3.65339,9.66111 3.8099,10.1925 L1.72266,11.584 L2.27736,12.416 L4.17098,11.1536 C4.9641,12.862 6.38237,14 8,14 Z M10.382,11.6426 C11.0545,10.746 11.5,9.46141 11.5,8 C11.5,7.47379 11.4422,6.9705 11.3369,6.5 L4.66308,6.5 C4.55776,6.9705 4.5,7.47379 4.5,8 C4.5,9.46141 4.94552,10.746 5.61802,11.6426 C6.29029,12.539 7.14269,13 8,13 C8.85731,13 9.70971,12.539 10.382,11.6426 Z M10.382,4.35736 C10.6306,4.6888 10.8481,5.07323 11.0236,5.5 L4.97636,5.5 C5.15188,5.07323 5.36944,4.6888 5.61802,4.35736 C6.29029,3.461 7.14269,3 8,3 C8.85731,3 9.70971,3.461 10.382,4.35736 Z" id="shape" fill="#242424"></path>
    </g>
</svg>