<?xml version="1.0" encoding="UTF-8"?>
<svg width="16" height="16" viewBox="0 0 16 16" version="1.1" xmlns="http://www.w3.org/2000/svg" xmlns:xlink="http://www.w3.org/1999/xlink">
    <title>icon/light/calculator</title>
    <g id="icon/light/calculator" stroke="none" stroke-width="1" fill="none" fill-rule="evenodd">
        <path d="M13.5,1 L13.5,15 L2.5,15 L2.5,1 L13.5,1 Z M12.5,5 L3.5,5 L3.5,14 L12.5,14 L12.5,5 Z M11,9 L11,12.5 L10,12.5 L10,9 L11,9 Z M8.5,11.5 L8.5,12.5 L7.5,12.5 L7.5,11.5 L8.5,11.5 Z M6,11.5 L6,12.5 L5,12.5 L5,11.5 L6,11.5 Z M8.5,9 L8.5,10 L7.5,10 L7.5,9 L8.5,9 Z M6,9 L6,10 L5,10 L5,9 L6,9 Z M6,6.5 L6,7.5 L5,7.5 L5,6.5 L6,6.5 Z M8.5,6.5 L8.5,7.5 L7.5,7.5 L7.5,6.5 L8.5,6.5 Z M11,6.5 L11,7.5 L10,7.5 L10,6.5 L11,6.5 Z M12.5,2 L3.5,2 L3.5,4 L12.5,4 L12.5,2 Z" id="shape" fill="#242424"></path>
    </g>
</svg>