<?xml version="1.0" encoding="UTF-8"?>
<svg width="16" height="16" viewBox="0 0 16 16" version="1.1" xmlns="http://www.w3.org/2000/svg" xmlns:xlink="http://www.w3.org/1999/xlink">
    <title>icon/light/camera-cctv</title>
    <g id="icon/light/camera-cctv" stroke="none" stroke-width="1" fill="none" fill-rule="evenodd">
        <path d="M2.90315,2 L15,5.17197 L11.9415,6.95561 L14.3596,7.59 L13.3446,11.4591 L10.9264,10.8247 L10.6727,11.792 L6.90698,10.8041 L5.30902,14 L0,14 L0,11 L3.19098,11 L3.70849,9.96495 L1,9.25439 L2.90315,2 Z M4.69688,10.2242 L3.80902,12 L1,12 L1,13 L4.69098,13 L5.91859,10.5448 L4.69688,10.2242 Z M3.61666,3.22103 L2.22103,8.54088 L9.95917,10.5709 L11.0793,6.3012 L12.405,5.5266 L3.61666,3.22103 Z M11.6877,7.92287 L11.1802,9.85741 L12.6311,10.238 L13.1386,8.30351 L11.6877,7.92287 Z M4.33022,4.44196 L6.74839,5.07635 L6.49463,6.04362 L4.07646,5.40922 L4.33022,4.44196 Z" id="shape" fill="#242424"></path>
    </g>
</svg>