<svg xmlns="http://www.w3.org/2000/svg" viewBox="0 0 16 16"><defs><style>.cls-1{fill:none;}.cls-2{fill:#242424;fill-rule:evenodd;}</style></defs><g id="Layer_2" data-name="Layer 2"><g id="Icons_Labels" data-name="Icons – Labels"><rect id="Rectangle_1061" data-name="Rectangle 1061" class="cls-1" width="16" height="16"/><g id="Group_5004" data-name="Group 5004"><g id="Group_5001" data-name="Group 5001"><path id="icon-switching" class="cls-2" d="M11,11.12l2,1.94L11,15l-.7-.69.79-.76H6.27v-1h4.82l-.79-.77Z"/><path id="icon-group" class="cls-2" d="M7,9a2.49,2.49,0,0,1,2.5,2.48h-1A1.5,1.5,0,0,0,7,10H3a1.5,1.5,0,0,0-1.5,1.49h0L1.5,14H.5l0-2.56A2.49,2.49,0,0,1,3,9H7ZM5,1.74A2.5,2.5,0,0,1,7.5,4.22h0V5.7A2.34,2.34,0,0,1,5.12,8H5A2.33,2.33,0,0,1,2.51,5.83a.53.53,0,0,1,0-.13V4.22A2.5,2.5,0,0,1,5,1.74Zm0,1A1.5,1.5,0,0,0,3.5,4.22V5.7A1.34,1.34,0,0,0,4.88,7H5A1.34,1.34,0,0,0,6.49,5.83a.57.57,0,0,0,0-.13V4.22A1.5,1.5,0,0,0,5,2.73Z"/></g><g id="Group_5002" data-name="Group 5002"><path id="icon-group-2" class="cls-2" d="M13,8.5A2.5,2.5,0,0,1,15.5,11h-1A1.5,1.5,0,0,0,13,9.5H9.5v-1ZM11,1a2.5,2.5,0,0,1,2.5,2.5h0V5a2.5,2.5,0,0,1-5,0h0V3.5A2.5,2.5,0,0,1,11,1Zm0,1A1.5,1.5,0,0,0,9.5,3.5V5a1.5,1.5,0,0,0,3,0h0V3.5A1.5,1.5,0,0,0,11,2Z"/></g></g></g></g></svg>