<?xml version="1.0" encoding="UTF-8"?>
<svg width="16" height="16" viewBox="0 0 16 16" version="1.1" xmlns="http://www.w3.org/2000/svg" xmlns:xlink="http://www.w3.org/1999/xlink">
    <title>icon/light/circle-dashed</title>
    <g id="icon/light/circle-dashed" stroke="none" stroke-width="1" fill="none" fill-rule="evenodd">
        <path d="M9.34057,13.8497 L9.72803,14.7851 C9.17532,14.9254 8.59637,15 8,15 C7.4036,15 6.82462,14.9254 6.27187,14.7851 L6.27187,14.7851 L6.65933,13.8497 C7.09039,13.948 7.53913,14 8,14 C8.46084,14 8.90954,13.948 9.34057,13.8497 L9.34057,13.8497 Z M2.91619,11.1882 C3.39723,11.9536 4.04635,12.6027 4.81178,13.0838 L4.42435,14.0191 C3.42033,13.4214 2.57855,12.5796 1.98084,11.5756 L2.91619,11.1882 Z M13.0838,11.1882 L14.0191,11.5756 C13.4214,12.5797 12.5796,13.4215 11.5756,14.0192 L11.1881,13.0838 C11.9536,12.6028 12.6027,11.9536 13.0838,11.1882 Z M1.21492,6.27194 L2.15033,6.6594 C2.05196,7.09044 2,7.53915 2,8 C2,8.46085 2.05196,8.90956 2.15033,9.3406 L1.21492,9.72806 C1.07458,9.17534 1,8.59638 1,8 C1,7.40362 1.07458,6.82466 1.21492,6.27194 Z M14.7851,6.27191 C14.9254,6.82464 15,7.40361 15,8 C15,8.59639 14.9254,9.17536 14.7851,9.7281 L13.8497,9.34064 C13.948,8.90959 14,8.46086 14,8 C14,7.53914 13.948,7.09042 13.8497,6.65937 L14.7851,6.27191 Z M4.42436,1.98087 L4.81179,2.91622 C4.04635,3.39727 3.39722,4.0464 2.91619,4.81184 L1.98084,4.42441 C2.57855,3.42038 3.42033,2.57859 4.42436,1.98087 Z M11.5756,1.98082 C12.5796,2.57854 13.4214,3.42034 14.0191,4.42438 L13.0838,4.81182 C12.6027,4.04635 11.9536,3.39721 11.1881,2.91617 L11.5756,1.98082 Z M8,1 C8.59637,1 9.17531,1.07458 9.72803,1.21491 L9.34057,2.15032 C8.90954,2.05195 8.46084,2 8,2 C7.53913,2 7.0904,2.05196 6.65934,2.15035 L6.27188,1.21494 C6.82462,1.07458 7.4036,1 8,1 Z" id="shape" fill="#242424"></path>
    </g>
</svg>