<?xml version="1.0" encoding="UTF-8"?>
<svg width="16" height="16" viewBox="0 0 16 16" version="1.1" xmlns="http://www.w3.org/2000/svg" xmlns:xlink="http://www.w3.org/1999/xlink">
    <title>icon/light/code-scan</title>
    <g id="icon/light/code-scan" stroke="none" stroke-width="1" fill="none" fill-rule="evenodd">
        <path d="M3,13 L3,11 L2,11 L2,14 L5,14 L5,13 L3,13 Z M13,13 L11,13 L11,14 L14,14 L14,11 L13,11 L13,13 Z M15,8.5 L15,7.5 L1,7.5 L1,8.5 L15,8.5 Z M3,3 L5,3 L5,2 L2,2 L2,5 L3,5 L3,3 Z M13,3 L13,5 L14,5 L14,2 L11,2 L11,3 L13,3 Z" id="shape" fill="#242424"></path>
    </g>
</svg>