<?xml version="1.0" encoding="UTF-8"?>
<svg width="16" height="16" viewBox="0 0 16 16" version="1.1" xmlns="http://www.w3.org/2000/svg" xmlns:xlink="http://www.w3.org/1999/xlink">
    <title>icon/light/collapse-all</title>
    <g id="icon/light/collapse-all" stroke="none" stroke-width="1" fill="none" fill-rule="evenodd">
        <path d="M8,10 L10.5,12.5 L9.79289,13.2071 L8.5,11.9142 L8.5,15 L7.5,15 L7.5,11.9142 L6.20711,13.2071 L5.5,12.5 L8,10 Z M14,8.5 L14,9.5 L2,9.5 L2,8.5 L14,8.5 Z M14,6.5 L14,7.5 L2,7.5 L2,6.5 L14,6.5 Z M8.5,1 L8.5,4.0858 L9.79289,2.7929 L10.5,3.50001 L8,6 L5.5,3.49999 L6.20711,2.79288 L7.5,4.08577 L7.5,1 L8.5,1 Z" id="shape" fill="#242424"></path>
    </g>
</svg>