<svg xmlns:xlink="http://www.w3.org/1999/xlink" xmlns="http://www.w3.org/2000/svg" viewBox="0 0 24 24" class="CometIcon" style="font-size: 2rem;" width="24"  height="24" ><path d="M15.81 9.45V5.44999H22.21C22.215 5.40346 22.215 5.35653 22.21 5.30999C21.768 4.20181 20.9966 3.25591 20 2.59999C19.12 2.02185 18.0995 1.6937 17.0475 1.65062C15.9955 1.60754 14.9515 1.85114 14.0272 2.3554C13.1029 2.85965 12.333 3.6056 11.7998 4.5135C11.2666 5.42141 10.9902 6.45714 11 7.51C11.064 8.59453 11.3717 9.6507 11.9 10.6L2.90001 19.74L4.14001 21L13.27 12.29C14.3091 13.0381 15.5711 13.4118 16.85 13.35C17.9962 13.3701 19.1222 13.0465 20.0828 12.4209C21.0435 11.7953 21.7948 10.8964 22.24 9.84V9.45H15.81Z" fill="#8390A0"></path><path d="M12.4685 14.5971L9.35724 11.4858L1.64978 19.1933L4.76105 22.3046L12.4685 14.5971Z" fill="#8390A0"></path></svg>