<svg xmlns:xlink="http://www.w3.org/1999/xlink" xmlns="http://www.w3.org/2000/svg" viewBox="0 0 24 24" class="CometIcon" style="font-size: 2rem;" width="24"  height="24" ><path d="M19.54 4.42005H14.07C13.8978 3.89277 13.5632 3.43345 13.1142 3.10776C12.6652 2.78207 12.1247 2.60669 11.57 2.60669C11.0153 2.60669 10.4748 2.78207 10.0258 3.10776C9.5768 3.43345 9.24225 3.89277 9.07001 4.42005H3.64001V21.35H19.54V4.42005ZM11.19 9.75005C11.6831 9.66649 12.19 9.74106 12.6381 9.96308C13.0862 10.1851 13.4527 10.5432 13.6849 10.9861C13.9172 11.429 14.0034 11.9341 13.9311 12.4289C13.8589 12.9238 13.632 13.3832 13.2829 13.7412C12.9338 14.0993 12.4803 14.3378 11.9874 14.4225C11.4945 14.5072 10.9875 14.4338 10.5388 14.2129C10.0902 13.9919 9.72293 13.6347 9.48963 13.1923C9.25634 12.7499 9.16897 12.2451 9.24001 11.75C9.31425 11.2543 9.54248 10.7944 9.89242 10.4355C10.2424 10.0766 10.6963 9.83681 11.19 9.75005ZM16.31 19.17H6.85001V17.4C6.85001 15.83 9.99001 15.6301 11.57 15.6301C13.15 15.6301 16.3 15.83 16.3 17.4L16.31 19.17ZM13 5.70005C13 5.96508 12.9214 6.22415 12.7742 6.44451C12.6269 6.66488 12.4177 6.83663 12.1728 6.93805C11.928 7.03947 11.6585 7.06601 11.3986 7.0143C11.1387 6.9626 10.8999 6.83498 10.7125 6.64757C10.5251 6.46017 10.3975 6.22141 10.3458 5.96147C10.2941 5.70154 10.3206 5.43211 10.422 5.18725C10.5234 4.9424 10.6952 4.73312 10.9156 4.58588C11.1359 4.43864 11.395 4.36005 11.66 4.36005C12.0154 4.36005 12.3562 4.50123 12.6075 4.75253C12.8588 5.00383 13 5.34466 13 5.70005Z" fill="#8390A0"></path></svg>