<svg xmlns:xlink="http://www.w3.org/1999/xlink" xmlns="http://www.w3.org/2000/svg" viewBox="0 0 24 24" class="CometIcon CometIcon--clickable" style="font-size: 2.4rem;" width="24"  height="24" ><path d="M12,2.32a9.83,9.83,0,1,0,9.83,9.83A9.83,9.83,0,0,0,12,2.32Zm.54,16.31H10.8V16.85h1.74ZM13.71,13c-1,.56-1.23.91-1.23,1.61v.9h-1.7V14.38a2.83,2.83,0,0,1,1.72-2.51c1.24-.71,1.72-1.27,1.72-2.13a1.71,1.71,0,0,0-1.91-1.62A2.35,2.35,0,0,0,9.76,10.6L8,10.49a4,4,0,0,1,4.33-4A3.45,3.45,0,0,1,16,9.72C16,11.12,15.27,12,13.71,13Z" fill="#8390A0"></path></svg>