<svg xmlns:xlink="http://www.w3.org/1999/xlink" xmlns="http://www.w3.org/2000/svg" viewBox="0 0 24 24" class="CometIcon" style="font-size: 2.4rem;" width="24"  height="24" ><path d="M19.19,12.94a7.3,7.3,0,0,0,.07-.94,7.3,7.3,0,0,0-.07-.94L21.56,9.2l-.21-.37L19.42,5.48c-.12-.21,0,0-.22-.35L16.42,6.25a7.27,7.27,0,0,0-1.64-1l-.36-2.56a3.17,3.17,0,0,1-.06-.41H9.66l-.08.41L9.22,5.29a7.27,7.27,0,0,0-1.64,1L4.79,5.12l-.21.36L2.65,8.83l-.21.35,2.37,1.88a7.3,7.3,0,0,0-.07.94,7.3,7.3,0,0,0,.07.94l-2,1.61-.32.26,2.14,3.71a3.5,3.5,0,0,0,.23.35l2.77-1.12a7.27,7.27,0,0,0,1.64,1l.42,3h4.71l.43-3a7.2,7.2,0,0,0,1.63-1l2.79,1.13.21-.36,1.94-3.35a2.45,2.45,0,0,0,.18-.4ZM12,16.16A4.16,4.16,0,1,1,16.16,12,4.16,4.16,0,0,1,12,16.16Z" fill="#8390A0"></path></svg>