<svg xmlns:xlink="http://www.w3.org/1999/xlink" xmlns="http://www.w3.org/2000/svg" viewBox="0 0 24 24" class="CometIcon" style="font-size: 2rem;" width="24"  height="24" ><path d="M16.96 22.7999L9.41 18.8899L8.59 22.7999H16.96Z" fill="#00263E"></path><path d="M7.74 18.13L3.29 15.85L2.06 22.7999H6.8L7.74 18.13Z" fill="#00263E"></path><path d="M20 12.53H16.3L13.2 16.38C13.0718 16.5423 12.9084 16.6735 12.7222 16.7636C12.5361 16.8538 12.3319 16.9007 12.125 16.9007C11.9181 16.9007 11.7139 16.8538 11.5278 16.7636C11.3416 16.6735 11.1782 16.5423 11.05 16.38L7.76 12.53H4L3.69 14.18L9.78 17.32L15.78 20.32L20.59 22.79H22.01L20 12.53Z" fill="#00263E"></path><path d="M12 1.19995C10.7685 1.2026 9.5883 1.69368 8.71841 2.56544C7.84853 3.43719 7.35999 4.61842 7.36 5.84995C7.36 9.32995 12 14.47 12 14.47C12 14.47 16.64 9.32995 16.64 5.84995C16.64 4.61842 16.1515 3.43719 15.2816 2.56544C14.4117 1.69368 13.2315 1.2026 12 1.19995ZM12 7.49995C11.6713 7.49995 11.3499 7.40233 11.0767 7.21948C10.8035 7.03663 10.5908 6.77678 10.4654 6.47287C10.3401 6.16897 10.3078 5.83468 10.3727 5.51241C10.4375 5.19013 10.5966 4.89437 10.8298 4.66261C11.0629 4.43086 11.3597 4.27356 11.6823 4.21064C12.005 4.14772 12.3391 4.18202 12.6422 4.3092C12.9454 4.43638 13.2039 4.6507 13.3851 4.925C13.5663 5.19929 13.662 5.52122 13.66 5.84995C13.66 6.06748 13.617 6.28286 13.5334 6.4837C13.4499 6.68454 13.3275 6.86688 13.1732 7.02023C13.0189 7.17358 12.8358 7.2949 12.6345 7.37723C12.4332 7.45956 12.2175 7.50127 12 7.49995Z" fill="#00263E"></path></svg>