<svg xmlns:xlink="http://www.w3.org/1999/xlink" xmlns="http://www.w3.org/2000/svg" viewBox="0 0 24 24" class="CometIcon" style="font-size: 2rem;" width="24"  height="24" ><path d="M16.43 3.81999C14.8044 3.02615 13.3103 1.98738 12 0.73999C10.8533 2.0818 9.45762 3.18885 7.89001 3.99999C6.26123 4.61055 4.52857 4.89593 2.79001 4.83999V13.32C2.79001 16.1 6.71001 21.98 12 23.32C17.29 22.03 21.21 16.15 21.21 13.32V4.82999C19.5766 4.72316 17.967 4.38304 16.43 3.81999ZM10.32 17.82L6.39001 13.69L8.39001 11.82L10.33 13.82L15.6 7.53999L17.6 9.53999L10.32 17.82Z" fill="#8390A0"></path><path d="M12 0.73999C10.8533 2.0818 9.45762 3.18885 7.89001 3.99999C6.26123 4.61055 4.52857 4.89593 2.79001 4.83999V13.32C2.79001 16.1 6.71001 21.98 12 23.32V0.73999ZM12 15.95L10.32 17.87L6.39001 13.69L8.39001 11.82L10.33 13.82L12.04 11.82" fill="#8390A0"></path></svg>