<svg xmlns:xlink="http://www.w3.org/1999/xlink" xmlns="http://www.w3.org/2000/svg" viewBox="0 0 24 24" class="CometIcon" style="font-size: 3.2rem;" width="32"  height="32" ><path d="m12,0.007161l0,0c-4.784545,0 -8.656249,3.871704 -8.656249,8.656249l0,6.673181c0,4.784545 3.871704,8.656249 8.656249,8.656249l0,0c4.784545,0 8.656249,-3.903181 8.656249,-8.656249l0,-6.673181c0,-4.784545 -3.871704,-8.656249 -8.656249,-8.656249zm-5.823295,17.564316c0,0.220341 -0.188864,0.409204 -0.409204,0.409204c-0.220341,0 -0.409204,-0.188864 -0.409204,-0.409204l0,-0.503636c0,-0.220341 0.188864,-0.409204 0.409204,-0.409204c0.220341,0 0.409204,0.188864 0.409204,0.409204l0,0.503636zm1.259091,2.046022c0,0.220341 -0.188864,0.409204 -0.409204,0.409204c-0.220341,0 -0.409204,-0.188864 -0.409204,-0.409204l0,-0.503636c0,-0.220341 0.188864,-0.409204 0.409204,-0.409204c0.220341,0 0.409204,0.188864 0.409204,0.409204l0,0.503636zm1.227613,-2.046022c0,0.220341 -0.188864,0.409204 -0.409204,0.409204c-0.220341,0 -0.409204,-0.188864 -0.409204,-0.409204l0,-0.503636c0,-0.220341 0.188864,-0.409204 0.409204,-0.409204c0.220341,0 0.409204,0.188864 0.409204,0.409204l0,0.503636zm1.259091,2.046022c0,0.220341 -0.188864,0.409204 -0.409204,0.409204c-0.220341,0 -0.409204,-0.188864 -0.409204,-0.409204l0,-0.503636c0,-0.220341 0.188864,-0.409204 0.409204,-0.409204c0.220341,0 0.409204,0.188864 0.409204,0.409204l0,0.503636zm1.227613,2.014545c0,0.220341 -0.188864,0.409204 -0.409204,0.409204c-0.220341,0 -0.409204,-0.188864 -0.409204,-0.409204l0,-0.503636c0,-0.220341 0.188864,-0.409204 0.409204,-0.409204c0.220341,0 0.409204,0.188864 0.409204,0.409204l0,0.503636zm1.259091,-2.014545c0,0.220341 -0.188864,0.409204 -0.409204,0.409204c-0.220341,0 -0.409204,-0.188864 -0.409204,-0.409204l0,-0.503636c0,-0.220341 0.188864,-0.409204 0.409204,-0.409204c0.220341,0 0.409204,0.188864 0.409204,0.409204l0,0.503636zm1.227613,2.014545c0,0.220341 -0.188864,0.409204 -0.409204,0.409204s-0.409204,-0.188864 -0.409204,-0.409204l0,-0.503636c0,-0.220341 0.188864,-0.409204 0.409204,-0.409204s0.409204,0.188864 0.409204,0.409204l0,0.503636zm1.259091,-2.014545c0,0.220341 -0.188864,0.409204 -0.409204,0.409204s-0.409204,-0.188864 -0.409204,-0.409204l0,-0.503636c0,-0.220341 0.188864,-0.409204 0.409204,-0.409204s0.409204,0.188864 0.409204,0.409204l0,0.503636zm1.227613,-2.046022c0,0.220341 -0.188864,0.409204 -0.409204,0.409204c-0.220341,0 -0.409204,-0.188864 -0.409204,-0.409204l0,-0.503636c0,-0.220341 0.188864,-0.409204 0.409204,-0.409204c0.220341,0 0.409204,0.188864 0.409204,0.409204l0,0.503636zm1.259091,2.046022c0,0.220341 -0.188864,0.409204 -0.409204,0.409204c-0.220341,0 -0.409204,-0.188864 -0.409204,-0.409204l0,-0.503636c0,-0.220341 0.188864,-0.409204 0.409204,-0.409204c0.220341,0 0.409204,0.188864 0.409204,0.409204l0,0.503636zm1.227613,-2.046022c0,0.220341 -0.188864,0.409204 -0.409204,0.409204c-0.220341,0 -0.409204,-0.188864 -0.409204,-0.409204l0,-0.503636c0,-0.220341 0.188864,-0.409204 0.409204,-0.409204c0.220341,0 0.409204,0.188864 0.409204,0.409204l0,0.503636zm-6.515794,-0.912841c-0.031477,0 -0.062955,0 -0.094432,0c-0.031477,0 -0.062955,0 -0.094432,0c-4.217954,-0.944318 -7.302726,-4.438295 -7.302726,-8.341476c0,-2.297841 1.070227,-4.469772 2.832954,-5.665908c1.385,-0.944318 2.99034,-1.164659 4.595681,-0.598068c1.573863,-0.566591 3.210681,-0.34625 4.595681,0.598068c1.73125,1.196136 2.832954,3.368068 2.832954,5.665908c-0.062955,3.903181 -3.147727,7.397158 -7.365681,8.341476z" fill="#00263E"></path><path d="m16.123522,3.343752c-1.196136,-0.818409 -2.612613,-1.007273 -3.966136,-0.472159c-0.094432,0.031477 -0.188864,0.031477 -0.283295,0c-0.535114,-0.188864 -1.070227,-0.314773 -1.573863,-0.314773c-0.849886,0 -1.668295,0.251818 -2.392272,0.755454c-1.542386,1.070227 -2.486704,2.99034 -2.486704,5.004886c0,3.493977 2.77,6.641704 6.578749,7.49159c3.840227,-0.881364 6.578749,-4.02909 6.578749,-7.49159c0,-2.014545 -0.944318,-3.934659 -2.455227,-4.973408zm0.755454,4.658636c-0.220341,0.472159 -0.535114,0.881364 -0.975795,1.133182c-0.251818,0.157386 -0.503636,0.251818 -0.786932,0.314773c-0.220341,0.062955 -0.440682,-0.094432 -0.472159,-0.314773c-0.062955,-0.220341 0.094432,-0.440682 0.314773,-0.472159c0.188864,-0.031477 0.377727,-0.125909 0.535114,-0.220341c0.283295,-0.188864 0.535114,-0.440682 0.661023,-0.786932c0.094432,-0.188864 0.062955,-0.377727 -0.031477,-0.566591c-0.094432,-0.157386 -0.283295,-0.283295 -0.472159,-0.283295c-0.440682,-0.031477 -0.818409,0.094432 -1.101704,0.409204c-0.472159,0.472159 -0.6925,1.353523 -0.755454,1.699772c-0.062955,0.283295 -0.723977,3.11625 -1.101704,4.690113c-0.062955,0.314773 -0.34625,0.503636 -0.661023,0.503636l0,0c-0.314773,0 -0.566591,-0.220341 -0.661023,-0.503636c-0.377727,-1.605341 -1.03875,-4.406818 -1.101704,-4.690113c-0.094432,-0.377727 -0.283295,-1.227613 -0.755454,-1.73125c-0.283295,-0.283295 -0.661023,-0.440682 -1.101704,-0.409204c-0.188864,0 -0.377727,0.125909 -0.472159,0.283295c-0.094432,0.188864 -0.125909,0.377727 -0.031477,0.566591c0.157386,0.34625 0.377727,0.598068 0.661023,0.786932c0.157386,0.094432 0.34625,0.188864 0.535114,0.220341c0.220341,0.062955 0.34625,0.251818 0.314773,0.472159c-0.062955,0.220341 -0.251818,0.34625 -0.472159,0.314773c-0.283295,-0.062955 -0.535114,-0.157386 -0.786932,-0.314773c-0.440682,-0.283295 -0.755454,-0.661023 -0.975795,-1.133182c-0.188864,-0.440682 -0.157386,-0.912841 0.094432,-1.322045c0.251818,-0.409204 0.661023,-0.661023 1.133182,-0.661023c0.6925,-0.031477 1.290568,0.188864 1.73125,0.629545c0.629545,0.629545 0.881364,1.668295 0.975795,2.108977c0.062955,0.251818 0.598068,2.486704 0.975795,4.092045c0.377727,-1.605341 0.912841,-3.840227 0.975795,-4.092045c0.094432,-0.440682 0.34625,-1.479432 0.975795,-2.108977c0.440682,-0.440682 1.070227,-0.661023 1.73125,-0.629545c0.472159,0.031477 0.881364,0.283295 1.133182,0.661023c0.125909,0.440682 0.157386,0.944318 -0.031477,1.353523z" fill="#00263E"></path></svg>