<?xml version="1.0" encoding="UTF-8"?>
<svg width="16" height="16" viewBox="0 0 16 16" version="1.1" xmlns="http://www.w3.org/2000/svg" xmlns:xlink="http://www.w3.org/1999/xlink">
    <title>icon/light/compare</title>
    <g id="icon/light/compare" stroke="none" stroke-width="1" fill="none" fill-rule="evenodd">
        <path d="M14.9993,3.01151 L14.7839,2.03497 L9.7892,3.10526 C9.46082,2.44989 8.78295,2 8,2 C6.92329,2 6.04529,2.85085 6.0017,3.91687 L1.00113,4.98842 L1.21654,5.96496 L2.56163,5.67673 L1,8.79999 C1,9.90456 1.89543,10.8 3,10.8 C4.10457,10.8 5,9.90456 5,8.79999 L3.35352,5.50703 L6.21083,4.89476 C6.4668,5.4056 6.93511,5.7916 7.5,5.93699 L7.5,13 L5,13 L5,14 L11,14 L11,13 L8.5,13 L8.5,5.93699 C9.33684,5.72161 9.96171,4.97823 9.99831,4.08315 L12.5856,3.52872 L11,6.70001 C11,7.80458 11.8954,8.70001 13,8.70001 C14.1046,8.70001 15,7.80458 15,6.70001 L13.3342,3.36833 L14.9993,3.01151 Z M8.00001,5 C8.55229,5 9.00001,4.55228 9.00001,4 C9.00001,3.44772 8.55229,3 8.00001,3 C7.44772,3 7.00001,3.44772 7.00001,4 C7.00001,4.55228 7.44772,5 8.00001,5 Z M12.0194,6.8972 C12.111,7.35505 12.5152,7.70001 13,7.70001 C13.4848,7.70001 13.889,7.35505 13.9806,6.8972 L13,4.93608 L12.0194,6.8972 Z M2.01944,8.99718 C2.111,9.45503 2.51522,9.79999 3,9.79999 C3.48478,9.79999 3.889,9.45503 3.98056,8.99718 L3,7.03606 L2.01944,8.99718 Z" id="shape" fill="#242424"></path>
    </g>
</svg>