<?xml version="1.0" encoding="UTF-8"?>
<svg width="16" height="16" viewBox="0 0 16 16" version="1.1" xmlns="http://www.w3.org/2000/svg" xmlns:xlink="http://www.w3.org/1999/xlink">
    <title>icon/light/core</title>
    <g id="icon/light/core" stroke="none" stroke-width="1" fill="none" fill-rule="evenodd">
        <path d="M12.9,9 C12.9656,8.67689 13,8.34247 13,8 C13,7.65753 12.9656,7.32311 12.9,7 L16,7 L16,6 L12.584,6 C11.8124,4.2341 10.0503,3 8,3 C5.94968,3 4.1876,4.2341 3.41604,6 L0,6 L0,7 L3.10002,7 C3.03443,7.32311 3,7.65753 3,8 C3,8.34247 3.03443,8.67689 3.10002,9 L0,9 L0,10 L3.41604,10 C4.1876,11.7659 5.94968,13 8,13 C10.0503,13 11.8124,11.7659 12.584,10 L16,10 L16,9 L12.9,9 Z M8,12 C10.2091,12 12,10.2091 12,8 C12,5.79086 10.2091,4 8,4 C5.79086,4 4,5.79086 4,8 C4,10.2091 5.79086,12 8,12 Z" id="shape" fill="#242424"></path>
    </g>
</svg>