<?xml version="1.0" encoding="UTF-8"?>
<svg width="16" height="16" viewBox="0 0 16 16" version="1.1" xmlns="http://www.w3.org/2000/svg" xmlns:xlink="http://www.w3.org/1999/xlink">
    <title>icon/light/creditcard</title>
    <g id="icon/light/creditcard" stroke="none" stroke-width="1" fill="none" fill-rule="evenodd">
        <path d="M14,3 C14.5523,3 15,3.44772 15,4 L15,4 L15,12 C15,12.5523 14.5523,13 14,13 L14,13 L2,13 C1.44772,13 1,12.5523 1,12 L1,12 L1,4 C1,3.44772 1.44772,3 2,3 L2,3 Z M14,6 L2,6 L2,12 L14,12 L14,6 Z M6,10 L6,11 L3,11 L3,10 L6,10 Z M14,4 L2,4 L2,5 L14,5 L14,4 Z" id="shape" fill="#242424"></path>
    </g>
</svg>