<?xml version="1.0" encoding="UTF-8"?>
<svg width="16" height="16" viewBox="0 0 16 16" version="1.1" xmlns="http://www.w3.org/2000/svg" xmlns:xlink="http://www.w3.org/1999/xlink">
    <title>icon/light/dashboard</title>
    <g id="icon/light/dashboard" stroke="none" stroke-width="1" fill="none" fill-rule="evenodd">
        <path d="M8,2 C11.866,2 15,5.13401 15,9 C15,11.1129 14.0638,13.0072 12.5837,14.2907 L12.2447,13.9517 L12.2438,13.9526 L11.1811,12.8899 L11.8882,12.1828 L12.5808,12.8753 C13.3649,11.9494 13.8733,10.7826 13.9793,9.50169 L13,9.50169 L13,8.50169 L13.9796,8.50169 C13.8742,7.22025 13.3662,6.05292 12.5823,5.1265 L11.8899,5.81887 L11.1828,5.11176 L11.8753,4.41925 C10.949,3.6348 9.78162,3.12627 8.5,3.02054 L8.5,4 L7.5,4 L7.5,3.02054 C6.21838,3.12627 5.05097,3.6348 4.12466,4.41925 L4.81717,5.11176 L4.11007,5.81887 L3.4177,5.1265 C2.63379,6.05292 2.12575,7.22025 2.0204,8.50169 L3,8.50169 L3,9.50169 L2.02068,9.50169 C2.12672,10.7826 2.63515,11.9494 3.41925,12.8753 L4.11176,12.1828 L4.81887,12.8899 L3.75616,13.9526 L3.75528,13.9518 L3.41633,14.2907 C1.93616,13.0072 1,11.1129 1,9 C1,5.13401 4.13401,2 8,2 Z M5.52061,5.8152 L7.16946,7.46405 C7.41644,7.33021 7.69934,7.25421 7.99999,7.25421 C8.96416,7.25421 9.74578,8.03582 9.74578,8.99999 C9.74578,9.96416 8.96416,10.7458 7.99999,10.7458 C7.03582,10.7458 6.25421,9.96416 6.25421,8.99999 C6.25421,8.70024 6.32976,8.41812 6.46286,8.17166 L4.81351,6.52231 L5.52061,5.8152 Z M7.99999,8.25421 C7.58811,8.25421 7.25421,8.58811 7.25421,8.99999 C7.25421,9.41188 7.58811,9.74578 7.99999,9.74578 C8.41188,9.74578 8.74578,9.41188 8.74578,8.99999 C8.74578,8.58811 8.41188,8.25421 7.99999,8.25421 Z" id="shape" fill="#242424"></path>
    </g>
</svg>