<?xml version="1.0" encoding="UTF-8"?>
<svg width="16" height="16" viewBox="0 0 16 16" version="1.1" xmlns="http://www.w3.org/2000/svg" xmlns:xlink="http://www.w3.org/1999/xlink">
    <title>icon/light/database</title>
    <g id="icon/light/database" stroke="none" stroke-width="1" fill="none" fill-rule="evenodd">
        <path d="M14,4 C14,2.89543 11.3137,2 8,2 C4.68629,2 2,2.89543 2,4 L2,12 C2,13.1046 4.68629,14 8,14 C11.3137,14 14,13.1046 14,12 L14,4 Z M11.9264,3.53447 C12.4031,3.69338 12.7206,3.86078 12.9007,4 C12.7206,4.13922 12.4031,4.30662 11.9264,4.46553 C10.9675,4.78515 9.57928,5 8,5 C6.42072,5 5.03245,4.78515 4.07359,4.46553 C3.59686,4.30662 3.27937,4.13922 3.09935,4 C3.27937,3.86078 3.59686,3.69338 4.07359,3.53447 C5.03245,3.21485 6.42072,3 8,3 C9.57928,3 10.9675,3.21485 11.9264,3.53447 Z M13,5.10593 C11.9251,5.64483 10.087,6 8,6 C5.91303,6 4.07492,5.64483 3,5.10593 L3,11.9123 C3.01773,11.9312 3.04625,11.9582 3.09048,11.9931 C3.26885,12.1336 3.58893,12.304 4.07359,12.4655 C5.03245,12.7852 6.42072,13 8,13 C9.57928,13 10.9675,12.7852 11.9264,12.4655 C12.4111,12.304 12.7311,12.1336 12.9095,11.9931 C12.9537,11.9582 12.9823,11.9312 13,11.9123 L13,5.10593 Z" id="shape" fill="#242424"></path>
    </g>
</svg>