<?xml version="1.0" encoding="UTF-8"?>
<svg width="16" height="16" viewBox="0 0 16 16" version="1.1" xmlns="http://www.w3.org/2000/svg" xmlns:xlink="http://www.w3.org/1999/xlink">
    <title>icon/light/diagnose</title>
    <g id="icon/light/diagnose" stroke="none" stroke-width="1" fill="none" fill-rule="evenodd">
        <path d="M4,1 L4,2 L3,2 C2.48716,2 2.06449,2.38604 2.00673,2.88338 L2,3 L2,5.5 C2,7.433 3.567,9 5.5,9 C7.36856,9 8.89513,7.53572 8.99482,5.69204 L9,5.5 L9,3 C9,2.48716 8.61396,2.06449 8.11662,2.00673 L8,2 L7,2 L7,1 L8,1 C9.10457,1 10,1.89543 10,3 L10,5.5 C10,7.81603 8.25034,9.72341 6.00071,9.97246 L6,11 C6,12.5977 7.24892,13.9037 8.82373,13.9949 L9,14 L9.5,14 C11.0977,14 12.4037,12.7511 12.4949,11.1763 L12.5,11 L12.5,7.93699 C11.6374,7.71496 11,6.93191 11,6 C11,4.89543 11.8954,4 13,4 C14.1046,4 15,4.89543 15,6 C15,6.93155 14.3631,7.71435 13.501,7.93673 L13.5,11 C13.5,13.2091 11.7091,15 9.5,15 L9,15 C6.79086,15 5,13.2091 5,11 L5.0003,9.97257 C2.75018,9.72398 1,7.81638 1,5.5 L1,3 C1,1.89543 1.89543,1 3,1 L4,1 Z M13,5 C12.4477,5 12,5.44772 12,6 C12,6.55228 12.4477,7 13,7 C13.5523,7 14,6.55228 14,6 C14,5.44772 13.5523,5 13,5 Z" id="shape" fill="#242424"></path>
    </g>
</svg>