<?xml version="1.0" encoding="UTF-8"?>
<svg width="16" height="16" viewBox="0 0 16 16" version="1.1" xmlns="http://www.w3.org/2000/svg" xmlns:xlink="http://www.w3.org/1999/xlink">
    <title>icon/light/dial</title>
    <g id="icon/light/dial" stroke="none" stroke-width="1" fill="none" fill-rule="evenodd">
        <path d="M8,14 C8.55229,14 9,14.4477 9,15 C9,15.5523 8.55229,16 8,16 C7.44772,16 7,15.5523 7,15 C7,14.4477 7.44772,14 8,14 Z M3.63397,13.5622 C3.91011,13.0839 4.52171,12.92 5,13.1961 C5.47829,13.4723 5.64217,14.0839 5.36602,14.5622 C5.08988,15.0405 4.47829,15.2043 4,14.9282 C3.5217,14.6521 3.35783,14.0405 3.63397,13.5622 Z M2.80384,11 C3.07998,11.4783 2.9161,12.0899 2.43781,12.366 C1.95952,12.6422 1.34793,12.4783 1.07179,12 C0.795644,11.5217 0.959518,10.9101 1.43781,10.634 C1.9161,10.3578 2.52769,10.5217 2.80384,11 Z M8,5 C9.65685,5 11,6.34315 11,8 C11,9.65685 9.65685,11 8,11 C6.34315,11 5,9.65685 5,8 C5,6.34315 6.34315,5 8,5 Z M15,7 C15.5523,7 16,7.44772 16,8 C16,8.55228 15.5523,9 15,9 C14.4477,9 14,8.55228 14,8 C14,7.44772 14.4477,7 15,7 Z M1,7 C1.55229,7 2,7.44771 2,8 C2,8.55228 1.55229,9 1,9 C0.447715,9 0,8.55228 0,8 C0,7.44771 0.447715,7 1,7 Z M13.5622,3.63397 C14.0405,3.35783 14.6521,3.5217 14.9282,4 C15.2043,4.47829 15.0405,5.08988 14.5622,5.36602 C14.0839,5.64217 13.4723,5.47829 13.1961,5 C12.92,4.5217 13.0839,3.91011 13.5622,3.63397 Z M2.43781,3.63397 C2.9161,3.91011 3.07998,4.5217 2.80384,5 C2.52769,5.47829 1.9161,5.64216 1.43781,5.36602 C0.959518,5.08988 0.795643,4.47829 1.07179,4 C1.34793,3.5217 1.95952,3.35783 2.43781,3.63397 Z M12,1.07179 C12.4783,1.34793 12.6422,1.95953 12.366,2.43782 C12.0899,2.91611 11.4783,3.07999 11,2.80384 C10.5217,2.5277 10.3578,1.91611 10.634,1.43782 C10.9101,0.959525 11.5217,0.79565 12,1.07179 Z M5.36603,1.43781 C5.64217,1.9161 5.47829,2.52769 5,2.80384 C4.52171,3.07998 3.91012,2.9161 3.63398,2.43781 C3.35783,1.95952 3.52171,1.34793 4,1.07179 C4.47829,0.795644 5.08988,0.959519 5.36603,1.43781 Z M8,0 C8.55229,0 9,0.447715 9,1 C9,1.55228 8.55229,2 8,2 C7.44772,2 7,1.55228 7,1 C7,0.447715 7.44772,0 8,0 Z" id="shape" fill="#242424"></path>
    </g>
</svg>