<?xml version="1.0" encoding="UTF-8"?>
<svg width="16" height="16" viewBox="0 0 16 16" version="1.1" xmlns="http://www.w3.org/2000/svg" xmlns:xlink="http://www.w3.org/1999/xlink">
    <title>icon/light/drag-handle</title>
    <g id="icon/light/drag-handle" stroke="none" stroke-width="1" fill="none" fill-rule="evenodd">
        <path d="M5.5,12 C6.05228,12 6.5,12.4477 6.5,13 C6.5,13.5523 6.05228,14 5.5,14 C4.94772,14 4.5,13.5523 4.5,13 C4.5,12.4477 4.94772,12 5.5,12 Z M10.5,12 C11.0523,12 11.5,12.4477 11.5,13 C11.5,13.5523 11.0523,14 10.5,14 C9.94772,14 9.5,13.5523 9.5,13 C9.5,12.4477 9.94772,12 10.5,12 Z M5.5,7 C6.05228,7 6.5,7.44772 6.5,8 C6.5,8.55228 6.05228,9 5.5,9 C4.94772,9 4.5,8.55228 4.5,8 C4.5,7.44772 4.94772,7 5.5,7 Z M10.5,7 C11.0523,7 11.5,7.44772 11.5,8 C11.5,8.55228 11.0523,9 10.5,9 C9.94772,9 9.5,8.55228 9.5,8 C9.5,7.44772 9.94772,7 10.5,7 Z M5.5,2 C6.05228,2 6.5,2.44772 6.5,3 C6.5,3.55228 6.05228,4 5.5,4 C4.94772,4 4.5,3.55228 4.5,3 C4.5,2.44772 4.94772,2 5.5,2 Z M10.5,2 C11.0523,2 11.5,2.44772 11.5,3 C11.5,3.55228 11.0523,4 10.5,4 C9.94772,4 9.5,3.55228 9.5,3 C9.5,2.44772 9.94772,2 10.5,2 Z" id="shape" fill="#242424"></path>
    </g>
</svg>