<?xml version="1.0" encoding="UTF-8"?>
<svg width="16" height="16" viewBox="0 0 16 16" version="1.1" xmlns="http://www.w3.org/2000/svg" xmlns:xlink="http://www.w3.org/1999/xlink">
    <title>icon/light/econ</title>
    <g id="icon/light/econ" stroke="none" stroke-width="1" fill="none" fill-rule="evenodd">
        <path d="M11.536,10.1479 C12.248,9.90885 12.677,9.95385 13.041,10.1329 C13.402,10.3149 13.694,10.6309 13.834,11.0449 C13.971,11.4599 13.93,11.8889 13.748,12.2499 C13.566,12.6099 13.247,12.9019 12.534,13.1409 L4.44998,15.8359 C3.73698,16.0739 3.30798,16.0289 2.94398,15.8509 C2.58398,15.6689 2.29198,15.3529 2.15098,14.9389 C2.01398,14.5239 2.05598,14.0949 2.23798,13.7339 C2.41898,13.3729 2.73498,13.0809 3.45098,12.8429 L11.536,10.1479 Z M11.536,5.15475 C12.248,4.91575 12.677,4.96075 13.041,5.13975 C13.402,5.32175 13.694,5.63775 13.834,6.05175 C13.971,6.46575 13.93,6.89575 13.748,7.25575 C13.566,7.61675 13.247,7.90875 12.534,8.14775 L4.44998,10.8428 C3.73698,11.0808 3.30798,11.0358 2.94398,10.8578 C2.58398,10.6758 2.29198,10.3598 2.15098,9.94575 C2.01398,9.53075 2.05598,9.10175 2.23798,8.74075 C2.41898,8.37975 2.73498,8.08775 3.45098,7.84975 L11.536,5.15475 Z M11.536,0.164451 C12.248,-0.074549 12.677,-0.029549 13.041,0.149451 C13.402,0.331451 13.694,0.647451 13.834,1.06145 C13.971,1.47545 13.93,1.90545 13.748,2.26545 C13.566,2.62645 13.247,2.91845 12.534,3.15745 L4.44998,5.85245 C3.73698,6.09045 3.30798,6.04545 2.94398,5.86745 C2.58398,5.68545 2.29198,5.36945 2.15098,4.95545 C2.01398,4.54045 2.05598,4.11145 2.23798,3.74945 C2.41898,3.38945 2.73498,3.09745 3.45098,2.85945 L11.536,0.164451 Z" id="Ericsson" fill="#242424"></path>
    </g>
</svg>