<?xml version="1.0" encoding="UTF-8"?>
<svg width="16" height="16" viewBox="0 0 16 16" version="1.1" xmlns="http://www.w3.org/2000/svg" xmlns:xlink="http://www.w3.org/1999/xlink">
    <title>icon/light/ellipsis</title>
    <g id="icon/light/ellipsis" stroke="none" stroke-width="1" fill="none" fill-rule="evenodd">
        <path d="M3,7 C3.55228,7 4,7.44772 4,8 C4,8.55229 3.55228,9 3,9 C2.44772,9 2,8.55229 2,8 C2,7.44772 2.44772,7 3,7 Z M8,7 C8.55229,7 9,7.44772 9,8 C9,8.55229 8.55229,9 8,9 C7.44772,9 7,8.55229 7,8 C7,7.44772 7.44772,7 8,7 Z M13,7 C13.5523,7 14,7.44772 14,8 C14,8.55229 13.5523,9 13,9 C12.4477,9 12,8.55229 12,8 C12,7.44772 12.4477,7 13,7 Z" id="shape" fill="#242424"></path>
    </g>
</svg>