<svg version="1.1" xmlns="http://www.w3.org/2000/svg" width="32" height="32" viewBox="0 0 32 32">
<title>emotion-sad</title>
<path d="M16 4c6.627 0 12 5.373 12 12s-5.373 12-12 12c-6.627 0-12-5.373-12-12v0c0-6.627 5.373-12 12-12v0zM16 2c-7.732 0-14 6.268-14 14s6.268 14 14 14c7.732 0 14-6.268 14-14v0c0-0.003 0-0.006 0-0.010 0-7.726-6.264-13.99-13.99-13.99-0.003 0-0.007 0-0.011 0h0.001z"></path>
<path d="M13.76 11c0 1.105-0.895 2-2 2s-2-0.895-2-2c0-1.105 0.895-2 2-2s2 0.895 2 2z"></path>
<path d="M22.24 11c0 1.105-0.895 2-2 2s-2-0.895-2-2c0-1.105 0.895-2 2-2s2 0.895 2 2z"></path>
<path d="M23.18 22.52c-0.076-0.46-0.181-0.863-0.316-1.253l0.016 0.053c-0.937-2.878-3.596-4.922-6.733-4.922-0.052 0-0.103 0.001-0.155 0.002l0.008-0c-0.044-0.001-0.095-0.002-0.147-0.002-3.136 0-5.796 2.043-6.719 4.872l-0.014 0.050c-0.12 0.331-0.224 0.728-0.294 1.137l-0.006 0.043 0.84 0.74c1.892-0.685 4.075-1.080 6.35-1.080s4.459 0.396 6.484 1.122l-0.134-0.042 0.84-0.74zM20.32 20.6c-1.287-0.275-2.766-0.433-4.282-0.433-1.55 0-3.062 0.165-4.519 0.478l0.141-0.025c0.982-1.352 2.558-2.221 4.337-2.221 1.77 0 3.339 0.86 4.312 2.186l0.010 0.015z"></path>
</svg>
