<svg version="1.1" xmlns="http://www.w3.org/2000/svg" width="32" height="32" viewBox="0 0 32 32">
<title>emotion-happy</title>
<path d="M16 4c6.627 0 12 5.373 12 12s-5.373 12-12 12c-6.627 0-12-5.373-12-12v0c0-6.627 5.373-12 12-12v0zM16 2c-7.732 0-14 6.268-14 14s6.268 14 14 14c7.732 0 14-6.268 14-14v0c0-0.003 0-0.006 0-0.010 0-7.726-6.264-13.99-13.99-13.99-0.003 0-0.007 0-0.011 0h0.001z"></path>
<path d="M13.76 11c0 1.105-0.895 2-2 2s-2-0.895-2-2c0-1.105 0.895-2 2-2s2 0.895 2 2z"></path>
<path d="M22.24 11c0 1.105-0.895 2-2 2s-2-0.895-2-2c0-1.105 0.895-2 2-2s2 0.895 2 2z"></path>
<path d="M16 24.56c-0.007 0-0.015 0-0.023 0-2.775 0-5.26-1.245-6.926-3.207l-0.011-0.013 1.52-1.3c1.316 1.546 3.264 2.52 5.44 2.52s4.123-0.974 5.432-2.51l0.008-0.010 1.52 1.3c-1.687 1.974-4.178 3.218-6.96 3.22h-0z"></path>
</svg>
