<?xml version="1.0" encoding="UTF-8"?>
<svg width="16" height="16" viewBox="0 0 16 16" version="1.1" xmlns="http://www.w3.org/2000/svg" xmlns:xlink="http://www.w3.org/1999/xlink">
    <title>icon/light/eraser</title>
    <g id="icon/light/eraser" stroke="none" stroke-width="1" fill="none" fill-rule="evenodd">
        <path d="M14.4174,8.91579 L10.3316,13.0016 L15.0016,13.0016 L15.0016,14.0016 L3.67158,14.0016 L1.58579,11.9158 C0.804738,11.1347 0.804738,9.86841 1.58579,9.08737 L8.08736,2.58579 C8.86841,1.80474 10.1347,1.80474 10.9158,2.58579 L14.4174,6.08737 C15.1984,6.86841 15.1984,8.13474 14.4174,8.91579 Z M10.2087,3.29289 L13.7103,6.79447 C14.1008,7.185 14.1008,7.81816 13.7103,8.20868 L11.313,10.6059 L6.39723,5.69014 L8.79447,3.29289 C9.18499,2.90237 9.81816,2.90237 10.2087,3.29289 Z M5.69012,6.39724 L2.29289,9.79447 C1.90237,10.185 1.90237,10.8182 2.29289,11.2087 L4.08579,13.0016 L8.91736,13.0016 L10.6059,11.313 L5.69012,6.39724 Z" id="shape" fill="#242424"></path>
    </g>
</svg>