<?xml version="1.0" encoding="UTF-8"?>
<svg width="16" height="16" viewBox="0 0 16 16" version="1.1" xmlns="http://www.w3.org/2000/svg" xmlns:xlink="http://www.w3.org/1999/xlink">
    <title>icon/light/expand-all</title>
    <g id="icon/light/expand-all" stroke="none" stroke-width="1" fill="none" fill-rule="evenodd">
        <path d="M14,14 L14,15 L2,15 L2,14 L14,14 Z M8.5,8.5 L8.5,11.5858 L9.79289,10.2929 L10.5,11 L8,13.5 L5.5,11 L6.20711,10.2929 L7.5,11.5858 L7.5,8.5 L8.5,8.5 Z M8,2.5 L10.5,5 L9.79289,5.7071 L8.5,4.4142 L8.5,7.5 L7.5,7.5 L7.5,4.41423 L6.20711,5.70712 L5.5,5 L8,2.5 Z M14,1 L14,2 L2,2 L2,1 L14,1 Z" id="shape" fill="#242424"></path>
    </g>
</svg>