<?xml version="1.0" encoding="UTF-8"?>
<svg width="16" height="16" viewBox="0 0 16 16" version="1.1" xmlns="http://www.w3.org/2000/svg" xmlns:xlink="http://www.w3.org/1999/xlink">
    <title>icon/light/eye</title>
    <g id="icon/light/eye" stroke="none" stroke-width="1" fill="none" fill-rule="evenodd">
        <path d="M8,3 C11.4185,3 14.4031,5.01101 16,8 C14.4031,10.989 11.4185,13 8,13 C4.58154,13 1.59687,10.989 0,8 C1.59687,5.01101 4.58154,3 8,3 Z M8,4 C5.17159,4 2.64379,5.56474 1.15188,8 C2.64379,10.4353 5.17159,12 8,12 C10.8284,12 13.3562,10.4353 14.8481,8 C13.3562,5.56474 10.8284,4 8,4 Z M8,5 C9.65685,5 11,6.34315 11,8 C11,9.65685 9.65685,11 8,11 C6.34315,11 5,9.65685 5,8 C5,6.34315 6.34315,5 8,5 Z M8,6 C6.89543,6 6,6.89543 6,8 C6,9.10457 6.89543,10 8,10 C9.10457,10 10,9.10457 10,8 C10,6.89543 9.10457,6 8,6 Z" id="shape" fill="#242424"></path>
    </g>
</svg>