<?xml version="1.0" encoding="UTF-8"?>
<svg width="16" height="16" viewBox="0 0 16 16" version="1.1" xmlns="http://www.w3.org/2000/svg" xmlns:xlink="http://www.w3.org/1999/xlink">
    <title>icon/light/failed</title>
    <g id="icon/light/failed" stroke="none" stroke-width="1" fill="none" fill-rule="evenodd">
        <path d="M8,1 C11.866,1 15,4.13401 15,8 C15,11.866 11.866,15 8,15 C4.13401,15 1,11.866 1,8 C1,4.13401 4.13401,1 8,1 Z M8,2 C4.68629,2 2,4.68629 2,8 C2,11.3137 4.68629,14 8,14 C11.3137,14 14,11.3137 14,8 C14,4.68629 11.3137,2 8,2 Z M10.6464,4.64644 L11.3536,5.35355 L8.7071,8 L11.3536,10.6465 L10.6464,11.3536 L7.99999,8.70711 L5.35355,11.3535 L4.64645,10.6464 L7.29289,8 L4.64645,5.35356 L5.35355,4.64644 L7.99999,7.29289 L10.6464,4.64644 Z" id="shape" fill="#242424"></path>
    </g>
</svg>