<?xml version="1.0" encoding="UTF-8"?>
<svg width="16" height="16" viewBox="0 0 16 16" version="1.1" xmlns="http://www.w3.org/2000/svg" xmlns:xlink="http://www.w3.org/1999/xlink">
    <title>icon/light/fibre-hub</title>
    <g id="icon/light/fibre-hub" stroke="none" stroke-width="1" fill="none" fill-rule="evenodd">
        <path d="M10,2 L10,14 L6,14 L6,2 L10,2 Z M9,3 L7,3 L7,13 L9,13 L9,3 Z M3.05025,3.05029 L3.75736,3.7574 C2.67157,4.84319 2,6.34319 2,8.00004 C2,9.65689 2.67157,11.1569 3.75736,12.2427 L3.05025,12.9498 C1.7835,11.683 1,9.93304 1,8.00004 C1,6.06704 1.7835,4.31704 3.05025,3.05029 Z M12.9497,3.05029 C14.2165,4.31704 15,6.06704 15,8.00004 C15,9.93304 14.2165,11.683 12.9497,12.9498 L12.9497,12.9498 L12.2426,12.2427 C13.3284,11.1569 14,9.65689 14,8.00004 C14,6.34319 13.3284,4.84319 12.2426,3.7574 L12.2426,3.7574 Z M4.46447,4.46451 L5.17157,5.17161 C4.44771,5.89547 4,6.89547 4,8.00004 C4,9.10461 4.44772,10.1046 5.17157,10.8285 L4.46447,11.5356 C3.55964,10.6308 3,9.38075 3,8.00004 C3,6.61933 3.55964,5.36933 4.46447,4.46451 Z M11.5355,4.46451 C12.4404,5.36933 13,6.61933 13,8.00004 C13,9.38075 12.4404,10.6308 11.5355,11.5356 L11.5355,11.5356 L10.8284,10.8285 C11.5523,10.1046 12,9.10461 12,8.00004 C12,6.89547 11.5523,5.89547 10.8284,5.17161 L10.8284,5.17161 Z" id="shape" fill="#242424"></path>
    </g>
</svg>