<?xml version="1.0" encoding="UTF-8"?>
<svg width="16" height="16" viewBox="0 0 16 16" version="1.1" xmlns="http://www.w3.org/2000/svg" xmlns:xlink="http://www.w3.org/1999/xlink">
    <title>icon/light/fika</title>
    <g id="icon/light/fika" stroke="none" stroke-width="1" fill="none" fill-rule="evenodd">
        <path d="M11,7 L11,8.5 L12.5,8.5 C13.8807,8.5 15,9.61929 15,11 C15,12.3807 13.8807,13.5 12.5,13.5 L10.792,13.5 C10.4062,14.383 9.52516,15 8.5,15 L3.5,15 C2.11929,15 1,13.8807 1,12.5 L1,7 L11,7 Z M10,8 L2,8 L2,12.5 C2,13.3284 2.67157,14 3.5,14 L3.5,14 L8.5,14 C9.32843,14 10,13.3284 10,12.5 L10,12.5 L10,8 Z M12.5,9.5 L11,9.5 L11,12.5 L12.5,12.5 C13.3284,12.5 14,11.8284 14,11 C14,10.1716 13.3284,9.5 12.5,9.5 Z M6.5,1 L6.5,1.5 C6.5,2.2573 6.25438,2.99416 5.8,3.6 L5.5,4 C5.17544,4.43274 5,4.95907 5,5.5 L5,6 L4,6 L4,5.5 C4,4.7427 4.24562,4.00584 4.7,3.4 L5,3 C5.32456,2.56726 5.5,2.04093 5.5,1.5 L5.5,1 L6.5,1 Z M9.5,1 L9.5,1.5 C9.5,2.2573 9.25438,2.99416 8.8,3.6 L8.8,3.6 L8.5,4 C8.17544,4.43274 8,4.95907 8,5.5 L8,5.5 L8,6 L7,6 L7,5.5 C7,4.7427 7.24562,4.00584 7.7,3.4 L7.7,3.4 L8,3 C8.32456,2.56726 8.5,2.04093 8.5,1.5 L8.5,1.5 L8.5,1 L9.5,1 Z" id="shape" fill="#242424"></path>
    </g>
</svg>