<svg xmlns="http://www.w3.org/2000/svg" viewBox="0 0 16 16"><defs><style>.cls-1{fill:none;}.cls-2{fill:#242424;fill-rule:evenodd;}</style></defs><g id="Layer_2" data-name="Layer 2"><g id="Icons_Labels" data-name="Icons – Labels"><rect id="Border-icon" class="cls-1" width="16" height="16"/><path id="icon-flag" class="cls-2" d="M8,2.51A4,4,0,0,0,10,3a10.63,10.63,0,0,0,4-1v8a10.44,10.44,0,0,1-4,1,4.09,4.09,0,0,1-2-.5A3.79,3.79,0,0,0,6,10a8.92,8.92,0,0,0-3,.58V15H2V1H3V2.59A9,9,0,0,1,6,2,3.83,3.83,0,0,1,8,2.51Z"/></g></g></svg>