<?xml version="1.0" encoding="UTF-8"?>
<svg width="16" height="16" viewBox="0 0 16 16" version="1.1" xmlns="http://www.w3.org/2000/svg" xmlns:xlink="http://www.w3.org/1999/xlink">
    <title>icon/light/flag</title>
    <g id="icon/light/flag" stroke="none" stroke-width="1" fill="none" fill-rule="evenodd">
        <path d="M8.00081,2.50097 C8.50112,2.75057 9.00062,2.999756 9.998,2.999756 C11.996,2.999756 14,1.999756 14,1.999756 L14,9.99776 C14,9.99776 12.008,10.9978 10.004,10.9978 C9.00062,10.9978 8.49385,10.7468 7.98803,10.4963 C7.48411,10.2468 6.98113,9.99776 5.989,9.99776 C4.874,9.99776 3.768,10.3118 3,10.5888 L3,15.0001 L2,15.0001 L2,0.999756 L3,0.999756 L3,2.58776 C3.764,2.31176 4.864,1.999756 5.989,1.999756 C6.99613,1.999756 7.49888,2.25057 8.00081,2.50097 Z M10.004,9.99776 C11.096,9.99776 12.273,9.63176 13,9.34576 L13,3.46976 C12.177,3.73876 11.095,3.99976 9.998,3.99976 C8.76774,3.99976 8.09698,3.66624 7.55859,3.39854 L7.555,3.39676 C7.094,3.16576 6.76,2.99976 5.989,2.99976 C4.895,2.99976 3.722,3.36576 3,3.65276 L3,9.52876 C3.82,9.25876 4.898,8.99776 5.989,8.99776 C7.21353,8.99776 7.88738,9.33095 8.42905,9.59879 L8.43212,9.60031 C8.89854,9.83102 9.23561,9.99776 10.004,9.99776 Z" id="shape" fill="#242424"></path>
    </g>
</svg>