<?xml version="1.0" encoding="UTF-8"?>
<svg width="16" height="16" viewBox="0 0 16 16" version="1.1" xmlns="http://www.w3.org/2000/svg" xmlns:xlink="http://www.w3.org/1999/xlink">
    <title>icon/light/floor</title>
    <g id="icon/light/floor" stroke="none" stroke-width="1" fill="none" fill-rule="evenodd">
        <path d="M14,2 L2,2 L2,14 L14,14 L14,2 Z M10,3 L13,3 L13,6 L10,6 L10,5 L9,5 L9,7 L13,7 L13,9 L8,9 L8,10 L13,10 L13,13 L6,13 L6,10 L7,10 L7,9 L5,9 L5,13 L3,13 L3,7 L4,7 L4,6 L3,6 L3,3 L6,3 L6,6 L5,6 L5,7 L7,7 L7,3 L9,3 L9,4 L10,4 L10,3 Z" id="shape" fill="#242424"></path>
    </g>
</svg>