<?xml version="1.0" encoding="UTF-8"?>
<svg width="16" height="16" viewBox="0 0 16 16" version="1.1" xmlns="http://www.w3.org/2000/svg" xmlns:xlink="http://www.w3.org/1999/xlink">
    <title>icon/light/flow</title>
    <g id="icon/light/flow" stroke="none" stroke-width="1" fill="none" fill-rule="evenodd">
        <path d="M4.93699,3.5 C4.71497,4.36261 3.93192,5 3,5 C1.89543,5 1,4.10457 1,3 C1,1.89543 1.89543,1 3,1 C3.93192,1 4.71497,1.63739 4.93699,2.5 L12,2.5 C13.6569,2.5 15,3.84315 15,5.5 C15,7.15685 13.6569,8.5 12,8.5 L9.93699,8.5 C9.71497,9.36261 8.93192,10 8,10 C7.06808,10 6.28503,9.36261 6.06301,8.5 L4,8.5 C2.89543,8.5 2,9.39543 2,10.5 C2,11.6046 2.89543,12.5 4,12.5 L13.0864,12.5 L11.94,11.3536 L12.6471,10.6465 L15.0007,13 L12.6471,15.3536 L11.94,14.6465 L13.0865,13.5 L4,13.5 C2.34315,13.5 1,12.1569 1,10.5 C1,8.84315 2.34315,7.5 4,7.5 L6.06301,7.5 C6.28503,6.63739 7.06808,6 8,6 C8.93192,6 9.71497,6.63739 9.93699,7.5 L12,7.5 C13.1046,7.5 14,6.60457 14,5.5 C14,4.39543 13.1046,3.5 12,3.5 L4.93699,3.5 Z M3,4 C3.55228,4 4,3.55228 4,3 C4,2.44772 3.55228,2 3,2 C2.44772,2 2,2.44772 2,3 C2,3.55228 2.44772,4 3,4 Z M8,9 C8.55228,9 9,8.55228 9,8 C9,7.44772 8.55228,7 8,7 C7.44772,7 7,7.44772 7,8 C7,8.55228 7.44772,9 8,9 Z" id="shape" fill="#242424"></path>
    </g>
</svg>