<?xml version="1.0" encoding="UTF-8"?>
<svg width="16" height="16" viewBox="0 0 16 16" version="1.1" xmlns="http://www.w3.org/2000/svg" xmlns:xlink="http://www.w3.org/1999/xlink">
    <title>icon/light/globe</title>
    <g id="icon/light/globe" stroke="none" stroke-width="1" fill="none" fill-rule="evenodd">
        <path d="M15,8 C15,4.13401 11.866,1 8,1 C4.13401,1 1,4.13401 1,8 C1,11.866 4.13401,15 8,15 C11.866,15 15,11.866 15,8 Z M8.4653,13.7382 C8.23213,13.9683 8.07605,14 8,14 C7.92395,14 7.76787,13.9683 7.5347,13.7382 C7.29723,13.5038 7.03751,13.1151 6.79782,12.5558 C6.67482,12.2688 6.56227,11.949 6.46295,11.6011 C6.96445,11.5345 7.47766,11.5 7.99999,11.5 C8.52233,11.5 9.03554,11.5345 9.53704,11.6011 C9.43773,11.949 9.32518,12.2688 9.20218,12.5558 C8.96249,13.1151 8.70277,13.5038 8.4653,13.7382 Z M6.00802,8.5 C6.03245,9.25904 6.11188,9.97372 6.23388,10.6231 C6.80982,10.542 7.39966,10.5 7.99999,10.5 C8.60033,10.5 9.19017,10.542 9.76612,10.6231 C9.88812,9.97372 9.96755,9.25904 9.99198,8.5 L6.00802,8.5 Z M9.7096,13.7529 C10.0343,13.2265 10.3124,12.5543 10.5263,11.7768 C11.1033,11.9058 11.6612,12.0779 12.1958,12.289 C11.5074,12.9625 10.6575,13.4717 9.7096,13.7529 Z M10.75,10.8021 C11.4909,10.9681 12.204,11.1997 12.8812,11.4899 C13.4944,10.6338 13.8879,9.6097 13.9795,8.5 L10.9925,8.5 C10.9679,9.31363 10.8837,10.0889 10.75,10.8021 Z M3.11876,11.4899 C3.79603,11.1996 4.50909,10.9681 5.25002,10.8021 C5.11635,10.0889 5.03214,9.31363 5.00753,8.5 L2.02054,8.5 C2.11209,9.6097 2.50562,10.6338 3.11876,11.4899 Z M5.47368,11.7768 C4.89671,11.9058 4.33877,12.0779 3.80422,12.289 C4.49262,12.9625 5.34251,13.4717 6.2904,13.7529 C5.96566,13.2265 5.68761,12.5543 5.47368,11.7768 Z M9.99198,7.5 L6.00802,7.5 C6.03245,6.74097 6.11188,6.02628 6.23388,5.37693 C6.80982,5.45798 7.39966,5.5 7.99999,5.5 C8.60033,5.5 9.19017,5.45798 9.76612,5.37693 C9.88812,6.02628 9.96755,6.74097 9.99198,7.5 Z M9.53704,4.39895 C9.03554,4.46551 8.52233,4.5 7.99999,4.5 C7.47766,4.5 6.96445,4.46551 6.46295,4.39895 C6.56227,4.05101 6.67482,3.73119 6.79782,3.44417 C7.03751,2.8849 7.29723,2.4962 7.5347,2.26184 C7.76787,2.03173 7.92395,2 8,2 C8.07605,2 8.23213,2.03173 8.4653,2.26184 C8.70277,2.4962 8.96249,2.8849 9.20218,3.44417 C9.32518,3.73119 9.43773,4.051 9.53704,4.39895 Z M10.5263,4.22321 C10.3124,3.44574 10.0343,2.77348 9.7096,2.24707 C10.6575,2.52833 11.5074,3.03747 12.1958,3.71101 C11.6612,3.92214 11.1033,4.09425 10.5263,4.22321 Z M10.75,5.1979 C11.4909,5.03193 12.204,4.80035 12.8812,4.51015 C13.4944,5.36623 13.8879,6.3903 13.9795,7.5 L10.9925,7.5 C10.9679,6.68637 10.8837,5.91113 10.75,5.1979 Z M5.47368,4.22322 C5.68761,3.44574 5.96566,2.77348 6.2904,2.24707 C5.34251,2.52833 4.49262,3.03748 3.80422,3.71101 C4.33877,3.92215 4.89671,4.09425 5.47368,4.22322 Z M5.25002,5.1979 C4.50909,5.03193 3.79603,4.80036 3.11876,4.51015 C2.50561,5.36623 2.11209,6.3903 2.02054,7.5 L5.00753,7.5 C5.03214,6.68637 5.11635,5.91113 5.25002,5.1979 Z" id="shape" fill="#242424"></path>
    </g>
</svg>