<?xml version="1.0" encoding="UTF-8"?>
<svg width="16" height="16" viewBox="0 0 16 16" version="1.1" xmlns="http://www.w3.org/2000/svg" xmlns:xlink="http://www.w3.org/1999/xlink">
    <title>icon/light/graph-circle</title>
    <g id="icon/light/graph-circle" stroke="none" stroke-width="1" fill="none" fill-rule="evenodd">
        <path d="M7.5,2.5 L7.5,3.5 C4.73858,3.5 2.5,5.73858 2.5,8.5 C2.5,11.2614 4.73858,13.5 7.5,13.5 C10.2614,13.5 12.5,11.2614 12.5,8.5 L13.5,8.5 C13.5,11.8137 10.8137,14.5 7.5,14.5 C4.18629,14.5 1.5,11.8137 1.5,8.5 C1.5,5.18629 4.18629,2.5 7.5,2.5 Z M8.5,1.5 C8.84071,1.5 9.17479,1.5284 9.5,1.58296 C12.0125,2.00448 13.9955,3.9875 14.417,6.5 C14.4716,6.82521 14.5,7.15929 14.5,7.5 L14.5,7.5 L8.5,7.5 Z M9.5,2.60002 L9.5,6.5 L13.4,6.5 C13.0023,4.54087 11.4591,2.9977 9.5,2.60002 L9.5,2.60002 Z" id="shape" fill="#242424"></path>
    </g>
</svg>