<?xml version="1.0" encoding="UTF-8"?>
<svg width="16" height="16" viewBox="0 0 16 16" version="1.1" xmlns="http://www.w3.org/2000/svg" xmlns:xlink="http://www.w3.org/1999/xlink">
    <title>icon/light/group</title>
    <g id="icon/light/group" stroke="none" stroke-width="1" fill="none" fill-rule="evenodd">
        <path d="M6.5,10 C7.88071,10 9,11.1193 9,12.5 L9,12.5 L9,13.5 L8,13.5 L8,12.5 C8,11.6716 7.32843,11 6.5,11 L6.5,11 L2.5,11 C1.67157,11 1,11.6716 1,12.5 L1,12.5 L1,13.5 L0,13.5 L0,12.5 C0,11.1193 1.11929,10 2.5,10 L2.5,10 Z M13.5,11 C14.8807,11 16,12.1193 16,13.5 L16,13.5 L15,13.5 C15,12.6716 14.3284,12 13.5,12 L13.5,12 L10,12 L10,11 Z M11.5,3.5 C12.8807,3.5 14,4.61929 14,6 L14,6 L14,7.5 C14,8.88071 12.8807,10 11.5,10 C10.1193,10 9,8.88071 9,7.5 L9,7.5 L9,6 C9,4.61929 10.1193,3.5 11.5,3.5 Z M4.5,2.5 C5.88071,2.5 7,3.61929 7,5 L7,6.5 C7,7.88071 5.88071,9 4.5,9 C3.11929,9 2,7.88071 2,6.5 L2,5 C2,3.61929 3.11929,2.5 4.5,2.5 Z M11.5,4.5 C10.6716,4.5 10,5.17157 10,6 L10,6 L10,7.5 C10,8.32843 10.6716,9 11.5,9 C12.3284,9 13,8.32843 13,7.5 L13,7.5 L13,6 C13,5.17157 12.3284,4.5 11.5,4.5 Z M4.5,3.5 C3.67157,3.5 3,4.17157 3,5 L3,6.5 C3,7.32843 3.67157,8 4.5,8 C5.32843,8 6,7.32843 6,6.5 L6,5 C6,4.17157 5.32843,3.5 4.5,3.5 Z" id="shape" fill="#242424"></path>
    </g>
</svg>