<?xml version="1.0" encoding="UTF-8"?>
<svg width="16" height="16" viewBox="0 0 16 16" version="1.1" xmlns="http://www.w3.org/2000/svg" xmlns:xlink="http://www.w3.org/1999/xlink">
    <title>icon/light/heart</title>
    <g id="icon/light/heart" stroke="none" stroke-width="1" fill="none" fill-rule="evenodd">
        <path d="M8,5.05472 L7.2343,4.1432 C6.65556,3.45424 5.71378,3 4.8,3 C3.25771,3 2,4.30603 2,6 C2,7.21765 2.58837,8.49486 3.76549,9.89526 C4.81971,11.1494 6.27759,12.4212 8,13.7447 C9.7224,12.4212 11.1803,11.1494 12.2345,9.89526 C13.4116,8.49486 14,7.21765 14,6 C14,4.30603 12.7423,3 11.2,3 C10.2862,3 9.34444,3.45424 8.7657,4.1432 L8,5.05472 Z M8,15 C4,12 1,9.10322 1,6 C1,3.81724 2.644,2 4.8,2 C5.67844,2 6.5574,2.30777 7.26544,2.82011 C7.53913,3.01816 7.78729,3.24678 8,3.5 C8.21271,3.24678 8.46087,3.01816 8.73456,2.82011 C9.4426,2.30777 10.3216,2 11.2,2 C13.356,2 15,3.81724 15,6 C15,9.10322 12,12 8,15 Z" id="shape" fill="#242424"></path>
    </g>
</svg>