<?xml version="1.0" encoding="UTF-8"?>
<svg width="16" height="16" viewBox="0 0 16 16" version="1.1" xmlns="http://www.w3.org/2000/svg" xmlns:xlink="http://www.w3.org/1999/xlink">
    <title>icon/light/heatmap</title>
    <g id="icon/light/heatmap" stroke="none" stroke-width="1" fill="none" fill-rule="evenodd">
        <path d="M10,1 C12.7614,1 15,3.23858 15,6 C15,6.73892 14.8397,7.44041 14.552,8.07159 C14.8344,8.4765 15,8.96891 15,9.5 C15,10.8807 13.8807,12 12.5,12 C11.7761,12 11.1241,11.6923 10.6676,11.2006 C9.99674,12.8428 8.38351,14 6.5,14 C6.18085,14 5.86945,13.9668 5.56909,13.9036 C5.11932,14.5653 4.36042,15 3.5,15 C2.11929,15 1,13.8807 1,12.5 C1,11.6396 1.43467,10.8807 2.0964,10.4309 C2.03322,10.1305 2,9.81915 2,9.5 C2,9.4136 2.00244,9.32777 2.00724,9.24257 C1.38929,8.69305 1,7.89199 1,7 C1,5.34315 2.34315,4 4,4 C4.46509,4 4.90545,4.10583 5.29833,4.29473 C5.99551,2.37293 7.83742,1 10,1 Z M10,2 C7.79086,2 6,3.79086 6,6 L6.00015,6.03542 C5.92392,6.04632 5.84848,6.05968 5.77391,6.07541 C5.4401,5.43627 4.771,5 4,5 C2.89543,5 2,5.89543 2,7 C2,7.771 2.43627,8.4401 3.07541,8.77392 C3.02599,9.00816 3,9.25105 3,9.5 C3,10.0401 3.12233,10.5516 3.3408,11.0083 C2.58721,11.0878 2,11.7253 2,12.5 C2,13.3284 2.67157,14 3.5,14 C4.27465,14 4.91215,13.4128 4.99165,12.6592 C5.4484,12.8777 5.95991,13 6.5,13 C8.26329,13 9.72203,11.6961 9.96458,9.99985 L10,10 C10.3612,10 10.7112,9.95212 11.0441,9.86237 C11.2061,10.5157 11.7965,11 12.5,11 C13.3284,11 14,10.3284 14,9.5 C14,8.9718 13.727,8.50737 13.3144,8.24011 C13.7472,7.60099 14,6.83002 14,6 C14,3.79086 12.2091,2 10,2 Z M6.5,8 C7.32843,8 8,8.67157 8,9.5 C8,10.3284 7.32843,11 6.5,11 C5.67157,11 5,10.3284 5,9.5 C5,8.67157 5.67157,8 6.5,8 Z M10,4.5 C10.8284,4.5 11.5,5.17157 11.5,6 C11.5,6.82843 10.8284,7.5 10,7.5 C9.17157,7.5 8.5,6.82843 8.5,6 C8.5,5.17157 9.17157,4.5 10,4.5 Z" id="shape" fill="#242424"></path>
    </g>
</svg>