<?xml version="1.0" encoding="UTF-8"?>
<svg width="16" height="16" viewBox="0 0 16 16" version="1.1" xmlns="http://www.w3.org/2000/svg" xmlns:xlink="http://www.w3.org/1999/xlink">
    <title>icon/light/help</title>
    <g id="icon/light/help" stroke="none" stroke-width="1" fill="none" fill-rule="evenodd">
        <path d="M8,1 C11.866,1 15,4.13401 15,8 C15,11.866 11.866,15 8,15 C4.13401,15 1,11.866 1,8 C1,4.13401 4.13401,1 8,1 Z M8,2 C4.68629,2 2,4.68629 2,8 C2,11.3137 4.68629,14 8,14 C11.3137,14 14,11.3137 14,8 C14,4.68629 11.3137,2 8,2 Z M8,10.5 C8.41421,10.5 8.75,10.8358 8.75,11.25 C8.75,11.6642 8.41421,12 8,12 C7.58579,12 7.25,11.6642 7.25,11.25 C7.25,10.8358 7.58579,10.5 8,10.5 Z M6.71418,4.30392 C7.52362,3.89918 8.47638,3.89918 9.28582,4.30392 L9.28582,4.30392 L9.34356,4.33278 C10.0523,4.68717 10.5,5.41157 10.5,6.20397 C10.5,6.86247 10.19,7.48253 9.66317,7.87763 L9.66317,7.87763 L8.7,8.60001 C8.5741,8.69443 8.5,8.84263 8.5,9.00001 L8.5,9.00001 L8.5,9.50001 L7.5,9.50001 L7.5,9.00001 C7.5,8.52787 7.72229,8.08329 8.1,7.80001 L8.1,7.80001 L9.06317,7.07763 C9.33816,6.87138 9.5,6.54771 9.5,6.20397 C9.5,5.79033 9.2663,5.4122 8.89633,5.22721 L8.89633,5.22721 L8.8386,5.19834 C8.31069,4.93438 7.68931,4.93438 7.1614,5.19834 L7.1614,5.19834 L7.11803,5.22002 C6.73926,5.40941 6.5,5.79655 6.5,6.22004 L6.5,6.22004 L5.5,6.22004 C5.5,5.41778 5.95326,4.68439 6.67081,4.3256 L6.67081,4.3256 Z" id="shape" fill="#242424"></path>
    </g>
</svg>