<?xml version="1.0" encoding="UTF-8"?>
<svg width="16" height="16" viewBox="0 0 16 16" version="1.1" xmlns="http://www.w3.org/2000/svg" xmlns:xlink="http://www.w3.org/1999/xlink">
    <title>icon/light/hierarchy-chart</title>
    <g id="icon/light/hierarchy-chart" stroke="none" stroke-width="1" fill="none" fill-rule="evenodd">
        <path d="M6,2 L6,6 L7.5,6 L7.5,7.5 L2.5,7.5 L2.5,10 L1,10 L1,14 L5,14 L5,10 L3.5,10 L3.5,8.5 L7.5,8.5 L7.5,10 L6,10 L6,14 L10,14 L10,10 L8.5,10 L8.5,8.5 L12.5,8.5 L12.5,10 L11,10 L11,14 L15,14 L15,10 L13.5,10 L13.5,7.5 L8.5,7.5 L8.5,6 L10,6 L10,2 L6,2 Z M9,3 L7,3 L7,5 L9,5 L9,3 Z M2,11 L4,11 L4,13 L2,13 L2,11 Z M7,11 L9,11 L9,13 L7,13 L7,11 Z M12,11 L14,11 L14,13 L12,13 L12,11 Z" id="shape" fill="#242424"></path>
    </g>
</svg>