<?xml version="1.0" encoding="UTF-8"?>
<svg width="16" height="16" viewBox="0 0 16 16" version="1.1" xmlns="http://www.w3.org/2000/svg" xmlns:xlink="http://www.w3.org/1999/xlink">
    <title>icon/light/highest-value</title>
    <g id="icon/light/highest-value" stroke="none" stroke-width="1" fill="none" fill-rule="evenodd">
        <path d="M2.5,1.5 L2.5,13.5 L14.5,13.5 L14.5,14.5 L1.5,14.5 L1.5,1.5 L2.5,1.5 Z M8.5,1.5 C9.58457,1.5 10.5795,2.4379 11.3565,4 L11.3565,4 L13.5,4 L13.5,5 L11.7919,5 C12.5414,6.96488 13,9.60152 13,12.5 L13,12.5 L12,12.5 C12,9.55947 11.5105,6.94385 10.7564,5.10046 C10.7426,5.06665 10.7287,5.03316 10.7148,5 L10.7148,5 L6.28525,5 C6.27129,5.03316 6.2574,5.06665 6.24357,5.10046 C5.48945,6.94385 5,9.55947 5,12.5 L5,12.5 L4,12.5 C4,9.60152 4.45861,6.96488 5.20813,5 L5.20813,5 L3.5,5 L3.5,4 L5.64347,4 C6.42048,2.4379 7.41543,1.5 8.5,1.5 Z M8.5,2.5 C8.23381,2.5 7.88501,2.62767 7.46719,3.05965 C7.23594,3.29876 7.00339,3.61245 6.77806,4 L6.77806,4 L10.2219,4 C9.99661,3.61245 9.76406,3.29876 9.53281,3.05965 C9.11499,2.62767 8.76619,2.5 8.5,2.5 Z" id="shape" fill="#242424"></path>
    </g>
</svg>