<?xml version="1.0" encoding="UTF-8"?>
<svg width="16" height="16" viewBox="0 0 16 16" version="1.1" xmlns="http://www.w3.org/2000/svg" xmlns:xlink="http://www.w3.org/1999/xlink">
    <title>icon/light/info</title>
    <g id="icon/light/info" stroke="none" stroke-width="1" fill="none" fill-rule="evenodd">
        <path d="M8,1 C11.866,1 15,4.13401 15,8 C15,11.866 11.866,15 8,15 C4.13401,15 1,11.866 1,8 C1,4.13401 4.13401,1 8,1 Z M8,2 C4.68629,2 2,4.68629 2,8 C2,11.3137 4.68629,14 8,14 C11.3137,14 14,11.3137 14,8 C14,4.68629 11.3137,2 8,2 Z M8.5,6.5 L8.5,12 L7.5,12 L7.5,6.5 L8.5,6.5 Z M8,4 C8.41421,4 8.75,4.33579 8.75,4.75 C8.75,5.16421 8.41421,5.5 8,5.5 C7.58579,5.5 7.25,5.16421 7.25,4.75 C7.25,4.33579 7.58579,4 8,4 Z" id="shape" fill="#242424"></path>
    </g>
</svg>