<?xml version="1.0" encoding="UTF-8"?>
<svg width="16" height="16" viewBox="0 0 16 16" version="1.1" xmlns="http://www.w3.org/2000/svg" xmlns:xlink="http://www.w3.org/1999/xlink">
    <title>icon/light/info-solid</title>
    <g id="icon/light/info-solid" stroke="none" stroke-width="1" fill="none" fill-rule="evenodd">
        <path d="M8,15 C11.866,15 15,11.866 15,8 C15,4.13401 11.866,1 8,1 C4.13401,1 1,4.13401 1,8 C1,11.866 4.13401,15 8,15 Z M8,4 C8.41421,4 8.75,4.33579 8.75,4.75 C8.75,5.16421 8.41421,5.5 8,5.5 C7.58579,5.5 7.25,5.16421 7.25,4.75 C7.25,4.33579 7.58579,4 8,4 Z M7.5,12 L7.5,6.5 L8.5,6.5 L8.5,12 L7.5,12 Z" id="shape" fill="#242424"></path>
    </g>
</svg>