<?xml version="1.0" encoding="UTF-8"?>
<svg width="16" height="16" viewBox="0 0 16 16" version="1.1" xmlns="http://www.w3.org/2000/svg" xmlns:xlink="http://www.w3.org/1999/xlink">
    <title>icon/light/invisible</title>
    <g id="icon/light/invisible" stroke="none" stroke-width="1" fill="none" fill-rule="evenodd">
        <path d="M14.2929,1 L15,1.70712 L12.4637,4.24344 C13.9342,5.12417 15.1594,6.42658 16,8 C14.4031,10.989 11.4185,13 8,13 C6.74805,13 5.55429,12.7303 4.46556,12.2416 L4.46556,12.2416 L1.70712,15 L1,14.2929 L14.2929,1 Z M11.7316,4.97549 L10.4454,6.26174 C10.7946,6.75215 11,7.35209 11,8 C11,9.65685 9.65685,11 8,11 C7.35209,11 6.75215,10.7946 6.26174,10.4454 L5.22968,11.4774 C6.09819,11.8165 7.03147,12 8,12 C10.8284,12 13.3562,10.4353 14.8481,8 C14.0614,6.71583 12.9866,5.67373 11.7316,4.97549 Z M8,3 C8.86859,3 9.70917,3.12983 10.5061,3.37255 L9.68881,4.18983 C9.14258,4.06525 8.57756,4 8,4 C5.17159,4 2.64379,5.56474 1.15188,8 C1.75205,8.97967 2.51987,9.81846 3.40746,10.4712 L2.69326,11.1854 C1.59596,10.3498 0.674266,9.26208 0,8 C1.59687,5.01101 4.58154,3 8,3 Z M9.7231,6.98403 L6.98403,9.7231 C7.28178,9.89904 7.6291,10 8,10 C9.10457,10 10,9.10457 10,8 C10,7.6291 9.89904,7.28178 9.7231,6.98403 Z M8,5 C8.26873,5 8.5292,5.03533 8.77703,5.10161 L8.77703,5.10161 L7.87478,6.00386 C6.86996,6.06593 6.06593,6.86996 6.00386,7.87478 L6.00386,7.87478 L5.10161,8.77703 C5.03533,8.5292 5,8.26873 5,8 C5,6.34315 6.34315,5 8,5 Z" id="shape" fill="#242424"></path>
    </g>
</svg>