<?xml version="1.0" encoding="UTF-8"?>
<svg width="16" height="16" viewBox="0 0 16 16" version="1.1" xmlns="http://www.w3.org/2000/svg" xmlns:xlink="http://www.w3.org/1999/xlink">
    <title>icon/light/invoice</title>
    <g id="icon/light/invoice" stroke="none" stroke-width="1" fill="none" fill-rule="evenodd">
        <path d="M9.5,1 L13.5,5 L13.5,15 L2.5,15 L2.5,1 L9.5,1 Z M9.08579,2 L3.5,2 L3.5,14 L12.5,14 L12.5,5.41421 L9.08579,2 Z M7.25,3 L7.25,4 L8.75,4 L8.75,5 L6,5 C5.72386,5 5.5,5.22386 5.5,5.5 C5.5,5.77614 5.72386,6 6,6 L7.5,6 C8.32843,6 9,6.67157 9,7.5 C9,8.32843 8.32843,9 7.5,9 L7.25,9 L7.25,10 L6.25,10 L6.25,9 L4.75,9 L4.75,8 L7.5,8 C7.77614,8 8,7.77614 8,7.5 C8,7.22386 7.77614,7 7.5,7 L6,7 C5.17157,7 4.5,6.32843 4.5,5.5 C4.5,4.67157 5.17157,4 6,4 L6.25,4 L6.25,3 L7.25,3 Z" id="shape" fill="#242424"></path>
    </g>
</svg>