<?xml version="1.0" encoding="UTF-8"?>
<svg width="16" height="16" viewBox="0 0 16 16" version="1.1" xmlns="http://www.w3.org/2000/svg" xmlns:xlink="http://www.w3.org/1999/xlink">
    <title>icon/light/keyboard</title>
    <g id="icon/light/keyboard" stroke="none" stroke-width="1" fill="none" fill-rule="evenodd">
        <path d="M15.5,3.5 L15.5,12.5 L0.5,12.5 L0.5,3.5 L15.5,3.5 Z M14.5,4.5 L1.5,4.5 L1.5,11.5 L14.5,11.5 L14.5,4.5 Z M11.5,9.5 L11.5,10.5 L4.5,10.5 L4.5,9.5 L11.5,9.5 Z M4.5,7.5 L4.5,8.5 L3.5,8.5 L3.5,7.5 L4.5,7.5 Z M6.5,7.5 L6.5,8.5 L5.5,8.5 L5.5,7.5 L6.5,7.5 Z M8.5,7.5 L8.5,8.5 L7.5,8.5 L7.5,7.5 L8.5,7.5 Z M10.5,7.5 L10.5,8.5 L9.5,8.5 L9.5,7.5 L10.5,7.5 Z M12.5,7.5 L12.5,8.5 L11.5,8.5 L11.5,7.5 L12.5,7.5 Z M3.5,5.5 L3.5,6.5 L2.5,6.5 L2.5,5.5 L3.5,5.5 Z M5.5,5.5 L5.5,6.5 L4.5,6.5 L4.5,5.5 L5.5,5.5 Z M7.5,5.5 L7.5,6.5 L6.5,6.5 L6.5,5.5 L7.5,5.5 Z M9.5,5.5 L9.5,6.5 L8.5,6.5 L8.5,5.5 L9.5,5.5 Z M11.5,5.5 L11.5,6.5 L10.5,6.5 L10.5,5.5 L11.5,5.5 Z M13.5,5.5 L13.5,6.5 L12.5,6.5 L12.5,5.5 L13.5,5.5 Z" id="shape" fill="#242424"></path>
    </g>
</svg>