<?xml version="1.0" encoding="UTF-8"?>
<svg width="16" height="16" viewBox="0 0 16 16" version="1.1" xmlns="http://www.w3.org/2000/svg" xmlns:xlink="http://www.w3.org/1999/xlink">
    <title>icon/light/language</title>
    <g id="icon/light/language" stroke="none" stroke-width="1" fill="none" fill-rule="evenodd">
        <path d="M11.4776,6 C11.225,3.19675 8.86902,1 6,1 C2.96243,1 0.5,3.46243 0.5,6.5 C0.5,9.53757 2.96243,12 6,12 C6.3299,12 6.65301,11.971 6.96693,11.9153 C7.49575,12.4697 8.20476,12.8508 9,12.9646 L9,15 L11.8,13 L12,13 C13.933,13 15.5,11.433 15.5,9.5 C15.5,7.567 13.933,6 12,6 L11.4776,6 Z M10.4725,6 C10.2785,4.24468 9.07484,2.79365 7.45514,2.24047 C7.92023,3.15009 8.2336,4.48667 8.29062,6 L10.4725,6 Z M6.33115,10.988 C6.11873,10.5364 6,10.0321 6,9.5 C6,8.52066 6.40223,7.63526 7.05051,7 L4.71014,7 C4.75946,8.20923 4.9847,9.2583 5.29624,10.0033 C5.474,10.4284 5.6602,10.7073 5.81585,10.8647 C5.91866,10.9687 5.98009,10.9939 6,10.9993 C6.11137,10.9993 6.2218,10.996 6.33115,10.988 Z M7.28987,6 C7.24055,4.79077 7.0153,3.7417 6.70377,2.99672 C6.526,2.57162 6.3398,2.29273 6.18415,2.13529 C6.08134,2.03131 6.01991,2.00609 6,2.00066 C5.98009,2.00609 5.91866,2.03131 5.81585,2.13529 C5.6602,2.29273 5.474,2.57162 5.29624,2.99672 C4.9847,3.7417 4.75946,4.79077 4.71014,6 L7.28987,6 Z M3.70938,6 L1.52746,6 C1.72151,4.24468 2.92516,2.79365 4.54486,2.24047 C4.07978,3.15009 3.76641,4.48667 3.70938,6 Z M3.70938,7 L1.52746,7 C1.72151,8.75532 2.92516,10.2064 4.54486,10.7595 C4.07978,9.84991 3.76641,8.51333 3.70938,7 Z M12,12 L11.5,12 L10,13 L10,12 L9.71086,12 C9.33183,12 8.94506,11.9937 8.59262,11.8542 C7.66068,11.4854 7,10.5602 7,9.5 C7,8.11929 8.11929,7 9.5,7 L12,7 C13.3807,7 14.5,8.11929 14.5,9.5 C14.5,10.8807 13.3807,12 12,12 Z" id="shape" fill="#242424"></path>
    </g>
</svg>