<?xml version="1.0" encoding="UTF-8"?>
<svg width="16" height="16" viewBox="0 0 16 16" version="1.1" xmlns="http://www.w3.org/2000/svg" xmlns:xlink="http://www.w3.org/1999/xlink">
    <title>icon/light/lightbulb-off</title>
    <g id="icon/light/lightbulb-off" stroke="none" stroke-width="1" fill="none" fill-rule="evenodd">
        <path d="M11.268,8.30707 C10.6497,9.1814 10,10.1243 10,11.1952 L10,14 L6,14 L6,11.1952 C6,10.1243 5.35032,9.1814 4.73196,8.30707 C4.27091,7.65515 4,6.85921 4,6 C4,3.79086 5.79086,2 8,2 C10.2091,2 12,3.79086 12,6 C12,6.85921 11.7291,7.65515 11.268,8.30707 Z M10.4516,7.72964 C10.7971,7.24105 11,6.64571 11,6 C11,4.34315 9.65685,3 8,3 C6.34315,3 5,4.34315 5,6 C5,6.64571 5.20286,7.24106 5.54841,7.72964 L5.58184,7.7769 C6.06435,8.45869 6.72477,9.39188 6.93378,10.5 L9.06622,10.5 C9.27523,9.39188 9.93565,8.4587 10.4182,7.7769 L10.4516,7.72964 Z M9,11.5 L7,11.5 L7,13 L9,13 L9,11.5 Z" id="shape" fill="#242424"></path>
    </g>
</svg>