<?xml version="1.0" encoding="UTF-8"?>
<svg width="16" height="16" viewBox="0 0 16 16" version="1.1" xmlns="http://www.w3.org/2000/svg" xmlns:xlink="http://www.w3.org/1999/xlink">
    <title>icon/light/lightbulb</title>
    <g id="icon/light/lightbulb" stroke="none" stroke-width="1" fill="none" fill-rule="evenodd">
        <path d="M8,2 C10.2091,2 12,3.79086 12,6 C12,6.85921 11.7291,7.65515 11.268,8.30707 C10.6497,9.1814 10,10.1243 10,11.1952 L10,14 L6,14 L6,11.1952 C6,10.1243 5.35032,9.1814 4.73196,8.30707 C4.27091,7.65515 4,6.85921 4,6 C4,3.79086 5.79086,2 8,2 Z M9,11.5 L7,11.5 L7,13 L9,13 L9,11.5 Z M8,3 C6.34315,3 5,4.34315 5,6 C5,6.64571 5.20286,7.24106 5.54841,7.72964 L5.58184,7.7769 C6.06435,8.45869 6.72477,9.39188 6.93378,10.5 L9.06622,10.5 C9.27523,9.39188 9.93565,8.4587 10.4182,7.7769 L10.4516,7.72964 C10.7971,7.24105 11,6.64571 11,6 C11,4.34315 9.65685,3 8,3 Z M12.5545,8.12279 L14.2742,9.14388 L13.7637,10.0037 L12.044,8.98264 L12.5545,8.12279 Z M3.44553,8.1228 L3.95608,8.98266 L2.23637,10.0037 L1.72583,9.14389 L3.44553,8.1228 Z M3,5.5 L3,6.5 L1,6.5 L1,5.5 L3,5.5 Z M15,5.5 L15,6.5 L13,6.5 L13,5.5 L15,5.5 Z M2.23627,1.99628 L3.95597,3.01736 L3.44543,3.87721 L1.72572,2.85613 L2.23627,1.99628 Z M13.7638,1.99629 L14.2743,2.85614 L12.5546,3.87723 L12.0441,3.01738 L13.7638,1.99629 Z" id="shape" fill="#242424"></path>
    </g>
</svg>