<?xml version="1.0" encoding="UTF-8"?>
<svg width="16" height="16" viewBox="0 0 16 16" version="1.1" xmlns="http://www.w3.org/2000/svg" xmlns:xlink="http://www.w3.org/1999/xlink">
    <title>icon/light/link</title>
    <g id="icon/light/link" stroke="none" stroke-width="1" fill="none" fill-rule="evenodd">
        <path d="M7.79325,4.01177 L10.1503,6.36879 C10.7361,6.95458 10.7361,7.90433 10.1503,8.49012 L8.84212,9.79827 L8.13502,9.09116 L9.44317,7.78301 C9.63843,7.58775 9.63843,7.27116 9.44317,7.0759 L7.08614,4.71888 C6.89088,4.52362 6.5743,4.52362 6.37904,4.71888 L1.14645,9.95147 C0.951185,10.1467 0.951184,10.4633 1.14645,10.6586 L3.50347,13.0156 C3.69873,13.2109 4.01532,13.2109 4.21058,13.0156 L6.0137,11.2125 L6.7208,11.9196 L4.91769,13.7227 C4.3319,14.3085 3.38215,14.3085 2.79636,13.7227 L0.43934,11.3657 C-0.146446,10.7799 -0.146447,9.83015 0.43934,9.24436 L5.67193,4.01177 C6.25772,3.42598 7.20746,3.42598 7.79325,4.01177 Z M13.2026,2.27937 L15.5596,4.63639 C16.1454,5.22218 16.1454,6.17192 15.5596,6.75771 L10.3271,11.9903 C9.74127,12.5761 8.79152,12.5761 8.20573,11.9903 L5.84871,9.63328 C5.26292,9.04749 5.26292,8.09774 5.84871,7.51196 L7.15686,6.20381 L7.86397,6.91091 L6.55581,8.21906 C6.36055,8.41433 6.36055,8.73091 6.55581,8.92617 L8.91284,11.2832 C9.1081,11.4785 9.42468,11.4785 9.61995,11.2832 L14.8525,6.0506 C15.0478,5.85534 15.0478,5.53876 14.8525,5.3435 L12.4955,2.98647 C12.3002,2.79121 11.9837,2.79121 11.7884,2.98647 L9.98528,4.78959 L9.27818,4.08249 L11.0813,2.27937 C11.6671,1.69358 12.6168,1.69358 13.2026,2.27937 Z" id="shape" fill="#242424"></path>
    </g>
</svg>