<?xml version="1.0" encoding="UTF-8"?>
<svg width="16" height="16" viewBox="0 0 16 16" version="1.1" xmlns="http://www.w3.org/2000/svg" xmlns:xlink="http://www.w3.org/1999/xlink">
    <title>icon/light/lock-unlocked</title>
    <g id="icon/light/lock-unlocked" stroke="none" stroke-width="1" fill="none" fill-rule="evenodd">
        <path d="M13,1 C14.6569,1 16,2.34315 16,4 L16,5 L15,5 L15,4 C15,2.89543 14.1046,2 13,2 C11.8954,2 11,2.89543 11,4 L11,6 L14,6 L14,14 L2,14 L2,6 L10,6 L10,4 C10,2.34315 11.3431,1 13,1 Z M13,7 L3,7 L3,13 L13,13 L13,7 Z M8.5,8.5 L8.5,11.5 L7.5,11.5 L7.5,8.5 L8.5,8.5 Z" id="shape" fill="#242424"></path>
    </g>
</svg>