<?xml version="1.0" encoding="UTF-8"?>
<svg width="16" height="16" viewBox="0 0 16 16" version="1.1" xmlns="http://www.w3.org/2000/svg" xmlns:xlink="http://www.w3.org/1999/xlink">
    <title>icon/light/loudspeaker</title>
    <g id="icon/light/loudspeaker" stroke="none" stroke-width="1" fill="none" fill-rule="evenodd">
        <path d="M2,5 L1,5 L1,9.5 L2,9.5 C2.32856,9.5 2.65655,9.51108 2.98343,9.53312 L1.5,12.5 L4.5,14 L6.40948,10.181 C6.86588,10.3254 7.31577,10.4925 7.75744,10.6818 L12,12.5 L13,12.5 L13,9.25 C14.1046,9.25 15,8.35457 15,7.25 C15,6.14543 14.1046,5.25 13,5.25 L13,2 L12,2 L7.75743,3.81824 C5.93811,4.59795 3.97937,5 2,5 Z M2,8.5 L2,6 C4.11479,6 6.20755,5.57045 8.15135,4.73739 L12,3.08797 L12,11.412 L8.15136,9.76261 C6.20755,8.92956 4.11479,8.5 2,8.5 Z M13,6.25 L13,8.25 C13.5523,8.25 14,7.80228 14,7.25 C14,6.69772 13.5523,6.25 13,6.25 Z M5.4281,9.90771 C4.972,9.79767 4.51079,9.70963 4.04607,9.64392 L2.84164,12.0528 L4.05279,12.6583 L5.4281,9.90771 Z" id="shape" fill="#242424"></path>
    </g>
</svg>