<?xml version="1.0" encoding="UTF-8"?>
<svg width="16" height="16" viewBox="0 0 16 16" version="1.1" xmlns="http://www.w3.org/2000/svg" xmlns:xlink="http://www.w3.org/1999/xlink">
    <title>icon/light/lowest-value</title>
    <g id="icon/light/lowest-value" stroke="none" stroke-width="1" fill="none" fill-rule="evenodd">
        <path d="M2.5,1.5 L2.5,13.5 L14.5,13.5 L14.5,14.5 L1.5,14.5 L1.5,1.5 L2.5,1.5 Z M5,1.5 C5,4.44053 5.48945,7.05615 6.24357,8.89954 C6.2574,8.93335 6.27129,8.96684 6.28525,9 L10.7148,9 C10.7287,8.96684 10.7426,8.93335 10.7564,8.89954 C11.5105,7.05615 12,4.44053 12,1.5 L13,1.5 C13,4.39848 12.5414,7.03512 11.7919,9 L13.5,9 L13.5,10 L11.3565,10 C10.5795,11.5621 9.58457,12.5 8.5,12.5 C7.41543,12.5 6.42048,11.5621 5.64347,10 L3.5,10 L3.5,9 L5.20813,9 C4.45861,7.03512 4,4.39848 4,1.5 L5,1.5 Z M10.2219,10 L6.77806,10 C7.00339,10.3876 7.23594,10.7012 7.46719,10.9403 C7.88501,11.3723 8.23381,11.5 8.5,11.5 C8.76619,11.5 9.11499,11.3723 9.53281,10.9403 C9.76406,10.7012 9.99661,10.3876 10.2219,10 Z" id="shape" fill="#242424"></path>
    </g>
</svg>