<?xml version="1.0" encoding="UTF-8"?>
<svg width="16" height="16" viewBox="0 0 16 16" version="1.1" xmlns="http://www.w3.org/2000/svg" xmlns:xlink="http://www.w3.org/1999/xlink">
    <title>icon/light/magnet</title>
    <g id="icon/light/magnet" stroke="none" stroke-width="1" fill="none" fill-rule="evenodd">
        <path d="M10,14 L10,8 C10,6.89543 9.10457,6 8,6 C6.89543,6 6,6.89543 6,8 L6,14 L2,14 L2,8 C2,4.68629 4.68629,2 8,2 C11.3137,2 14,4.68629 14,8 L14,14 L10,14 Z M8,3 C5.23858,3 3,5.23858 3,8 L3,10 L5,10 L5,8 C5,6.34315 6.34315,5 8,5 C9.65685,5 11,6.34315 11,8 L11,10 L13,10 L13,8 C13,5.23858 10.7614,3 8,3 Z M13,11 L11,11 L11,13 L13,13 L13,11 Z M3,13 L3,11 L5,11 L5,13 L3,13 Z" id="shape" fill="#242424"></path>
    </g>
</svg>