<?xml version="1.0" encoding="UTF-8"?>
<svg width="16" height="16" viewBox="0 0 16 16" version="1.1" xmlns="http://www.w3.org/2000/svg" xmlns:xlink="http://www.w3.org/1999/xlink">
    <title>icon/light/manual</title>
    <g id="icon/light/manual" stroke="none" stroke-width="1" fill="none" fill-rule="evenodd">
        <path d="M3.80735,2.12769 C5.22846,1.84347 6.70375,2.04104 8,2.68917 C9.29625,2.04104 10.7715,1.84347 12.1926,2.12769 L12.1926,2.12769 L15,2.68917 L15,14 L12.1926,13.4385 C10.9513,13.1903 9.66859,13.3096 8.5,13.7758 C8.33078,13.8433 8.16396,13.918 8,14 C7.83604,13.918 7.66922,13.8432 7.5,13.7758 C6.33141,13.3096 5.0487,13.1903 3.80735,13.4385 L3.80735,13.4385 L1,14 L1,2.68917 Z M7.5,3.55755 C6.41549,3.02967 5.18727,2.87152 4.00347,3.10828 L4.00347,3.10828 L2,3.50897 L2,12.7802 L3.61124,12.4579 C4.91298,12.1976 6.25415,12.2877 7.5,12.7103 L7.5,12.7103 Z M8.5,3.55755 L8.5,12.7103 C9.74585,12.2877 11.087,12.1976 12.3888,12.4579 L14,12.7802 L14,3.50897 L11.9965,3.10828 C10.8127,2.87152 9.58451,3.02967 8.5,3.55755 Z M11.8,7.00001 L11.8,11 L10.8,11 L10.8,7.00001 L11.8,7.00001 Z M11.3,4.5 C11.7142,4.5 12.05,4.83579 12.05,5.25 C12.05,5.66421 11.7142,6 11.3,6 C10.8858,6 10.55,5.66421 10.55,5.25 C10.55,4.83579 10.8858,4.5 11.3,4.5 Z" id="shape" fill="#242424"></path>
    </g>
</svg>