<?xml version="1.0" encoding="UTF-8"?>
<svg width="16" height="16" viewBox="0 0 16 16" version="1.1" xmlns="http://www.w3.org/2000/svg" xmlns:xlink="http://www.w3.org/1999/xlink">
    <title>icon/light/map-important-building</title>
    <g id="icon/light/map-important-building" stroke="none" stroke-width="1" fill="none" fill-rule="evenodd">
        <path d="M13.5,11.5 L13.5,13.5 L14.5,13.5 L14.5,14.5 L1.5,14.5 L1.5,13.5 L2.5,13.5 L2.5,11.5 L13.5,11.5 Z M12.5,12.5 L3.5,12.5 L3.5,13.5 L12.5,13.5 L12.5,12.5 Z M3.5,6 L3.5,10.5 L2.5,10.5 L2.5,6 L3.5,6 Z M5.5,6 L5.5,10.5 L4.5,10.5 L4.5,6 L5.5,6 Z M13.5,6 L13.5,10.5 L12.5,10.5 L12.5,6 L13.5,6 Z M11.5,6 L11.5,10.5 L10.5,10.5 L10.5,6 L11.5,6 Z M8,1.5 L14.5,4 L14.5,5 L1.5,5 L1.5,4 L8,1.5 Z M8,2.57141 L4.28568,4 L11.7143,4 L8,2.57141 Z" id="shape" fill="#242424"></path>
    </g>
</svg>