<?xml version="1.0" encoding="UTF-8"?>
<svg width="16" height="16" viewBox="0 0 16 16" version="1.1" xmlns="http://www.w3.org/2000/svg" xmlns:xlink="http://www.w3.org/1999/xlink">
    <title>icon/light/map-location</title>
    <g id="icon/light/map-location" stroke="none" stroke-width="1" fill="none" fill-rule="evenodd">
        <path d="M12.9753,7.5 C12.7408,5.13779 10.8622,3.25922 8.5,3.02469 L8.5,1 L7.5,1 L7.5,3.02469 C5.13779,3.25922 3.25922,5.13779 3.02469,7.5 L1,7.5 L1,8.5 L3.02469,8.5 C3.25922,10.8622 5.13779,12.7408 7.5,12.9753 L7.5,15 L8.5,15 L8.5,12.9753 C10.8622,12.7408 12.7408,10.8622 12.9753,8.5 L15,8.5 L15,7.5 L12.9753,7.5 Z M8,12 C10.2091,12 12,10.2091 12,8 C12,5.79086 10.2091,4 8,4 C5.79086,4 4,5.79086 4,8 C4,10.2091 5.79086,12 8,12 Z" id="shape" fill="#242424"></path>
    </g>
</svg>