<?xml version="1.0" encoding="UTF-8"?>
<svg width="16" height="16" viewBox="0 0 16 16" version="1.1" xmlns="http://www.w3.org/2000/svg" xmlns:xlink="http://www.w3.org/1999/xlink">
    <title>icon/light/medal</title>
    <g id="icon/light/medal" stroke="none" stroke-width="1" fill="none" fill-rule="evenodd">
        <path d="M11,10.0004 C12.2144,9.08816 13,7.63582 13,6 C13,3.23858 10.7614,1 8,1 C5.23858,1 3,3.23858 3,6 C3,7.63582 3.78555,9.08816 5,10.0004 L5,15.0031 L8,13.2031 L11,15.0031 L11,10.0004 Z M12,6 C12,8.20914 10.2091,10 8,10 C5.79086,10 4,8.20914 4,6 C4,3.79086 5.79086,2 8,2 C10.2091,2 12,3.79086 12,6 Z M10,10.584 C9.38754,10.8516 8.71111,11 8,11 C7.2665,11 6.56988,10.8421 5.94232,10.5583 C5.96148,10.567 5.98071,10.5755 6,10.584 L6,13.2369 L8,12.0369 L10,13.2369 L10,10.584 Z" id="shape" fill="#242424"></path>
    </g>
</svg>