<?xml version="1.0" encoding="UTF-8"?>
<svg width="16" height="16" viewBox="0 0 16 16" version="1.1" xmlns="http://www.w3.org/2000/svg" xmlns:xlink="http://www.w3.org/1999/xlink">
    <title>icon/light/message-smiley</title>
    <g id="icon/light/message-smiley" stroke="none" stroke-width="1" fill="none" fill-rule="evenodd">
        <path d="M15,2 L15,12 L5,12 L1,15 L1,2 L15,2 Z M14,3 L2,3 L2,13 L4.66667,11 L14,11 L14,3 Z M10.147,7.146 C10.157825,7.15712594 10.1688125,7.16823313 10.19085,7.19038875 L10.2956531,7.29551047 C10.3453313,7.3452725 10.4116,7.4115925 10.5,7.49998 C10.5294667,7.52944333 10.5564757,7.55645326 10.5812321,7.58121409 L10.80925,7.80948 C10.853375,7.8537425 10.8533,7.85381 10.8533,7.85381 L10.8332,7.87328 C10.8225,7.88352 10.8078,7.89726 10.7892,7.914 C10.7522,7.94746 10.6997,7.99305 10.6327,8.04667 C10.4989,8.15366 10.3056,8.29407 10.0606,8.4341 C9.57254,8.71298 8.86189,8.99998 8,8.99998 C7.13811,8.99998 6.42747,8.71298 5.93943,8.4341 C5.69438,8.29407 5.50108,8.15366 5.36734,8.04667 C5.30032,7.99305 5.2478,7.94746 5.21076,7.914 C5.19222,7.89726 5.17752,7.88352 5.16677,7.87328 L5.16677,7.87328 L5.14672,7.85381 L5.14672,7.85381 C5.15158542,7.84885444 5.16136125,7.83898833 5.19077875,7.80948 L5.80923625,7.19049875 C5.85337,7.1462425 5.85331,7.14618 5.85331,7.14618 C5.86106,7.15356 5.8693,7.1613 5.88104,7.1719 C5.90455,7.19313 5.94187,7.22567 5.99204,7.2658 C6.09267,7.34631 6.24313,7.45589 6.43557,7.56586 C6.82254,7.78698 7.36189,7.99998 8,7.99998 C8.63811,7.99998 9.17747,7.78698 9.56443,7.56586 C9.75688,7.45589 9.90733,7.34631 10.008,7.2658 C10.0581,7.22567 10.0955,7.19313 10.119,7.1719 C10.1307,7.1613 10.1389,7.15356 10.1436,7.14914 L10.1436,7.14914 L10.147,7.146 Z M7,5 L7,6 L5,6 L5,5 L7,5 Z M11,5 L11,6 L9,6 L9,5 L11,5 Z" id="shape" fill="#242424"></path>
    </g>
</svg>