<?xml version="1.0" encoding="UTF-8"?>
<svg width="16" height="16" viewBox="0 0 16 16" version="1.1" xmlns="http://www.w3.org/2000/svg" xmlns:xlink="http://www.w3.org/1999/xlink">
    <title>icon/light/mic-off</title>
    <g id="icon/light/mic-off" stroke="none" stroke-width="1" fill="none" fill-rule="evenodd">
        <path d="M14.2929,1 L15,1.70712 L10.5,6.20712 L10.5,8.5 C10.5,9.88071 9.38071,11 8,11 C7.36234,11 6.78045,10.7613 6.33881,10.3683 L6.33881,10.3683 L5.63084,11.0763 C6.25418,11.6498 7.08619,12 8,12 C9.933,12 11.5,10.433 11.5,8.5 L11.5,8.5 L11.5,7 L12.5,7 L12.5,8.5 C12.5,10.8163 10.75,12.7238 8.5,12.9725 L8.5,12.9725 L8.5,14 L10,14 L10,15 L6,15 L6,14 L7.5,14 L7.5,12.9725 C6.50827,12.8629 5.61367,12.431 4.92326,11.7839 L4.92326,11.7839 L1.70712,15 L1,14.2929 L14.2929,1 Z M4.5,7 L4.5,8.5 C4.5,8.77142 4.53089,9.03562 4.58936,9.28928 L4.58936,9.28928 L3.78887,10.0898 C3.60217,9.59546 3.5,9.05966 3.5,8.5 L3.5,8.5 L3.5,7 L4.5,7 Z M9.5,7.20712 L7.04794,9.65918 C7.30692,9.87214 7.63853,10 8,10 C8.82843,10 9.5,9.32843 9.5,8.5 L9.5,7.20712 Z M8,1 C9.34096,1 10.4353,2.05576 10.4972,3.3814 L9.5,4.37864 L9.5,3.5 C9.5,2.67157 8.82843,2 8,2 C7.17157,2 6.5,2.67157 6.5,3.5 L6.5,7.37864 L5.5,8.37864 L5.5,3.5 C5.5,2.11929 6.61929,1 8,1 Z" id="shape" fill="#242424"></path>
    </g>
</svg>