<?xml version="1.0" encoding="UTF-8"?>
<svg width="16" height="16" viewBox="0 0 16 16" version="1.1" xmlns="http://www.w3.org/2000/svg" xmlns:xlink="http://www.w3.org/1999/xlink">
    <title>icon/light/mic</title>
    <g id="icon/light/mic" stroke="none" stroke-width="1" fill="none" fill-rule="evenodd">
        <path d="M4.5,7 L4.5,8.5 C4.5,10.433 6.067,12 8,12 C9.933,12 11.5,10.433 11.5,8.5 L11.5,8.5 L11.5,7 L12.5,7 L12.5,8.5 C12.5,10.8163 10.75,12.7238 8.5,12.9725 L8.5,12.9725 L8.5,14 L10,14 L10,15 L6,15 L6,14 L7.5,14 L7.5,12.9725 C5.25002,12.7238 3.5,10.8163 3.5,8.5 L3.5,8.5 L3.5,7 L4.5,7 Z M8,1 C9.38071,1 10.5,2.11929 10.5,3.5 L10.5,8.5 C10.5,9.88071 9.38071,11 8,11 C6.61929,11 5.5,9.88071 5.5,8.5 L5.5,3.5 C5.5,2.11929 6.61929,1 8,1 Z M8,2 C7.17157,2 6.5,2.67157 6.5,3.5 L6.5,3.5 L6.5,8.5 C6.5,9.32843 7.17157,10 8,10 C8.82843,10 9.5,9.32843 9.5,8.5 L9.5,8.5 L9.5,3.5 C9.5,2.67157 8.82843,2 8,2 Z" id="shape" fill="#242424"></path>
    </g>
</svg>