<?xml version="1.0" encoding="UTF-8"?>
<svg width="16" height="16" viewBox="0 0 16 16" version="1.1" xmlns="http://www.w3.org/2000/svg" xmlns:xlink="http://www.w3.org/1999/xlink">
    <title>icon/light/microwave-small</title>
    <g id="icon/light/microwave-small" stroke="none" stroke-width="1" fill="none" fill-rule="evenodd">
        <path d="M9.1497,3.99927 C10.2818,4.96225 11,6.39724 11,7.99997 C11,9.6027 10.2818,11.0377 9.1497,12.0007 L8.50213,11.2386 C9.41861,10.4591 10,9.29742 10,7.99997 C10,6.70252 9.41861,5.54086 8.50213,4.76131 L9.1497,3.99927 Z M7.69268,5.71385 C8.3396,6.26413 8.75,7.08412 8.75,7.99997 C8.75,8.91582 8.3396,9.73581 7.69268,10.2861 L7.04512,9.52405 C7.4764,9.1572 7.75,8.61054 7.75,7.99997 C7.75,7.38941 7.4764,6.84274 7.04512,6.47589 L7.69268,5.71385 Z M5.75,7.25 C6.16421,7.25 6.5,7.58579 6.5,8 C6.5,8.41421 6.16421,8.75 5.75,8.75 C5.33579,8.75 5,8.41421 5,8 C5,7.58579 5.33579,7.25 5.75,7.25 Z" id="shape" fill="#242424"></path>
    </g>
</svg>