<?xml version="1.0" encoding="UTF-8"?>
<svg width="16" height="16" viewBox="0 0 16 16" version="1.1" xmlns="http://www.w3.org/2000/svg" xmlns:xlink="http://www.w3.org/1999/xlink">
    <title>icon/light/microwave</title>
    <g id="icon/light/microwave" stroke="none" stroke-width="1" fill="none" fill-rule="evenodd">
        <path d="M5.5,7.99997 L5.5,15 L4.5,15 L4.5,7.99997 L5.5,7.99997 Z M9.90358,1.00452 C11.1974,2.27471 12,4.04364 12,6.00001 C12,7.95638 11.1974,9.7253 9.90358,10.9955 L9.20307,10.2819 C10.3121,9.19312 11,7.6769 11,6.00001 C11,4.32312 10.3121,2.8069 9.20307,1.71816 L9.90358,1.00452 Z M7.80205,3.14544 C8.54139,3.87127 9,4.88208 9,6.00001 C9,7.11793 8.54139,8.12875 7.80205,8.85457 L7.10154,8.14093 C7.65604,7.59656 8,6.83845 8,6.00001 C8,5.16156 7.65604,4.40345 7.10154,3.85908 L7.80205,3.14544 Z M5,4.99997 C5.55228,4.99997 6,5.44768 6,5.99997 C6,6.55225 5.55228,6.99997 5,6.99997 C4.44772,6.99997 4,6.55225 4,5.99997 C4,5.44768 4.44772,4.99997 5,4.99997 Z" id="shape" fill="#242424"></path>
    </g>
</svg>