<?xml version="1.0" encoding="UTF-8"?>
<svg width="16" height="16" viewBox="0 0 16 16" version="1.1" xmlns="http://www.w3.org/2000/svg" xmlns:xlink="http://www.w3.org/1999/xlink">
    <title>icon/light/minihub</title>
    <g id="icon/light/minihub" stroke="none" stroke-width="1" fill="none" fill-rule="evenodd">
        <path d="M10,4 L10,12 L6,12 L6,4 L10,4 Z M11.5355,4.46448 C12.4404,5.3693 13,6.6193 13,8.00001 C13,9.38072 12.4404,10.6307 11.5355,11.5355 L10.8284,10.8284 C11.5523,10.1046 12,9.10458 12,8.00001 C12,6.89544 11.5523,5.89544 10.8284,5.17158 L11.5355,4.46448 Z M4.46447,4.46448 L5.17157,5.17158 C4.44772,5.89544 4,6.89544 4,8.00001 C4,9.10458 4.44772,10.1046 5.17157,10.8284 L4.46447,11.5355 C3.55964,10.6307 3,9.38072 3,8.00001 C3,6.6193 3.55964,5.3693 4.46447,4.46448 Z M9,5 L7,5 L7,11 L9,11 L9,5 Z" id="shape" fill="#242424"></path>
    </g>
</svg>