<?xml version="1.0" encoding="UTF-8"?>
<svg width="16" height="16" viewBox="0 0 16 16" version="1.1" xmlns="http://www.w3.org/2000/svg" xmlns:xlink="http://www.w3.org/1999/xlink">
    <title>icon/light/mobile</title>
    <g id="icon/light/mobile" stroke="none" stroke-width="1" fill="none" fill-rule="evenodd">
        <path d="M10.5,1 C11.6046,1 12.5,1.89543 12.5,3 L12.5,13 C12.5,14.1046 11.6046,15 10.5,15 L5.5,15 C4.39543,15 3.5,14.1046 3.5,13 L3.5,3 C3.5,1.89543 4.39543,1 5.5,1 L10.5,1 Z M10.5,2 L5.5,2 C4.94772,2 4.5,2.44772 4.5,3 L4.5,3 L4.5,13 C4.5,13.5523 4.94772,14 5.5,14 L5.5,14 L10.5,14 C11.0523,14 11.5,13.5523 11.5,13 L11.5,13 L11.5,3 C11.5,2.44772 11.0523,2 10.5,2 L10.5,2 Z M8,11.5 C8.41421,11.5 8.75,11.8358 8.75,12.25 C8.75,12.6642 8.41421,13 8,13 C7.58579,13 7.25,12.6642 7.25,12.25 C7.25,11.8358 7.58579,11.5 8,11.5 Z" id="shape" fill="#242424"></path>
    </g>
</svg>