<?xml version="1.0" encoding="UTF-8"?>
<svg width="16" height="16" viewBox="0 0 16 16" version="1.1" xmlns="http://www.w3.org/2000/svg" xmlns:xlink="http://www.w3.org/1999/xlink">
    <title>icon/light/mobile-devices</title>
    <g id="icon/light/mobile-devices" stroke="none" stroke-width="1" fill="none" fill-rule="evenodd">
        <path d="M11,1 C11.8284,1 12.5,1.67157 12.5,2.5 L12.5,2.5 L12.5,5.5 L11.5,5.5 L11.5,2.5 C11.5,2.22386 11.2761,2 11,2 L11,2 L3,2 C2.72386,2 2.5,2.22386 2.5,2.5 L2.5,2.5 L2.5,13.5 C2.5,13.7761 2.72386,14 3,14 L3,14 L7.5,14 L7.5,15 L3,15 C2.17157,15 1.5,14.3284 1.5,13.5 L1.5,13.5 L1.5,2.5 C1.5,1.67157 2.17157,1 3,1 L3,1 Z M13.5,6.5 C14.0523,6.5 14.5,6.94772 14.5,7.5 L14.5,7.5 L14.5,14 C14.5,14.5523 14.0523,15 13.5,15 L13.5,15 L9.5,15 C8.94772,15 8.5,14.5523 8.5,14 L8.5,14 L8.5,7.5 C8.5,6.94772 8.94772,6.5 9.5,6.5 L9.5,6.5 Z M13.5,7.5 L9.5,7.5 L9.5,14 L13.5,14 L13.5,7.5 Z M11.5,12.5 C11.7761,12.5 12,12.7239 12,13 C12,13.2761 11.7761,13.5 11.5,13.5 C11.2239,13.5 11,13.2761 11,13 C11,12.7239 11.2239,12.5 11.5,12.5 Z M7,12 C7.27614,12 7.5,12.2239 7.5,12.5 C7.5,12.7761 7.27614,13 7,13 C6.72386,13 6.5,12.7761 6.5,12.5 C6.5,12.2239 6.72386,12 7,12 Z" id="shape" fill="#242424"></path>
    </g>
</svg>