<?xml version="1.0" encoding="UTF-8"?>
<svg width="16" height="16" viewBox="0 0 16 16" version="1.1" xmlns="http://www.w3.org/2000/svg" xmlns:xlink="http://www.w3.org/1999/xlink">
    <title>icon/light/money</title>
    <g id="icon/light/money" stroke="none" stroke-width="1" fill="none" fill-rule="evenodd">
        <path d="M16,3.5 L16,12.5 L0,12.5 L0,3.5 L16,3.5 Z M12.5,4.5 L3.5,4.5 C3.5,5.881 2.38,7 1,7 L1,9 C2.38,9 3.5,10.119 3.5,11.5 L12.5,11.5 C12.5,10.119 13.62,9 15,9 L15,7 C13.62,7 12.5,5.881 12.5,4.5 Z M15,10 C14.173,10 13.5,10.673 13.5,11.5 L15,11.5 L15,10 Z M1,10 L1,11.5 L2.5,11.5 C2.5,10.673 1.827,10 1,10 Z M8,5.5 C9.381,5.5 10.5,6.619 10.5,8 C10.5,9.381 9.381,10.5 8,10.5 C6.619,10.5 5.5,9.381 5.5,8 C5.5,6.619 6.619,5.5 8,5.5 Z M8,6.5 C7.173,6.5 6.5,7.173 6.5,8 C6.5,8.827 7.173,9.5 8,9.5 C8.827,9.5 9.5,8.827 9.5,8 C9.5,7.173 8.827,6.5 8,6.5 Z M15,4.5 L13.5,4.5 C13.5,5.327 14.173,6 15,6 L15,4.5 Z M2.5,4.5 L1,4.5 L1,6 C1.827,6 2.5,5.327 2.5,4.5 Z" id="shape" fill="#242424"></path>
    </g>
</svg>