<?xml version="1.0" encoding="UTF-8"?>
<svg width="16" height="16" viewBox="0 0 16 16" version="1.1" xmlns="http://www.w3.org/2000/svg" xmlns:xlink="http://www.w3.org/1999/xlink">
    <title>icon/light/money-transaction</title>
    <g id="icon/light/money-transaction" stroke="none" stroke-width="1" fill="none" fill-rule="evenodd">
        <path d="M5,2.00005 L5,4.75005 L4,4.75005 L4,3.52779 C2.77184,4.62697 2,6.2234 2,8.00005 C2,11.3138 4.68629,14 8,14 C8.31443,14 8.62289,13.9759 8.9237,13.9295 L8.9237,13.9295 L9.0763,14.9177 C8.72517,14.972 8.3657,15 8,15 C4.13401,15 1,11.866 1,8.00005 C1,6.04105 1.80504,4.27013 3.10107,3.00005 L3.10107,3.00005 L2,3.00005 L2,2.00005 L5,2.00005 Z M8,1.00005 C11.866,1.00005 15,4.13405 15,8.00005 C15,9.959 14.1949,11.73 12.8989,13 L12.8989,13 L14,13 L14,14 L11,14 L11,11.25 L12,11.25 L12,12.4723 C13.2282,11.3731 14,9.77673 14,8.00005 C14,4.68634 11.3137,2.00005 8,2.00005 C7.68557,2.00005 7.37711,2.02419 7.0763,2.07064 L7.0763,2.07064 L6.9237,1.08235 C7.27483,1.02813 7.6343,1.00005 8,1.00005 Z M8.5,3.5 L8.5,5 L10.5,5 L10.5,6 L6.75,6 C6.33579,6 6,6.33579 6,6.75 C6,7.16421 6.33579,7.5 6.75,7.5 L9.25,7.5 C10.2165,7.5 11,8.2835 11,9.25 C11,10.2165 10.2165,11 9.25,11 L8.5,11 L8.5,12.5 L7.5,12.5 L7.5,11 L5.5,11 L5.5,10 L9.25,10 C9.66421,10 10,9.66422 10,9.25 C10,8.83579 9.66421,8.5 9.25,8.5 L6.75,8.5 C5.7835,8.5 5,7.7165 5,6.75 C5,5.7835 5.7835,5 6.75,5 L7.5,5 L7.5,3.5 L8.5,3.5 Z" id="shape" fill="#242424"></path>
    </g>
</svg>