<?xml version="1.0" encoding="UTF-8"?>
<svg width="16" height="16" viewBox="0 0 16 16" version="1.1" xmlns="http://www.w3.org/2000/svg" xmlns:xlink="http://www.w3.org/1999/xlink">
    <title>icon/light/more</title>
    <g id="icon/light/more" stroke="none" stroke-width="1" fill="none" fill-rule="evenodd">
        <path d="M8,12 C8.55229,12 9,12.4477 9,13 C9,13.5523 8.55229,14 8,14 C7.44772,14 7,13.5523 7,13 C7,12.4477 7.44772,12 8,12 Z M8,7 C8.55229,7 9,7.44772 9,8 C9,8.55229 8.55229,9 8,9 C7.44772,9 7,8.55229 7,8 C7,7.44772 7.44772,7 8,7 Z M8,2 C8.55229,2 9,2.44772 9,3 C9,3.55228 8.55229,4 8,4 C7.44772,4 7,3.55228 7,3 C7,2.44772 7.44772,2 8,2 Z" id="shape" fill="#242424"></path>
    </g>
</svg>