<?xml version="1.0" encoding="UTF-8"?>
<svg width="16" height="16" viewBox="0 0 16 16" version="1.1" xmlns="http://www.w3.org/2000/svg" xmlns:xlink="http://www.w3.org/1999/xlink">
    <title>icon/light/network</title>
    <g id="icon/light/network" stroke="none" stroke-width="1" fill="none" fill-rule="evenodd">
        <path d="M3.5,4.93699 C4.36261,4.71497 5,3.93192 5,3 C5,1.89543 4.10457,1 3,1 C1.89543,1 1,1.89543 1,3 C1,3.93192 1.63739,4.71497 2.5,4.93699 L2.5,8.5 L7.5,8.5 L7.5,11.063 C6.63739,11.285 6,12.0681 6,13 C6,14.1046 6.89543,15 8,15 C9.10457,15 10,14.1046 10,13 C10,12.0681 9.36261,11.285 8.5,11.063 L8.5,8.5 L13.5,8.5 L13.5,4.93699 C14.3626,4.71497 15,3.93192 15,3 C15,1.89543 14.1046,1 13,1 C11.8954,1 11,1.89543 11,3 C11,3.93192 11.6374,4.71497 12.5,4.93699 L12.5,7.5 L8.5,7.5 L8.5,4.93699 C9.36261,4.71497 10,3.93192 10,3 C10,1.89543 9.10457,1 8,1 C6.89543,1 6,1.89543 6,3 C6,3.93192 6.63739,4.71497 7.5,4.93699 L7.5,7.5 L3.5,7.5 L3.5,4.93699 Z M4,3 C4,3.55228 3.55228,4 3,4 C2.44772,4 2,3.55228 2,3 C2,2.44772 2.44772,2 3,2 C3.55228,2 4,2.44772 4,3 Z M9,3 C9,3.55228 8.55228,4 8,4 C7.44772,4 7,3.55228 7,3 C7,2.44772 7.44772,2 8,2 C8.55228,2 9,2.44772 9,3 Z M8,14 C8.55228,14 9,13.5523 9,13 C9,12.4477 8.55228,12 8,12 C7.44772,12 7,12.4477 7,13 C7,13.5523 7.44772,14 8,14 Z M14,3 C14,3.55228 13.5523,4 13,4 C12.4477,4 12,3.55228 12,3 C12,2.44772 12.4477,2 13,2 C13.5523,2 14,2.44772 14,3 Z" id="shape" fill="#242424"></path>
    </g>
</svg>