<?xml version="1.0" encoding="UTF-8"?>
<svg width="16" height="16" viewBox="0 0 16 16" version="1.1" xmlns="http://www.w3.org/2000/svg" xmlns:xlink="http://www.w3.org/1999/xlink">
    <title>icon/light/node-network</title>
    <g id="icon/light/node-network" stroke="none" stroke-width="1" fill="none" fill-rule="evenodd">
        <path d="M3.5,5.5 C3.8709,5.5 4.21822,5.39904 4.51598,5.22309 L5.9142,6.62131 C5.65244,7.01653 5.5,7.49046 5.5,8 C5.5,8.50954 5.65244,8.98348 5.9142,9.3787 L4.51599,10.7769 C4.21823,10.601 3.87091,10.5 3.5,10.5 C2.39543,10.5 1.5,11.3954 1.5,12.5 C1.5,13.6046 2.39543,14.5 3.5,14.5 C4.60457,14.5 5.5,13.6046 5.5,12.5 C5.5,12.1291 5.39904,11.7818 5.22309,11.484 L6.62131,10.0858 C7.01652,10.3476 7.49046,10.5 8,10.5 C8.50954,10.5 8.98347,10.3476 9.37869,10.0858 L10.7769,11.484 C10.601,11.7818 10.5,12.1291 10.5,12.5 C10.5,13.6046 11.3954,14.5 12.5,14.5 C13.6046,14.5 14.5,13.6046 14.5,12.5 C14.5,11.3954 13.6046,10.5 12.5,10.5 C12.1291,10.5 11.7818,10.601 11.484,10.7769 L10.0858,9.3787 C10.3476,8.98348 10.5,8.50954 10.5,8 C10.5,7.49046 10.3476,7.01652 10.0858,6.62131 L11.484,5.22309 C11.7818,5.39904 12.1291,5.5 12.5,5.5 C13.6046,5.5 14.5,4.60457 14.5,3.5 C14.5,2.39543 13.6046,1.5 12.5,1.5 C11.3954,1.5 10.5,2.39543 10.5,3.5 C10.5,3.87091 10.601,4.21823 10.7769,4.51599 L9.3787,5.9142 C8.98348,5.65244 8.50954,5.5 8,5.5 C7.49046,5.5 7.01652,5.65244 6.6213,5.9142 L5.22309,4.51599 C5.39903,4.21823 5.5,3.87091 5.5,3.5 C5.5,2.39543 4.60457,1.5 3.5,1.5 C2.39543,1.5 1.5,2.39543 1.5,3.5 C1.5,4.60457 2.39543,5.5 3.5,5.5 Z M3.5,4.5 C4.05228,4.5 4.5,4.05228 4.5,3.5 C4.5,2.94772 4.05228,2.5 3.5,2.5 C2.94772,2.5 2.5,2.94772 2.5,3.5 C2.5,4.05228 2.94772,4.5 3.5,4.5 Z M12.5,4.5 C13.0523,4.5 13.5,4.05228 13.5,3.5 C13.5,2.94772 13.0523,2.5 12.5,2.5 C11.9477,2.5 11.5,2.94772 11.5,3.5 C11.5,4.05228 11.9477,4.5 12.5,4.5 Z M4.5,12.5 C4.5,13.0523 4.05228,13.5 3.5,13.5 C2.94772,13.5 2.5,13.0523 2.5,12.5 C2.5,11.9477 2.94772,11.5 3.5,11.5 C4.05228,11.5 4.5,11.9477 4.5,12.5 Z M8,6.5 C7.17157,6.5 6.5,7.17157 6.5,8 C6.5,8.82843 7.17157,9.5 8,9.5 C8.82843,9.5 9.5,8.82843 9.5,8 C9.5,7.17157 8.82843,6.5 8,6.5 Z M13.5,12.5 C13.5,13.0523 13.0523,13.5 12.5,13.5 C11.9477,13.5 11.5,13.0523 11.5,12.5 C11.5,11.9477 11.9477,11.5 12.5,11.5 C13.0523,11.5 13.5,11.9477 13.5,12.5 Z" id="shape" fill="#242424"></path>
    </g>
</svg>