<?xml version="1.0" encoding="UTF-8"?>
<svg width="16" height="16" viewBox="0 0 16 16" version="1.1" xmlns="http://www.w3.org/2000/svg" xmlns:xlink="http://www.w3.org/1999/xlink">
    <title>icon/light/node</title>
    <g id="icon/light/node" stroke="none" stroke-width="1" fill="none" fill-rule="evenodd">
        <path d="M8,1 C11.866,1 15,4.13401 15,8 C15,11.866 11.866,15 8,15 C4.13401,15 1,11.866 1,8 C1,4.13401 4.13401,1 8,1 Z M8,2 C4.68629,2 2,4.68629 2,8 C2,11.3137 4.68629,14 8,14 C11.3137,14 14,11.3137 14,8 C14,4.68629 11.3137,2 8,2 Z M8,4 C10.2091,4 12,5.79086 12,8 C12,10.2091 10.2091,12 8,12 C5.79086,12 4,10.2091 4,8 C4,5.79086 5.79086,4 8,4 Z M8,5 C6.34315,5 5,6.34315 5,8 C5,9.65685 6.34315,11 8,11 C9.65685,11 11,9.65685 11,8 C11,6.34315 9.65685,5 8,5 Z" id="shape" fill="#242424"></path>
    </g>
</svg>