<?xml version="1.0" encoding="UTF-8"?>
<svg width="16" height="16" viewBox="0 0 16 16" version="1.1" xmlns="http://www.w3.org/2000/svg" xmlns:xlink="http://www.w3.org/1999/xlink">
    <title>icon/light/notification</title>
    <g id="icon/light/notification" stroke="none" stroke-width="1" fill="none" fill-rule="evenodd">
        <path d="M9.11417,1.71713 C8.39894,1.43104 7.60106,1.43104 6.88583,1.71713 C5.74685,2.17272 5,3.27585 5,4.5025625 L5,6.25734 C5,6.92038 4.73661,7.55627 4.26777,8.02511 L3.52513,8.76775 C2.86875,9.42413 2.5,10.3144 2.5,11.2426 L2.5,12.5 L6,12.5 C6,13.6046 6.89543,14.5 8,14.5 C9.10457,14.5 10,13.6046 10,12.5 L13.5,12.5 L13.5,11.2426 C13.5,10.3144 13.1313,9.42413 12.4749,8.76775 L11.7322,8.02511 C11.2634,7.55627 11,6.92038 11,6.25734 L11,4.5025625 C11,3.27585 10.2531,2.17272 9.11417,1.71713 Z M9,12.5 L7,12.5 C7,13.0523 7.44772,13.5 8,13.5 C8.55228,13.5 9,13.0523 9,12.5 Z M7.25722,2.64561 C7.73404,2.45488 8.26596,2.45488 8.74278,2.64561 C9.5021,2.94934 10,3.68475 10,4.5025625 L10,6.25734 C10,7.1856 10.3688,8.07584 11.0251,8.73221 L11.7678,9.47485 C12.2366,9.9437 12.5,10.5796 12.5,11.2426 L12.5,11.5 L3.5,11.5 L3.5,11.2426 C3.5,10.5796 3.76339,9.9437 4.23223,9.47486 L4.97487,8.73221 C5.63125,8.07584 6,7.1856 6,6.25734 L6,4.5025625 C6,3.68475 6.4979,2.94934 7.25722,2.64561 Z" id="shape" fill="#242424"></path>
    </g>
</svg>