<?xml version="1.0" encoding="UTF-8"?>
<svg width="16" height="16" viewBox="0 0 16 16" version="1.1" xmlns="http://www.w3.org/2000/svg" xmlns:xlink="http://www.w3.org/1999/xlink">
    <title>icon/light/notification-off</title>
    <g id="icon/light/notification-off" stroke="none" stroke-width="1" fill="none" fill-rule="evenodd">
        <path d="M14.2929,1 L15,1.70712 L11,5.70712 L11,6.25736 C11,6.9204 11.2634,7.55629 11.7322,8.02513 L11.7322,8.02513 L12.4749,8.76777 C13.1313,9.42414 13.5,10.3144 13.5,11.2426 L13.5,11.2426 L13.5,12.5 L10,12.5 C10,13.6046 9.10457,14.5 8,14.5 C6.89543,14.5 6,13.6046 6,12.5 L6,12.5 L4.20712,12.5 L1.70712,15 L1,14.2929 L14.2929,1 Z M9,12.5 L7,12.5 C7,13.0523 7.44772,13.5 8,13.5 C8.55228,13.5 9,13.0523 9,12.5 Z M10.0258,6.68136 L5.20712,11.5 L12.5,11.5 L12.5,11.2426 C12.5,10.5796 12.2366,9.94372 11.7678,9.47487 L11.0251,8.73223 C10.4695,8.17659 10.12,7.45337 10.0258,6.68136 Z M6.88583,1.71715 C7.60106,1.43106 8.39894,1.43106 9.11417,1.71715 C9.81944,1.99926 10.3744,2.52965 10.6947,3.18393 L10.6947,3.18393 L9.92367,3.95497 C9.75682,3.36895 9.32724,2.87941 8.74278,2.64563 C8.26596,2.4549 7.73404,2.4549 7.25722,2.64563 C6.4979,2.94936 6,3.68477 6,4.5025825 L6,4.5025825 L6,6.25736 C6,7.18562 5.63125,8.07586 4.97487,8.73223 L4.97487,8.73223 L4.23223,9.47487 C4.04581,9.6613 3.89187,9.87414 3.77405,10.1046 L3.77405,10.1046 L2.5,11.3786 L2.5,11.2426 C2.5,10.3144 2.86875,9.42414 3.52513,8.76777 L3.52513,8.76777 L4.26777,8.02513 C4.73661,7.55629 5,6.9204 5,6.25736 L5,6.25736 L5,4.5025825 C5,3.27587 5.74685,2.17274 6.88583,1.71715 Z" id="shape" fill="#242424"></path>
    </g>
</svg>