<?xml version="1.0" encoding="UTF-8"?>
<svg width="16" height="16" viewBox="0 0 16 16" version="1.1" xmlns="http://www.w3.org/2000/svg" xmlns:xlink="http://www.w3.org/1999/xlink">
    <title>icon/light/notification-ring</title>
    <g id="icon/light/notification-ring" stroke="none" stroke-width="1" fill="none" fill-rule="evenodd">
        <path d="M5.16099,2.60875 L6.4018,3.84956 C6.87065,4.3184 7.50653,4.5818 8.16957,4.5818 L9.21982,4.58179 C10.1481,4.58179 11.0383,4.95054 11.6947,5.60692 L12.5838,6.49601 L10.1089,8.97088 C10.89,9.75193 10.89,11.0183 10.1089,11.7993 C9.32786,12.5804 8.06153,12.5804 7.28048,11.7993 L4.80561,14.2742 L3.91652,13.3851 C3.26015,12.7287 2.8914,11.8385 2.8914,10.9102 L2.8914,9.85997 C2.8914,9.19693 2.62801,8.56104 2.15916,8.0922 L0.918349,6.85139 C0.0509304,5.98397 -0.200992,4.67584 0.282234,3.54831 C0.585681,2.84027 1.14987,2.27608 1.85791,1.97263 C2.98544,1.48941 4.29357,1.74133 5.16099,2.60875 Z M2.25183,2.89178 C1.7798,3.09408 1.40368,3.4702 1.20138,3.94223 C0.879228,4.69391 1.04718,5.566 1.62546,6.14428 L2.86627,7.3851 C3.52265,8.04147 3.8914,8.93171 3.8914,9.85997 L3.8914,10.9102 C3.8914,11.5733 4.15479,12.2091 4.62363,12.678 L4.80561,12.86 L11.1696,6.49601 L10.9876,6.31403 C10.5187,5.84519 9.88286,5.5818 9.21982,5.58179 L8.16957,5.58179 C7.24132,5.58179 6.35108,5.21305 5.6947,4.55667 L4.45388,3.31585 C3.8756,2.73758 3.00351,2.56963 2.25183,2.89178 Z M9.4018,9.67799 L7.98759,11.0922 C8.37811,11.4827 9.01128,11.4827 9.4018,11.0922 C9.79233,10.7017 9.79233,10.0685 9.4018,9.67799 L9.4018,9.67799 Z M12.9749,8.26775 L14.7426,10.0355 L14.0355,10.7426 L12.2678,8.97485 L12.9749,8.26775 Z M16,5.99998 L16,6.99998 L13.5,6.99998 L13.5,5.99998 L16,5.99998 Z M14.0355,2.25734 L14.7426,2.96445 L12.9749,4.73221 L12.2678,4.02511 L14.0355,2.25734 Z" id="shape" fill="#242424"></path>
    </g>
</svg>