<?xml version="1.0" encoding="UTF-8"?>
<svg width="16" height="16" viewBox="0 0 16 16" version="1.1" xmlns="http://www.w3.org/2000/svg" xmlns:xlink="http://www.w3.org/1999/xlink">
    <title>icon/light/paint</title>
    <g id="icon/light/paint" stroke="none" stroke-width="1" fill="none" fill-rule="evenodd">
        <path d="M7.58219,12.5858 L6.76921,11.7728 L4.06731,14.4709 C3.36527,15.1719 2.22796,15.1715 1.52642,14.47 C0.824875,13.7685 0.824477,12.6311 1.52553,11.9291 L4.22363,9.22722 L3.41062,8.41421 C2.62957,7.63316 2.62957,6.36684 3.41062,5.58579 L7.9964,1 L14.9964,8 L10.4106,12.5858 C9.62957,13.3668 8.36324,13.3668 7.58219,12.5858 Z M5.55705,4.85357 L7.9964,2.41421 L9.43573,3.85354 L8.14282,5.14645 L8.84993,5.85355 L10.1428,4.56065 L11.4357,5.85354 L10.1428,7.14645 L10.8499,7.85355 L12.1428,6.56065 L13.5822,8 L11.1428,10.4394 L5.55705,4.85357 Z M4.84994,5.56067 L10.4357,11.1465 L9.70351,11.8787 C9.31299,12.2692 8.67982,12.2692 8.2893,11.8787 L6.76971,10.3591 L3.3607,13.7633 C3.04926,14.0743 2.54474,14.0741 2.23353,13.7629 C1.92231,13.4517 1.92214,12.9472 2.23313,12.6357 L5.63734,9.22673 L4.11772,7.70711 C3.7272,7.31658 3.7272,6.68342 4.11772,6.29289 L4.84994,5.56067 Z" id="shape" fill="#242424"></path>
    </g>
</svg>