<?xml version="1.0" encoding="UTF-8"?>
<svg width="16" height="16" viewBox="0 0 16 16" version="1.1" xmlns="http://www.w3.org/2000/svg" xmlns:xlink="http://www.w3.org/1999/xlink">
    <title>icon/light/phone-hangup</title>
    <g id="icon/light/phone-hangup" stroke="none" stroke-width="1" fill="none" fill-rule="evenodd">
        <path d="M15,10.6 L15,8.3735 C15,7.45917 14.5989,6.72787 13.9588,6.40044 C12.6998,5.75644 10.656,5 8,5 C5.344,5 3.3002,5.75644 2.04122,6.40044 C1.40114,6.72787 1,7.45917 1,8.3735 L1,10.6 C1,10.8209 1.17909,11 1.4,11 L3.5,11 C4.05228,11 4.5,10.5523 4.5,10 L4.5,8.91421 C4.5,8.40133 4.73302,7.67212 5.49189,7.37112 C5.98988,7.17361 6.77362,7 8,7 C9.22638,7 10.0101,7.17361 10.5081,7.37112 C11.267,7.67212 11.5,8.40133 11.5,8.91421 L11.5,10 C11.5,10.5523 11.9477,11 12.5,11 L14.6,11 C14.8209,11 15,10.8209 15,10.6 Z M16,8.3735 L16,10.6 C16,11.3732 15.3732,12 14.6,12 L12.5,12 C11.3954,12 10.5,11.1046 10.5,10 L10.5,8.91421 C10.5,8.649 10.3859,8.39846 10.1394,8.30067 C9.78803,8.1613 9.13597,8 8,8 C6.86403,8 6.21197,8.1613 5.86059,8.30067 C5.61405,8.39846 5.5,8.649 5.5,8.91421 L5.5,10 C5.5,11.1046 4.60457,12 3.5,12 L1.4,12 C0.626801,12 0,11.3732 0,10.6 L0,8.3735 C0,7.18638 0.528943,6.05078 1.58581,5.51016 C2.95111,4.81177 5.15085,4 8,4 C10.8491,4 13.0489,4.81177 14.4142,5.51016 C15.4711,6.05078 16,7.18638 16,8.3735 Z" id="shape" fill="#242424"></path>
    </g>
</svg>