<?xml version="1.0" encoding="UTF-8"?>
<svg width="16" height="16" viewBox="0 0 16 16" version="1.1" xmlns="http://www.w3.org/2000/svg" xmlns:xlink="http://www.w3.org/1999/xlink">
    <title>icon/light/phone-classic</title>
    <g id="icon/light/phone-classic" stroke="none" stroke-width="1" fill="none" fill-rule="evenodd">
        <path d="M6.85135,1.03298 L4.80643,1.91366 C3.96667,2.27532 3.45368,2.93301 3.40614,3.6504 C3.31263,5.06143 3.42631,7.23777 4.47687,9.67716 C5.52744,12.1165 7.03061,13.6945 8.12007,14.596 C8.67397,15.0544 9.50431,15.1336 10.3441,14.7719 L12.389,13.8912 C12.5919,13.8038 12.6855,13.5685 12.5982,13.3656 L11.7675,11.4369 C11.5491,10.9296 10.9608,10.6955 10.4535,10.914 L9.45628,11.3435 C8.98522,11.5463 8.22331,11.6208 7.64669,11.0428 C7.26831,10.6636 6.79885,10.0124 6.31377,8.88607 C5.82868,7.7597 5.67812,6.97121 5.66255,6.43571 C5.63883,5.61966 6.2164,5.11722 6.68746,4.91435 L7.6847,4.48487 C8.19194,4.26642 8.42605,3.67812 8.2076,3.17088 L7.37695,1.24214 C7.28957,1.03924 7.05425,0.945598 6.85135,1.03298 Z M4.41089,0.995215 L6.45581,0.114533 C7.16595,-0.191302 7.98956,0.136453 8.2954,0.846594 L9.12604,2.77533 C9.56295,3.78982 9.09473,4.96641 8.08024,5.40332 L7.083,5.83279 C6.83942,5.9377 6.65442,6.14155 6.66213,6.40665 C6.67311,6.78451 6.78288,7.44719 7.23221,8.49052 C7.68154,9.53385 8.08761,10.0689 8.3546,10.3365 C8.54192,10.5243 8.81714,10.5299 9.06073,10.425 L10.058,9.99555 C11.0725,9.55864 12.249,10.0269 12.686,11.0413 L13.5166,12.9701 C13.8224,13.6802 13.4947,14.5038 12.7845,14.8097 L10.7396,15.6904 C9.64931,16.1599 8.3971,16.1233 7.48253,15.3665 C6.30105,14.3887 4.68539,12.6895 3.55843,10.0727 C2.43146,7.45591 2.30692,5.11448 2.40833,3.58428 C2.48682,2.39976 3.32058,1.46477 4.41089,0.995215 Z" id="shape" fill="#242424"></path>
    </g>
</svg>