<?xml version="1.0" encoding="UTF-8"?>
<svg width="16" height="16" viewBox="0 0 16 16" version="1.1" xmlns="http://www.w3.org/2000/svg" xmlns:xlink="http://www.w3.org/1999/xlink">
    <title>icon/light/phone-cobra</title>
    <g id="icon/light/phone-cobra" stroke="none" stroke-width="1" fill="none" fill-rule="evenodd">
        <path d="M5.5,9.99998 L5.23509,10.0883 C3.60172,10.6327 2.5,12.1613 2.5,13.883 L2.5,15 L12.5,15 L12.5,13.883 C12.5,12.1613 11.3983,10.6327 9.76491,10.0883 L9.5,9.99998 C9.5,8.85847 9.5,8.12235 9.85258,7.17461 C10.0783,6.56793 10.7227,6.24875 11.3658,6.32295 C12.218,6.42128 12.9922,5.81966 13.1075,4.96957 L13.4919,2.13353 C13.5812,1.47522 13.0153,0.914537 12.3578,1.0095 C8.4221,1.57793 5.5,4.95102 5.5,8.92754 L5.5,9.99998 Z M11.5,14 L11.5,13.883 C11.5,12.5917 10.6737,11.4453 9.44868,11.037 L8.5,10.7207 L8.5,9.99998 C8.5,9.97947 8.5,9.95904 8.5,9.93868 C8.49985,8.8376 8.49974,7.94307 8.91533,6.82594 C9.33158,5.70707 10.4718,5.21316 11.4804,5.32954 C11.7917,5.36546 12.0744,5.14572 12.1165,4.83523 L12.5556,2.16947 C12.5776,2.03602 12.4633,1.91977 12.3304,1.94441 C9.01841,2.55791 6.5,5.53966 6.5,8.92754 L6.5,10.7207 L5.55132,11.037 C4.32629,11.4453 3.5,12.5917 3.5,13.883 L3.5,14 L11.5,14 Z" id="shape" fill="#242424"></path>
    </g>
</svg>