<?xml version="1.0" encoding="UTF-8"?>
<svg width="16" height="16" viewBox="0 0 16 16" version="1.1" xmlns="http://www.w3.org/2000/svg" xmlns:xlink="http://www.w3.org/1999/xlink">
    <title>icon/light/pin</title>
    <g id="icon/light/pin" stroke="none" stroke-width="1" fill="none" fill-rule="evenodd">
        <path d="M8.99105,14.0815 C9.23321,13.8393 9.44534,13.5785 9.62743,13.3036 C10.4294,12.0932 10.6489,10.6106 10.2858,9.25117 L15.0015,4.53553 L11.4659,1 L6.75029,5.71563 C5.39088,5.3526 3.90827,5.57206 2.69781,6.37402 C2.42296,6.55612 2.16214,6.76825 1.91998,7.01041 L5.10124,10.1917 L1,14.2929 L1.70712,15 L5.80835,10.8988 L8.99105,14.0815 Z M6.49228,6.68177 L7.04955,6.83059 L11.4659,2.41421 L13.5872,4.53553 L9.17087,8.95191 L9.31968,9.50917 C9.59348,10.5344 9.45352,11.6446 8.90199,12.5782 L3.42326,7.09947 C4.35687,6.54793 5.46701,6.40798 6.49228,6.68177 Z" id="shape" fill="#242424"></path>
    </g>
</svg>