<svg xmlns="http://www.w3.org/2000/svg" viewBox="0 0 16 16"><defs><style>.cls-1{fill:none;}.cls-2{fill:#242424;}</style></defs><g id="Layer_2" data-name="Layer 2"><g id="Icons_Labels" data-name="Icons – Labels"><rect id="Rectangle_1092" data-name="Rectangle 1092" class="cls-1" width="16" height="16"/><path id="Path_5635" data-name="Path 5635" class="cls-2" d="M12.13,11.88,1,7.85V1.13l1.81.66L4,4.33l2,.72.43-4L9.18,2,10.63,6.7l3,1.13a2.13,2.13,0,0,1,1.19,1.11,2.17,2.17,0,0,1-2.68,2.94ZM2,7.12,12.46,11a1.19,1.19,0,0,0,1.48-.76,1.17,1.17,0,0,0-.67-1.44L9.82,7.46,8.37,2.73l-1-.37L6.89,6.42l-3.6-1.3L2.09,2.58,2,2.55Z"/><rect id="Rectangle_1177" data-name="Rectangle 1177" class="cls-2" x="1" y="14" width="14" height="1"/></g></g></svg>