<svg xmlns="http://www.w3.org/2000/svg" viewBox="0 0 16 16"><defs><style>.cls-1{fill:none;}.cls-2{fill:#242424;}</style></defs><g id="Layer_2" data-name="Layer 2"><g id="Icons_Labels" data-name="Icons – Labels"><rect id="Rectangle_1092" data-name="Rectangle 1092" class="cls-1" width="16" height="16"/><g id="Group_5500" data-name="Group 5500"><path id="Path_5635-2" data-name="Path 5635-2" class="cls-2" d="M5.49,11.89,0,7.76l1.72-1,2.82.7,1.23-.74L2.36,4,5,2.45l4.81,1.6,3.07-1.76a2.19,2.19,0,0,1,1.66-.22,2,2,0,0,1,1.43,2.59A2.2,2.2,0,0,1,15,6h0Zm-3.65-4,3.71,2.79,8.86-5.48a1.15,1.15,0,0,0,.52-1.58,1.2,1.2,0,0,0-1.59-.39l-3.45,2L5.08,3.58l-.91.55L7.59,6.8,4.7,8.52l-2.82-.7Z"/><rect id="Rectangle_1178" data-name="Rectangle 1178" class="cls-2" x="1" y="14" width="14" height="1"/></g></g></g></svg>