<svg xmlns="http://www.w3.org/2000/svg" viewBox="0 0 16 16"><defs><style>.cls-1{fill:none;}.cls-2{fill:#242424;}</style></defs><g id="Layer_2" data-name="Layer 2"><g id="Icons_Labels" data-name="Icons – Labels"><rect id="Rectangle_1221" data-name="Rectangle 1221" class="cls-1" width="16" height="16"/><path class="cls-2" d="M10.72,2.26,8.85,2,8,.16,7.15,2l-1.87.29L6.63,3.64l-.32,2L8,4.68l1.69.94-.33-2Zm-3.84.53.79-.12L8,2l.32.69.8.12-.58.59.13.79L8,3.8l-.67.37.13-.79Z"/><path class="cls-2" d="M10.5,8.29V6h-5V9.76h-4V15h13V8.29ZM2.5,14V10.76h3V14Zm7,0h-3V9.76h0V7h3v7Zm4,0h-3V9.29h3Z"/></g></g></svg>