<?xml version="1.0" encoding="UTF-8"?>
<svg width="16" height="16" viewBox="0 0 16 16" version="1.1" xmlns="http://www.w3.org/2000/svg" xmlns:xlink="http://www.w3.org/1999/xlink">
    <title>icon/light/position</title>
    <g id="icon/light/position" stroke="none" stroke-width="1" fill="none" fill-rule="evenodd">
        <path d="M12.3414,3.13316 C13.8862,5.12846 13.8862,7.92247 12.3414,9.91777 L7.9999975,15.5000006 L3.65856,9.91777 C2.11381,7.92247 2.11381,5.12846 3.65856,3.13316 C5.86053,0.288947 10.1395,0.288948 12.3414,3.13316 Z M11.5557,3.7471 C9.75227,1.41763 6.24773,1.41763 4.44428,3.7471 C3.1791,5.38129 3.1791,7.66964 4.44428,9.30383 L4.44428,9.30383 L8,13.8966 L11.5557,9.30383 C12.8209,7.66964 12.8209,5.38129 11.5557,3.7471 Z M8,4.02547 C9.38071,4.02547 10.5,5.14475 10.5,6.52547 C10.5,7.90618 9.38071,9.02547 8,9.02547 C6.61929,9.02547 5.5,7.90618 5.5,6.52547 C5.5,5.14475 6.61929,4.02547 8,4.02547 Z M8,5.02547 C7.17157,5.02547 6.5,5.69704 6.5,6.52547 C6.5,7.35389 7.17157,8.02547 8,8.02547 C8.82843,8.02547 9.5,7.35389 9.5,6.52547 C9.5,5.69704 8.82843,5.02547 8,5.02547 Z" id="shape" fill="#242424"></path>
    </g>
</svg>