<?xml version="1.0" encoding="UTF-8"?>
<svg width="16" height="16" viewBox="0 0 16 16" version="1.1" xmlns="http://www.w3.org/2000/svg" xmlns:xlink="http://www.w3.org/1999/xlink">
    <title>icon/light/print</title>
    <g id="icon/light/print" stroke="none" stroke-width="1" fill="none" fill-rule="evenodd">
        <path d="M12,2 L12,4 L15,4 L15,12 L12,12 L12,14 L4,14 L4,12 L1,12 L1,4 L4,4 L4,2 L12,2 Z M11,9 L5,9 L5,13 L11,13 L11,9 Z M14,5 L2,5 L2,11 L4,11 L4,8 L12,8 L12,11 L14,11 L14,5 Z M4,6 L4,7 L3,7 L3,6 L4,6 Z M11,3 L5,3 L5,4 L11,4 L11,3 Z" id="shape" fill="#242424"></path>
    </g>
</svg>