<?xml version="1.0" encoding="UTF-8"?>
<svg width="16" height="16" viewBox="0 0 16 16" version="1.1" xmlns="http://www.w3.org/2000/svg" xmlns:xlink="http://www.w3.org/1999/xlink">
    <title>icon/light/profile</title>
    <g id="icon/light/profile" stroke="none" stroke-width="1" fill="none" fill-rule="evenodd">
        <path d="M8,1 C11.866,1 15,4.13401 15,8 C15,11.866 11.866,15 8,15 C4.13401,15 1,11.866 1,8 C1,4.13401 4.13401,1 8,1 Z M9.5,11.5 L6.5,11.5 C5.67157,11.5 5,12.1716 5,13 L5,13.1973 C5.88252,13.7078 6.90714,14 8,14 C9.09286,14 10.1175,13.7078 11,13.1973 L11,13 C11,12.1716 10.3284,11.5 9.5,11.5 Z M8,2 C4.68629,2 2,4.68629 2,8 C2,9.79967 2.79234,11.4143 4.04721,12.514 C4.27339,11.3659 5.28557,10.5 6.5,10.5 L9.5,10.5 C10.7144,10.5 11.7266,11.3659 11.9528,12.514 C13.2077,11.4143 14,9.79967 14,8 C14,4.68629 11.3137,2 8,2 Z M8,3.5 C9.38071,3.5 10.5,4.61929 10.5,6 L10.5,6 L10.5,7 C10.5,8.38071 9.38071,9.5 8,9.5 C6.61929,9.5 5.5,8.38071 5.5,7 L5.5,7 L5.5,6 C5.5,4.61929 6.61929,3.5 8,3.5 Z M8,4.5 C7.17157,4.5 6.5,5.17157 6.5,6 L6.5,7 C6.5,7.82843 7.17157,8.5 8,8.5 C8.82843,8.5 9.5,7.82843 9.5,7 L9.5,6 C9.5,5.17157 8.82843,4.5 8,4.5 Z" id="shape" fill="#242424"></path>
    </g>
</svg>