<?xml version="1.0" encoding="UTF-8"?>
<svg width="16" height="16" viewBox="0 0 16 16" version="1.1" xmlns="http://www.w3.org/2000/svg" xmlns:xlink="http://www.w3.org/1999/xlink">
    <title>icon/light/reload</title>
    <g id="icon/light/reload" stroke="none" stroke-width="1" fill="none" fill-rule="evenodd">
        <path d="M14.5,2.63 L14.5,3.63 L12.8118,3.63 C13.8603,4.78391 14.5,6.31733 14.5,8 C14.5,11.5899 11.5899,14.5 8,14.5 C7.43966,14.5 6.89517,14.429 6.37537,14.2952 L6.62463,13.3268 C7.06369,13.4398 7.52444,13.5 8,13.5 C11.0376,13.5 13.5,11.0376 13.5,8 C13.5,6.53861 12.9304,5.21043 12,4.22502 L12,6.13 L11,6.13 L11,2.63 L14.5,2.63 Z M8,1.5 C8.56034,1.5 9.10483,1.57102 9.62463,1.70481 L9.37537,2.67324 C8.93631,2.56024 8.47556,2.5 8,2.5 C4.96243,2.5 2.5,4.96243 2.5,8 C2.5,9.46142 3.06957,10.7896 4,11.775 L4,9.87 L5,9.87 L5,13.37 L1.5,13.37 L1.5,12.37 L3.18821,12.37 C2.13975,11.2161 1.5,9.68264 1.5,8 C1.5,4.41015 4.41015,1.5 8,1.5 Z" id="shape" fill="#242424"></path>
    </g>
</svg>