<?xml version="1.0" encoding="UTF-8"?>
<svg width="16" height="16" viewBox="0 0 16 16" version="1.1" xmlns="http://www.w3.org/2000/svg" xmlns:xlink="http://www.w3.org/1999/xlink">
    <title>icon/light/reset-password</title>
    <g id="icon/light/reset-password" stroke="none" stroke-width="1" fill="none" fill-rule="evenodd">
        <path d="M4.39802,1.9967 L4.91252,2.8542 C4.86444,2.88311 4.81679,2.91269 4.76959,2.9429 C3.10293,4.00995 2,5.87633 2,7.99999 C2,11.3137 4.68629,14 8,14 C11.3137,14 14,11.3137 14,7.99999 C14,6.22338 13.2281,4.62684 12,3.52772 L12,3.52772 L12,5 L11,5 L11,2 L14,2 L14,3 L12.8989,3 C14.195,4.27012 15,6.04095 15,7.99999 C15,11.866 11.866,15 8,15 C4.13401,15 1,11.866 1,7.99999 C1,5.52124 2.28876,3.34381 4.23041,2.10072 C4.28575,2.06529 4.34163,2.03061 4.39802,1.9967 L4.39802,1.9967 Z M8,3.5 C9.10457,3.5 10,4.39543 10,5.5 L10,5.5 L10,6 L11.5,6 L11.5,11.5 L4.5,11.5 L4.5,6 L6,6 L6,5.5 C6,4.39543 6.89543,3.5 8,3.5 Z M10.5,7 L5.5,7 L5.5,10.5 L10.5,10.5 L10.5,7 Z M8.5,8 L8.5,9.5 L7.5,9.5 L7.5,8 L8.5,8 Z M8,4.5 C7.44772,4.5 7,4.94772 7,5.5 L7,5.5 L7,6 L9,6 L9,5.5 C9,4.94772 8.55228,4.5 8,4.5 Z" id="shape" fill="#242424"></path>
    </g>
</svg>