<?xml version="1.0" encoding="UTF-8"?>
<svg width="16" height="16" viewBox="0 0 16 16" version="1.1" xmlns="http://www.w3.org/2000/svg" xmlns:xlink="http://www.w3.org/1999/xlink">
    <title>icon/light/restore</title>
    <g id="icon/light/restore" stroke="none" stroke-width="1" fill="none" fill-rule="evenodd">
        <path d="M9,2 C12.3137,2 15,4.68629 15,8 C15,11.3137 12.3137,14 9,14 L9,14 L9,13 C11.7614,13 14,10.7614 14,8 C14,5.23858 11.7614,3 9,3 C6.23858,3 4,5.23858 4,8 L4,8 L4,12.09 L5.2911,10.7989 L6,11.5 L6,11.5042 L3.50001,14.0042 L1,11.5042 L1,11.5 L1.70711,10.7971 L3,12.09 L3,8 C3,4.68629 5.68629,2 9,2 Z M9,5.5 C10.3807,5.5 11.5,6.61929 11.5,8 C11.5,9.38071 10.3807,10.5 9,10.5 C7.61929,10.5 6.5,9.38071 6.5,8 C6.5,6.61929 7.61929,5.5 9,5.5 Z M9,6.5 C8.17157,6.5 7.5,7.17157 7.5,8 C7.5,8.82843 8.17157,9.5 9,9.5 C9.82843,9.5 10.5,8.82843 10.5,8 C10.5,7.17157 9.82843,6.5 9,6.5 Z" id="shape" fill="#242424"></path>
    </g>
</svg>