<?xml version="1.0" encoding="UTF-8"?>
<svg width="16" height="16" viewBox="0 0 16 16" version="1.1" xmlns="http://www.w3.org/2000/svg" xmlns:xlink="http://www.w3.org/1999/xlink">
    <title>icon/light/routing</title>
    <g id="icon/light/routing" stroke="none" stroke-width="1" fill="none" fill-rule="evenodd">
        <path d="M13,5 C14.1046,5 15,4.10457 15,3 C15,1.89543 14.1046,1 13,1 C11.8954,1 11,1.89543 11,3 C11,3.3709 11.101,3.71823 11.2769,4.01598 L7.79289,7.5 L6.43699,7.5 C6.21497,6.63739 5.43192,6 4.5,6 C3.56808,6 2.78503,6.63739 2.56301,7.5 L1,7.5 L1,8.5 L2.56301,8.5 C2.78503,9.36261 3.56808,10 4.5,10 C5.43192,10 6.21497,9.36261 6.43699,8.5 L7.79289,8.5 L11.2769,11.984 C11.101,12.2818 11,12.6291 11,13 C11,14.1046 11.8954,15 13,15 C14.1046,15 15,14.1046 15,13 C15,11.8954 14.1046,11 13,11 C12.6291,11 12.2818,11.101 11.984,11.2769 L9.20711,8.5 L11.063,8.5 C11.285,9.36261 12.0681,10 13,10 C14.1046,10 15,9.10457 15,8 C15,6.89543 14.1046,6 13,6 C12.0681,6 11.285,6.63739 11.063,7.5 L9.20711,7.5 L11.984,4.72309 C12.2818,4.89904 12.6291,5 13,5 Z M13,4 C13.5523,4 14,3.55228 14,3 C14,2.44772 13.5523,2 13,2 C12.4477,2 12,2.44772 12,3 C12,3.55228 12.4477,4 13,4 Z M12,8 C12,8.55228 12.4477,9 13,9 C13.5523,9 14,8.55228 14,8 C14,7.44772 13.5523,7 13,7 C12.4477,7 12,7.44772 12,8 Z M5.5,8 C5.5,7.44772 5.05228,7 4.5,7 C3.94772,7 3.5,7.44772 3.5,8 C3.5,8.55228 3.94772,9 4.5,9 C5.05228,9 5.5,8.55228 5.5,8 Z M14,13 C14,13.5523 13.5523,14 13,14 C12.4477,14 12,13.5523 12,13 C12,12.4477 12.4477,12 13,12 C13.5523,12 14,12.4477 14,13 Z" id="shape" fill="#242424"></path>
    </g>
</svg>