<?xml version="1.0" encoding="UTF-8"?>
<svg width="16" height="16" viewBox="0 0 16 16" version="1.1" xmlns="http://www.w3.org/2000/svg" xmlns:xlink="http://www.w3.org/1999/xlink">
    <title>icon/light/rss</title>
    <g id="icon/light/rss" stroke="none" stroke-width="1" fill="none" fill-rule="evenodd">
        <path d="M2.5,2 C8.85127,2 14,7.14873 14,13.5 C14,13.6675 13.9964,13.8342 13.9893,14 L13.9893,14 L11.9871,14 C11.9957,13.8344 12,13.6677 12,13.5 C12,8.25329 7.74671,4 2.5,4 C2.33228,4 2.16558,4.00435 2,4.01293 L2,4.01293 L2,2.01067 C2.16578,2.00358 2.33247,2 2.5,2 Z M3.25,11.5 C3.94036,11.5 4.5,12.0596 4.5,12.75 C4.5,13.4404 3.94036,14 3.25,14 C2.55964,14 2,13.4404 2,12.75 C2,12.0596 2.55964,11.5 3.25,11.5 Z M2,6.5 C6.14214,6.5 9.5,9.85786 9.5,14 L7.5,14 C7.5,10.9624 5.03757,8.5 2,8.5 L2,6.5 Z" id="shape" fill="#242424"></path>
    </g>
</svg>