<?xml version="1.0" encoding="UTF-8"?>
<svg width="16" height="16" viewBox="0 0 16 16" version="1.1" xmlns="http://www.w3.org/2000/svg" xmlns:xlink="http://www.w3.org/1999/xlink">
    <title>icon/light/satellite-gateway</title>
    <g id="icon/light/satellite-gateway" stroke="none" stroke-width="1" fill="none" fill-rule="evenodd">
        <path d="M4.32057,1.5 L13.4994,10.6789 C13.2493,10.9033 12.9817,11.1086 12.6989,11.2925 C11.6806,11.9547 10.4652,12.3394 9.16,12.3394 C8.92292,12.3394 8.6888,12.3267 8.45828,12.302 L8.45828,12.302 L10,15 L2,15 L4.59213,10.4638 C3.38331,9.28344 2.66,7.6624 2.66,5.83943 C2.66,4.53422 3.04471,3.31886 3.70691,2.30055 C3.89082,2.01774 4.09614,1.75012 4.32057,1.5 L4.32057,1.5 Z M5.36892,11.12 L3.72318,14 L8.27682,14 L7.14623,12.0215 C6.47341,11.8122 5.92833,11.5223 5.36892,11.12 Z M4.43267,3.02631 C3.94166,3.84932 3.66,4.81085 3.66,5.83943 C3.66,8.877 6.12244,11.3394 9.16,11.3394 C10.1886,11.3394 11.1501,11.0578 11.9731,10.5668 L4.43267,3.02631 Z M9,3.5 C10.3807,3.5 11.5,4.61929 11.5,6 L11.5,6 L10.5,6 C10.5,5.17157 9.82843,4.5 9,4.5 L9,4.5 Z M9,1 C11.7614,1 14,3.23858 14,6 L14,6 L13,6 C13,3.79086 11.2091,2 9,2 L9,2 Z" id="shape" fill="#242424"></path>
    </g>
</svg>