<?xml version="1.0" encoding="UTF-8"?>
<svg width="16" height="16" viewBox="0 0 16 16" version="1.1" xmlns="http://www.w3.org/2000/svg" xmlns:xlink="http://www.w3.org/1999/xlink">
    <title>icon/light/satellite</title>
    <g id="icon/light/satellite" stroke="none" stroke-width="1" fill="none" fill-rule="evenodd">
        <path d="M1,4 L4,1 L7.5,4.5 L6.35354,5.64646 L7.10354,6.39646 L12.5,1 L15,3.5 L9.60354,8.89646 L10.3535,9.64646 L11.5,8.5 L15,12 L12,15 L8.5,11.5 L9.64643,10.3536 L8.89643,9.60357 L7,11.5 L6.10355,10.6035 L5.64538,11.0617 C5.99461,11.5521 6.20001,12.1521 6.20001,12.8 C6.20001,13.3057 6.0749,13.7821 5.85394,14.2001 C5.73074,14.4331 5.57774,14.648 5.40002,14.8396 C5.34859,14.8951 5.29508,14.9486 5.23963,15 L1,10.7604 C1.05144,10.7049 1.10494,10.6514 1.1604,10.6 C1.352,10.4223 1.56686,10.2693 1.7999,10.1461 C2.21787,9.9251 2.69433,9.79999 3.20001,9.79999 C3.84792,9.79999 4.44786,10.0054 4.93827,10.3546 L5.39644,9.89644 L4.5,9 L6.39643,7.10357 L5.64643,6.35357 L4.5,7.5 L1,4 Z M2.41421,4 L4.5,6.08579 L6.08579,4.5 L4,2.41421 L2.41421,4 Z M9.91421,11.5 L12,13.5858 L13.5858,12 L11.5,9.91421 L9.91421,11.5 Z M7,10.0858 L5.91421,9 L12.5,2.41421 L13.5858,3.5 L7,10.0858 Z M5.0952,13.4414 C5.16323,13.2401 5.20001,13.0244 5.20001,12.8 C5.20001,11.6954 4.30458,10.8 3.20001,10.8 C2.97556,10.8 2.75992,10.8368 2.55864,10.9048 L5.0952,13.4414 Z" id="shape" fill="#242424"></path>
    </g>
</svg>