<?xml version="1.0" encoding="UTF-8"?>
<svg width="16" height="16" viewBox="0 0 16 16" version="1.1" xmlns="http://www.w3.org/2000/svg" xmlns:xlink="http://www.w3.org/1999/xlink">
    <title>icon/light/save</title>
    <g id="icon/light/save" stroke="none" stroke-width="1" fill="none" fill-rule="evenodd">
        <path d="M12,2 L14,4 L14,14 L2,14 L2,2 L12,2 Z M5,3 L3,3 L3,13 L4,13 L4,9 L12,9 L12,13 L13,13 L13,4.41421 L11.5858,3 L11,3 L11,7 L5,7 L5,3 Z M11,10 L5,10 L5,13 L11,13 L11,10 Z M10,3 L6,3 L6,6 L10,6 L10,3 Z M9,4 L9,5 L8,5 L8,4 L9,4 Z" id="shape" fill="#242424"></path>
    </g>
</svg>