<?xml version="1.0" encoding="UTF-8"?>
<svg width="16" height="16" viewBox="0 0 16 16" version="1.1" xmlns="http://www.w3.org/2000/svg" xmlns:xlink="http://www.w3.org/1999/xlink">
    <title>icon/light/scan-qr-code</title>
    <g id="icon/light/scan-qr-code" stroke="none" stroke-width="1" fill="none" fill-rule="evenodd">
        <path d="M1,13 L1,15 L3,15 L3,16 L0,16 L0,13 L1,13 Z M16,13 L16,16 L13,16 L13,15 L15,15 L15,13 L16,13 Z M7.5,8.5 L7.5,14 L2,14 L2,8.5 L7.5,8.5 Z M9.5,8.5 L9.5,10.5 L10,10.5 L10,9.5 L10.5,9.5 L10.5,8.5 L12.5,8.5 L12.5,9.5 L11,9.5 L11,11 L10.5,11 L10.5,12 L12.5,12 L12.5,11 L13,11 L13,8.5 L14,8.5 L14,11 L13.5,11 L13.5,12 L14,12 L14,14 L13,14 L13,13 L11.5,13 L11.5,14 L8.5,14 L8.5,13 L9.5,13 L9.5,11.5 L8.5,11.5 L8.5,8.5 L9.5,8.5 Z M6.5,9.5 L3,9.5 L3,13 L6.5,13 L6.5,9.5 Z M5.5,10.5 L5.5,12 L4,12 L4,10.5 L5.5,10.5 Z M12.5,10 L12.5,11 L11.5,11 L11.5,10 L12.5,10 Z M7.5,2 L7.5,7.5 L2,7.5 L2,2 L7.5,2 Z M14,2 L14,7.5 L8.5,7.5 L8.5,2 L14,2 Z M6.5,3 L3,3 L3,6.5 L6.5,6.5 L6.5,3 Z M13,3 L9.5,3 L9.5,6.5 L13,6.5 L13,3 Z M5.5,4 L5.5,5.5 L4,5.5 L4,4 L5.5,4 Z M12,4 L12,5.5 L10.5,5.5 L10.5,4 L12,4 Z M3,0 L3,1 L1,1 L1,3 L0,3 L0,0 L3,0 Z M16,0 L16,3 L15,3 L15,1 L13,1 L13,0 L16,0 Z" id="shape" fill="#242424"></path>
    </g>
</svg>