<?xml version="1.0" encoding="UTF-8"?>
<svg width="16" height="16" viewBox="0 0 16 16" version="1.1" xmlns="http://www.w3.org/2000/svg" xmlns:xlink="http://www.w3.org/1999/xlink">
    <title>icon/light/scan-bar-code</title>
    <g id="icon/light/scan-bar-code" stroke="none" stroke-width="1" fill="none" fill-rule="evenodd">
        <path d="M0,9 L0,8 L16,8 L16,9 L15,9 L15,13 L14,13 L14,9 L13,9 L13,13 L11,13 L11,9 L10,9 L10,13 L9,13 L9,9 L8,9 L8,13 L6,13 L6,9 L5,9 L5,13 L4,13 L4,9 L3,9 L3,13 L1,13 L1,9 L0,9 Z M3,3 L1,3 L1,7 L3,7 L3,3 Z M5,3 L4,3 L4,7 L5,7 L5,3 Z M8,3 L6,3 L6,7 L8,7 L8,3 Z M10,3 L9,3 L9,7 L10,7 L10,3 Z M13,3 L11,3 L11,7 L13,7 L13,3 Z M15,3 L14,3 L14,7 L15,7 L15,3 Z" id="shape" fill="#242424"></path>
    </g>
</svg>