<?xml version="1.0" encoding="UTF-8"?>
<svg width="16" height="16" viewBox="0 0 16 16" version="1.1" xmlns="http://www.w3.org/2000/svg" xmlns:xlink="http://www.w3.org/1999/xlink">
    <title>icon/light/scan</title>
    <g id="icon/light/scan" stroke="none" stroke-width="1" fill="none" fill-rule="evenodd">
        <path d="M8,1 C11.866,1 15,4.13401 15,8 C15,11.866 11.866,15 8,15 C4.13401,15 1,11.866 1,8 C1,6.60989 1.40521,5.31442 2.10395,4.22526 L2.10395,4.22526 L2.83073,4.95204 C2.3029,5.84531 2,6.88729 2,8 C2,11.3137 4.68629,14 8,14 C11.3137,14 14,11.3137 14,8 C14,4.68629 11.3137,2 8,2 C6.88729,2 5.84532,2.30289 4.95205,2.83073 L4.95205,2.83073 L4.22527,2.10394 C5.31443,1.4052 6.60989,1 8,1 Z M8,3.5 C10.4853,3.5 12.5,5.51472 12.5,8 C12.5,10.4853 10.4853,12.5 8,12.5 C5.51472,12.5 3.5,10.4853 3.5,8 C3.5,7.30528 3.65743,6.64733 3.93856,6.05987 L4.70253,6.82384 C4.5714,7.19143 4.5,7.58738 4.5,8 C4.5,9.933 6.067,11.5 8,11.5 C9.933,11.5 11.5,9.933 11.5,8 C11.5,6.067 9.933,4.5 8,4.5 C7.58738,4.5 7.19144,4.5714 6.82385,4.70252 L6.05988,3.93855 C6.64733,3.65743 7.30528,3.5 8,3.5 Z M3.35355,2.64645 L6.98401,6.27691 C7.28177,6.10097 7.62909,6 8,6 C9.10457,6 10,6.89543 10,8 C10,9.10457 9.10457,10 8,10 C6.89543,10 6,9.10457 6,8 C6,7.6291 6.10096,7.28178 6.27691,6.98402 L6.27691,6.98402 L2.64645,3.35356 L3.35355,2.64645 Z M8,7 C7.44772,7 7,7.44772 7,8 C7,8.55228 7.44772,9 8,9 C8.55228,9 9,8.55228 9,8 C9,7.44772 8.55228,7 8,7 Z" id="shape" fill="#242424"></path>
    </g>
</svg>