<?xml version="1.0" encoding="UTF-8"?>
<svg width="16" height="16" viewBox="0 0 16 16" version="1.1" xmlns="http://www.w3.org/2000/svg" xmlns:xlink="http://www.w3.org/1999/xlink">
    <title>icon/light/settings</title>
    <g id="icon/light/settings" stroke="none" stroke-width="1" fill="none" fill-rule="evenodd">
        <path d="M9.8,1 L9.8,2.8013 C10.0069,2.87293 10.2082,2.95656 10.4031,3.05136 L11.677,1.77747 L14.2226,4.32305 L12.9487,5.59696 C13.0434,5.79181 13.1271,5.9931 13.1987,6.2 L15,6.2 L15,9.8 L13.1987,9.8 C13.1271,10.0069 13.0434,10.2082 12.9486,10.4031 L14.2225,11.677 L11.6769,14.2225 L10.4031,12.9486 C10.2082,13.0434 10.0069,13.1271 9.8,13.1987 L9.8,15 L6.2,15 L6.2,13.1987 C5.9931,13.1271 5.79181,13.0434 5.59696,12.9487 L4.32306,14.2225 L1.77748,11.677 L3.05136,10.4031 C2.95656,10.2082 2.87293,10.0069 2.8013,9.8 L1,9.8 L1,6.2 L2.8013,6.2 C2.87293,5.9931 2.95656,5.7918 3.05135,5.59695 L1.77746,4.32305 L4.32304,1.77746 L5.59694,3.05136 C5.7918,2.95656 5.9931,2.87293 6.2,2.8013 L6.2,1 L9.8,1 Z M8.8,2 L7.2,2 L7.2,3.51334 L6.52714,3.74628 C6.35816,3.80478 6.19369,3.8731 6.03441,3.95059 L6.03441,3.95059 L5.39367,4.26231 L4.32304,3.19167 L3.19167,4.32305 L4.26231,5.39368 L3.95058,6.03442 C3.8731,6.1937 3.80478,6.35816 3.74628,6.52714 L3.74628,6.52714 L3.51334,7.2 L2,7.2 L2,8.8 L3.51334,8.8 L3.74628,9.47286 C3.80478,9.64184 3.8731,9.80631 3.95059,9.96559 L3.95059,9.96559 L4.26232,10.6063 L3.19169,11.677 L4.32306,12.8083 L5.39369,11.7377 L6.03443,12.0494 C6.1937,12.1269 6.35816,12.1952 6.52714,12.2537 L6.52714,12.2537 L7.2,12.4867 L7.2,14 L8.8,14 L8.8,12.4867 L9.47286,12.2537 C9.64184,12.1952 9.8063,12.1269 9.96558,12.0494 L9.96558,12.0494 L10.6063,11.7377 L11.6769,12.8083 L12.8083,11.677 L11.7377,10.6063 L12.0494,9.96559 C12.1269,9.80631 12.1952,9.64184 12.2537,9.47286 L12.2537,9.47286 L12.4867,8.8 L14,8.8 L14,7.2 L12.4867,7.2 L12.2537,6.52714 C12.1952,6.35816 12.1269,6.1937 12.0494,6.03443 L12.0494,6.03443 L11.7377,5.39369 L12.8083,4.32305 L11.677,3.19168 L10.6063,4.26232 L9.96559,3.95059 C9.80631,3.8731 9.64185,3.80478 9.47286,3.74628 L9.47286,3.74628 L8.8,3.51334 L8.8,2 Z M8,5.5 C9.38071,5.5 10.5,6.61929 10.5,8 C10.5,9.38071 9.38071,10.5 8,10.5 C6.61929,10.5 5.5,9.38071 5.5,8 C5.5,6.61929 6.61929,5.5 8,5.5 Z M8,6.5 C7.17157,6.5 6.5,7.17157 6.5,8 C6.5,8.82843 7.17157,9.5 8,9.5 C8.82843,9.5 9.5,8.82843 9.5,8 C9.5,7.17157 8.82843,6.5 8,6.5 Z" id="shape" fill="#242424"></path>
    </g>
</svg>