<?xml version="1.0" encoding="UTF-8"?>
<svg width="16" height="16" viewBox="0 0 16 16" version="1.1" xmlns="http://www.w3.org/2000/svg" xmlns:xlink="http://www.w3.org/1999/xlink">
    <title>icon/light/shapes</title>
    <g id="icon/light/shapes" stroke="none" stroke-width="1" fill="none" fill-rule="evenodd">
        <path d="M7.5,6 C9.70914,6 11.5,7.79086 11.5,10 C11.5,12.2091 9.70914,14 7.5,14 C5.29086,14 3.5,12.2091 3.5,10 C3.5,7.79086 5.29086,6 7.5,6 Z M7.5,7 C5.84315,7 4.5,8.34315 4.5,10 C4.5,11.6569 5.84315,13 7.5,13 C9.15685,13 10.5,11.6569 10.5,10 C10.5,8.34315 9.15685,7 7.5,7 Z M8.5,2.5 L8.5,5 L7.5,5 L7.5,3.5 L1.5,3.5 L1.5,9.5 L2.5,9.5 L2.5,10.5 L0.5,10.5 L0.5,2.5 L8.5,2.5 Z M11.1615,1.5 L15.4986,9.55463 L12.5,9.55463 L12.5,8.55463 L13.8244,8.55463 L11.1615,3.60926 L10.0705,5.63543 L9.19,5.16133 L11.1615,1.5 Z" id="shape" fill="#242424"></path>
    </g>
</svg>