<?xml version="1.0" encoding="UTF-8"?>
<svg width="16" height="16" viewBox="0 0 16 16" version="1.1" xmlns="http://www.w3.org/2000/svg" xmlns:xlink="http://www.w3.org/1999/xlink">
    <title>icon/light/share</title>
    <g id="icon/light/share" stroke="none" stroke-width="1" fill="none" fill-rule="evenodd">
        <path d="M12.5,6 C13.8807,6 15,4.88071 15,3.5 C15,2.11929 13.8807,1 12.5,1 C11.1193,1 10,2.11929 10,3.5 C10,3.7243 10.0295,3.9417 10.0849,4.14852 L5.46739,6.4573 C5.0097,5.87443 4.29857,5.5 3.5,5.5 C2.11929,5.5 1,6.61929 1,8 C1,9.38071 2.11929,10.5 3.5,10.5 C4.29858,10.5 5.0097,10.1256 5.46739,9.5427 L10.0849,11.8515 C10.0295,12.0583 10,12.2757 10,12.5 C10,13.8807 11.1193,15 12.5,15 C13.8807,15 15,13.8807 15,12.5 C15,11.1193 13.8807,10 12.5,10 C11.7014,10 10.9903,10.3744 10.5326,10.9573 L5.91507,8.6485 C5.97046,8.44168 6,8.22429 6,8 C6,7.77571 5.97046,7.55831 5.91507,7.3515 L10.5326,5.04272 C10.9903,5.62558 11.7014,6 12.5,6 Z M12.5,5 C13.3284,5 14,4.32843 14,3.5 C14,2.67157 13.3284,2 12.5,2 C11.6716,2 11,2.67157 11,3.5 C11,4.32843 11.6716,5 12.5,5 Z M3.5,9.5 C4.32843,9.5 5,8.82843 5,8 C5,7.17157 4.32843,6.5 3.5,6.5 C2.67157,6.5 2,7.17157 2,8 C2,8.82843 2.67157,9.5 3.5,9.5 Z M12.5,14 C13.3284,14 14,13.3284 14,12.5 C14,11.6716 13.3284,11 12.5,11 C11.6716,11 11,11.6716 11,12.5 C11,13.3284 11.6716,14 12.5,14 Z" id="shape" fill="#242424"></path>
    </g>
</svg>