<?xml version="1.0" encoding="UTF-8"?>
<svg width="16" height="16" viewBox="0 0 16 16" version="1.1" xmlns="http://www.w3.org/2000/svg" xmlns:xlink="http://www.w3.org/1999/xlink">
    <title>icon/light/shopping-cart</title>
    <g id="icon/light/shopping-cart" stroke="none" stroke-width="1" fill="none" fill-rule="evenodd">
        <path d="M2.54159,2 L1,2 L1,1 L3.45841,1 L3.63232,3 L15,3 L13.8471,10 L4.24102,10 L4.45841,12.5 L5.06301,12.5 C5.28503,11.6374 6.06808,11 7,11 C7.93192,11 8.71497,11.6374 8.93699,12.5 L10.063,12.5 C10.285,11.6374 11.0681,11 12,11 C13.1046,11 14,11.8954 14,13 C14,14.1046 13.1046,15 12,15 C11.0681,15 10.285,14.3626 10.063,13.5 L8.93699,13.5 C8.71497,14.3626 7.93192,15 7,15 C6.06808,15 5.28503,14.3626 5.06301,13.5 L3.54159,13.5 L2.54159,2 Z M4.15406,9 L3.71928,4 L13.8333,4 L13,9 L4.15406,9 Z M7,14 C7.55228,14 8,13.5523 8,13 C8,12.4477 7.55228,12 7,12 C6.44772,12 6,12.4477 6,13 C6,13.5523 6.44772,14 7,14 Z M13,13 C13,13.5523 12.5523,14 12,14 C11.4477,14 11,13.5523 11,13 C11,12.4477 11.4477,12 12,12 C12.5523,12 13,12.4477 13,13 Z" id="shape" fill="#242424"></path>
    </g>
</svg>