<?xml version="1.0" encoding="UTF-8"?>
<svg width="16" height="16" viewBox="0 0 16 16" version="1.1" xmlns="http://www.w3.org/2000/svg" xmlns:xlink="http://www.w3.org/1999/xlink">
    <title>icon/light/sidemenu-right-close</title>
    <g id="icon/light/sidemenu-right-close" stroke="none" stroke-width="1" fill="none" fill-rule="evenodd">
        <path d="M15,2 L15,14 L1,14 L1,2 L15,2 Z M14,3 L10,3 L10,13 L14,13 L14,3 Z M9,3 L2,3 L2,13 L9,13 L9,3 Z M13,10 L13,11 L11,11 L11,10 L13,10 Z M4.70711,5.20996 L7.49711,7.99996 L4.70711,10.79 L4,10.0829 L6.08289,7.99996 L4,5.91707 L4.70711,5.20996 Z M13,7.5 L13,8.5 L11,8.5 L11,7.5 L13,7.5 Z M13,5 L13,6 L11,6 L11,5 L13,5 Z" id="shape" fill="#242424"></path>
    </g>
</svg>