<?xml version="1.0" encoding="UTF-8"?>
<svg width="16" height="16" viewBox="0 0 16 16" version="1.1" xmlns="http://www.w3.org/2000/svg" xmlns:xlink="http://www.w3.org/1999/xlink">
    <title>icon/light/sidemenu-right-open</title>
    <g id="icon/light/sidemenu-right-open" stroke="none" stroke-width="1" fill="none" fill-rule="evenodd">
        <path d="M15,2 L15,14 L1,14 L1,2 L15,2 Z M14,3 L12,3 L12,13 L14,13 L14,11 L13,11 L13,10 L14,10 L14,8.5 L13,8.5 L13,7.5 L14,7.5 L14,6 L13,6 L13,5 L14,5 L14,3 Z M11,3 L2,3 L2,13 L11,13 L11,3 Z M7.29,5.20996 L7.99711,5.91707 L5.91421,7.99996 L7.99711,10.0829 L7.29,10.79 L4.5,7.99996 L7.29,5.20996 Z" id="shape" fill="#242424"></path>
    </g>
</svg>