<?xml version="1.0" encoding="UTF-8"?>
<svg width="16" height="16" viewBox="0 0 16 16" version="1.1" xmlns="http://www.w3.org/2000/svg" xmlns:xlink="http://www.w3.org/1999/xlink">
    <title>icon/light/signal</title>
    <g id="icon/light/signal" stroke="none" stroke-width="1" fill="none" fill-rule="evenodd">
        <path d="M3.05025,3 L3.75736,3.70711 C2.67157,4.79289 2,6.29289 2,7.94975 C2,9.6066 2.67157,11.1066 3.75736,12.1924 L3.75736,12.1924 L3.05025,12.8995 C1.7835,11.6327 1,9.88274 1,7.94975 C1,6.01675 1.7835,4.26675 3.05025,3 L3.05025,3 Z M12.9497,3 C14.2165,4.26675 15,6.01675 15,7.94975 C15,9.88274 14.2165,11.6327 12.9497,12.8995 L12.2426,12.1924 C13.3284,11.1066 14,9.6066 14,7.94975 C14,6.29289 13.3284,4.79289 12.2426,3.70711 L12.9497,3 Z M10.8284,5.12132 C11.5523,5.84518 12,6.84518 12,7.94975 C12,9.05432 11.5523,10.0543 10.8284,10.7782 L10.1213,10.0711 C10.6642,9.52817 11,8.77817 11,7.94975 C11,7.12132 10.6642,6.37132 10.1213,5.82843 L10.8284,5.12132 Z M5.17157,5.12132 L5.87868,5.82843 C5.33579,6.37132 5,7.12132 5,7.94975 C5,8.77817 5.33579,9.52817 5.87868,10.0711 L5.17157,10.7782 C4.44772,10.0543 4,9.05432 4,7.94975 C4,6.84518 4.44772,5.84518 5.17157,5.12132 Z M8,6.94975 C8.55228,6.94975 9,7.39746 9,7.94975 C9,8.50203 8.55228,8.94975 8,8.94975 C7.44772,8.94975 7,8.50203 7,7.94975 C7,7.39746 7.44772,6.94975 8,6.94975 Z" id="shape" fill="#242424"></path>
    </g>
</svg>