<?xml version="1.0" encoding="UTF-8"?>
<svg width="16" height="16" viewBox="0 0 16 16" version="1.1" xmlns="http://www.w3.org/2000/svg" xmlns:xlink="http://www.w3.org/1999/xlink">
    <title>icon/light/simcard</title>
    <g id="icon/light/simcard" stroke="none" stroke-width="1" fill="none" fill-rule="evenodd">
        <path d="M10.5,1 L13.5,4 L13.5,13.5 C13.5,14.3284 12.8284,15 12,15 L4,15 C3.17157,15 2.5,14.3284 2.5,13.5 L2.5,2.5 C2.5,1.67157 3.17157,1 4,1 L10.5,1 Z M10.0858,2 L4,2 C3.72386,2 3.5,2.22386 3.5,2.5 L3.5,2.5 L3.5,13.5 C3.5,13.7761 3.72386,14 4,14 L4,14 L12,14 C12.2761,14 12.5,13.7761 12.5,13.5 L12.5,13.5 L12.5,4.41421 L10.0858,2 Z M10.5,6 C11.0523,6 11.5,6.44772 11.5,7 L11.5,12 C11.5,12.5523 11.0523,13 10.5,13 L5.5,13 C4.94772,13 4.5,12.5523 4.5,12 L4.5,7 C4.5,6.44772 4.94772,6 5.5,6 L10.5,6 Z M6.5,7 L5.5,7 L5.5,12 L6.5,12 L6.5,10 L7.5,10 L7.5,12 L8.5,12 L8.5,10 L9.5,10 L9.5,12 L10.5,12 L10.5,7 L9.5,7 L9.5,9 L8.5,9 L8.5,7 L7.5,7 L7.5,9 L6.5,9 L6.5,7 Z" id="shape" fill="#242424"></path>
    </g>
</svg>