<?xml version="1.0" encoding="UTF-8"?>
<svg width="16" height="16" viewBox="0 0 16 16" version="1.1" xmlns="http://www.w3.org/2000/svg" xmlns:xlink="http://www.w3.org/1999/xlink">
    <title>icon/light/sizes</title>
    <g id="icon/light/sizes" stroke="none" stroke-width="1" fill="none" fill-rule="evenodd">
        <path d="M8,1 C11.866,1 15,4.13401 15,8 C15,11.866 11.866,15 8,15 C4.13401,15 1,11.866 1,8 C1,4.13401 4.13401,1 8,1 Z M8,2 C4.68629,2 2,4.68629 2,8 C2,11.3137 4.68629,14 8,14 C11.3137,14 14,11.3137 14,8 C14,4.68629 11.3137,2 8,2 Z M8.00001,4.4 C10.4301,4.4 12.4,6.36995 12.4,8.8 C12.4,11.2301 10.4301,13.2 8.00001,13.2 C5.56995,13.2 3.60001,11.2301 3.60001,8.8 C3.60001,6.36995 5.56995,4.4 8.00001,4.4 Z M8.00001,5.4 C6.12224,5.4 4.60001,6.92223 4.60001,8.8 C4.60001,10.6778 6.12224,12.2 8.00001,12.2 C9.87777,12.2 11.4,10.6778 11.4,8.8 C11.4,6.92223 9.87777,5.4 8.00001,5.4 Z M8,7.8 C8.99411,7.8 9.8,8.60589 9.8,9.6 C9.8,10.5941 8.99411,11.4 8,11.4 C7.00588,11.4 6.2,10.5941 6.2,9.6 C6.2,8.60589 7.00588,7.8 8,7.8 Z M8,8.8 C7.55817,8.8 7.2,9.15817 7.2,9.6 C7.2,10.0418 7.55817,10.4 8,10.4 C8.44182,10.4 8.8,10.0418 8.8,9.6 C8.8,9.15817 8.44182,8.8 8,8.8 Z" id="shape" fill="#242424"></path>
    </g>
</svg>