<?xml version="1.0" encoding="UTF-8"?>
<svg width="16" height="16" viewBox="0 0 16 16" version="1.1" xmlns="http://www.w3.org/2000/svg" xmlns:xlink="http://www.w3.org/1999/xlink">
    <title>icon/light/spectrum</title>
    <g id="icon/light/spectrum" stroke="none" stroke-width="1" fill="none" fill-rule="evenodd">
        <path d="M0.5,5.5 L0.5,4.5 C0.864933,4.5 1.17954,4.61772 1.43673,4.82706 C1.68384,5.0282 1.85659,5.29605 1.98434,5.56981 C2.22874,6.09353 2.36347,6.76753 2.48274,7.36417 L2.49029,7.40194 C2.61913,8.04612 2.73392,8.60461 2.92184,9.00731 C3.01284,9.2023 3.10571,9.32507 3.19454,9.39738 C3.27329,9.46147 3.36493,9.5 3.5,9.5 C3.63507,9.5 3.72671,9.46147 3.80546,9.39738 C3.89429,9.32507 3.98716,9.2023 4.07816,9.00731 C4.26608,8.60461 4.38087,8.04612 4.50971,7.40194 L4.51726,7.36418 C4.63653,6.76753 4.77126,6.09353 5.01566,5.56981 C5.14341,5.29605 5.31616,5.0282 5.56327,4.82706 C5.82046,4.61772 6.13507,4.5 6.5,4.5 C6.86493,4.5 7.17954,4.61772 7.43673,4.82706 C7.68384,5.0282 7.85659,5.29605 7.98434,5.56981 C8.22874,6.09352 8.36347,6.76751 8.48273,7.36414 L8.49029,7.40194 C8.61913,8.04612 8.73392,8.60461 8.92184,9.00731 C9.01284,9.2023 9.10571,9.32507 9.19454,9.39738 C9.27329,9.46147 9.36493,9.5 9.5,9.5 C9.63507,9.5 9.72671,9.46147 9.80546,9.39738 C9.89429,9.32507 9.98716,9.2023 10.0782,9.00731 C10.2661,8.60461 10.3809,8.04612 10.5097,7.40194 L10.5173,7.36416 C10.6365,6.76752 10.7713,6.09352 11.0157,5.56981 C11.1434,5.29605 11.3162,5.0282 11.5633,4.82706 C11.8205,4.61772 12.1351,4.5 12.5,4.5 C12.8649,4.5 13.1795,4.61772 13.4367,4.82706 C13.6838,5.0282 13.8566,5.29605 13.9843,5.56981 C14.2287,6.09352 14.3635,6.76751 14.4827,7.36414 L14.4903,7.40194 C14.6191,8.04612 14.7339,8.60461 14.9218,9.00731 C15.0128,9.2023 15.1057,9.32507 15.1945,9.39738 C15.2733,9.46147 15.3649,9.5 15.5,9.5 L15.5,10.5 C15.1351,10.5 14.8205,10.3823 14.5633,10.1729 C14.3162,9.9718 14.1434,9.70395 14.0157,9.43019 C13.7713,8.90648 13.6365,8.2325 13.5173,7.63587 L13.5097,7.59806 C13.3809,6.95388 13.2661,6.39539 13.0782,5.99269 C12.9872,5.7977 12.8943,5.67493 12.8055,5.60262 C12.7267,5.53853 12.6351,5.5 12.5,5.5 C12.3649,5.5 12.2733,5.53853 12.1945,5.60262 C12.1057,5.67493 12.0128,5.7977 11.9218,5.99269 C11.7339,6.39539 11.6191,6.95388 11.4903,7.59806 L11.4827,7.63584 C11.3635,8.23248 11.2287,8.90648 10.9843,9.43019 C10.8566,9.70395 10.6838,9.9718 10.4367,10.1729 C10.1795,10.3823 9.86493,10.5 9.5,10.5 C9.13507,10.5 8.82046,10.3823 8.56327,10.1729 C8.31616,9.9718 8.14341,9.70395 8.01566,9.43019 C7.77126,8.90648 7.63653,8.23249 7.51727,7.63586 L7.50971,7.59806 C7.38087,6.95388 7.26608,6.39539 7.07816,5.99269 C6.98716,5.7977 6.89429,5.67493 6.80546,5.60262 C6.72671,5.53853 6.63507,5.5 6.5,5.5 C6.36493,5.5 6.27329,5.53853 6.19454,5.60262 C6.10571,5.67493 6.01284,5.7977 5.92184,5.99269 C5.73392,6.39539 5.61913,6.95388 5.49029,7.59806 L5.48274,7.63582 C5.36347,8.23247 5.22874,8.90647 4.98434,9.43019 C4.85659,9.70395 4.68384,9.9718 4.43673,10.1729 C4.17954,10.3823 3.86493,10.5 3.5,10.5 C3.13507,10.5 2.82046,10.3823 2.56327,10.1729 C2.31616,9.9718 2.14341,9.70395 2.01566,9.43019 C1.77126,8.90647 1.63653,8.23247 1.51726,7.63583 L1.50971,7.59806 C1.38087,6.95388 1.26608,6.39539 1.07816,5.99269 C0.987161,5.7977 0.894289,5.67493 0.805458,5.60262 C0.726708,5.53853 0.635067,5.5 0.5,5.5 Z" id="shape" fill="#242424"></path>
    </g>
</svg>