<?xml version="1.0" encoding="UTF-8"?>
<svg width="16" height="16" viewBox="0 0 16 16" version="1.1" xmlns="http://www.w3.org/2000/svg" xmlns:xlink="http://www.w3.org/1999/xlink">
    <title>icon/light/square-dashed</title>
    <g id="icon/light/square-dashed" stroke="none" stroke-width="1" fill="none" fill-rule="evenodd">
        <path d="M9,13 L9,14 L7,14 L7,13 L9,13 Z M14,11 L14,14 L11,14 L11,13 L13,13 L13,11 L14,11 Z M3,11 L3,13 L5,13 L5,14 L2,14 L2,11 L3,11 Z M3,7 L3,9 L2,9 L2,7 L3,7 Z M14,7 L14,9 L13,9 L13,7 L14,7 Z M14,2 L14,5 L13,5 L13,3 L11,3 L11,2 L14,2 Z M5,2 L5,3 L3,3 L3,5 L2,5 L2,2 L5,2 Z M9,2 L9,3 L7,3 L7,2 L9,2 Z" id="shape" fill="#242424"></path>
    </g>
</svg>