<?xml version="1.0" encoding="UTF-8"?>
<svg width="16" height="16" viewBox="0 0 16 16" version="1.1" xmlns="http://www.w3.org/2000/svg" xmlns:xlink="http://www.w3.org/1999/xlink">
    <title>icon/light/switching</title>
    <g id="icon/light/switching" stroke="none" stroke-width="1" fill="none" fill-rule="evenodd">
        <path d="M4.75,3.5 L10.75,11.5 L13.0829,11.5 L12.2915,10.7086 L12.9986,10.0015 L14.9957,11.9986 L12.9971,13.9971 L12.29,13.29 L13.08,12.5 L10.25,12.5 L4.25,4.5 L1,4.5 L1,3.5 L4.75,3.5 Z M6.25,8.83333 L6.875,9.66667 L4.75,12.5 L1,12.5 L1,11.5 L4.25,11.5 L6.25,8.83333 Z M12.9986,2.00146 L14.9957,3.99857 L12.9971,5.99712 L12.29,5.29002 L13.08,4.5 L10.75,4.5 L8.75,7.16667 L8.125,6.33333 L10.25,3.5 L13.0829,3.5 L12.2915,2.70857 L12.9986,2.00146 Z" id="shape" fill="#242424"></path>
    </g>
</svg>