<?xml version="1.0" encoding="UTF-8"?>
<svg width="16" height="16" viewBox="0 0 16 16" version="1.1" xmlns="http://www.w3.org/2000/svg" xmlns:xlink="http://www.w3.org/1999/xlink">
    <title>icon/light/table</title>
    <g id="icon/light/table" stroke="none" stroke-width="1" fill="none" fill-rule="evenodd">
        <path d="M14,13 L14,14 L2,14 L2,13 L14,13 Z M14,9.33 L14,10.33 L2,10.33 L2,9.33 L14,9.33 Z M14,5.66 L14,6.66 L2,6.66 L2,5.66 L14,5.66 Z M4,2 L4,3 L2,3 L2,2 L4,2 Z M9,2 L9,3 L7,3 L7,2 L9,2 Z M14,2 L14,3 L12,3 L12,2 L14,2 Z" id="shape" fill="#242424"></path>
    </g>
</svg>