<?xml version="1.0" encoding="UTF-8"?>
<svg width="16" height="16" viewBox="0 0 16 16" version="1.1" xmlns="http://www.w3.org/2000/svg" xmlns:xlink="http://www.w3.org/1999/xlink">
    <title>icon/light/tasks</title>
    <g id="icon/light/tasks" stroke="none" stroke-width="1" fill="none" fill-rule="evenodd">
        <path d="M11,1 L11,2 L13.5,2 L13.5,15 L2.5,15 L2.5,2 L5,2 L5,1 L11,1 Z M5,3 L3.5,3 L3.5,14 L12.5,14 L12.5,3 L11,3 L11,4 L5,4 L5,3 Z M11,11 L11,12 L5,12 L5,11 L11,11 Z M11,8.5 L11,9.5 L5,9.5 L5,8.5 L11,8.5 Z M11,6 L11,7 L5,7 L5,6 L11,6 Z M10,2 L6,2 L6,3 L10,3 L10,2 Z" id="shape" fill="#242424"></path>
    </g>
</svg>