<svg xmlns="http://www.w3.org/2000/svg" viewBox="0 0 16 16"><defs><style>.cls-1{fill:none;}.cls-2{fill:#242424;}</style></defs><g id="Layer_2" data-name="Layer 2"><g id="Icons_Labels" data-name="Icons – Labels"><rect id="Rectangle_1047" data-name="Rectangle 1047" class="cls-1" width="16" height="16"/><g id="Group_4991" data-name="Group 4991"><path id="Path_5588" data-name="Path 5588" class="cls-2" d="M1.35,9.83a1.79,1.79,0,0,0,1.17.71l.29,0H6.55v2A2.45,2.45,0,0,0,9,15a.49.49,0,0,0,.45-.29l2.48-5.17H15V1H3.69A1.81,1.81,0,0,0,1.91,2.53l-.9,6A1.8,1.8,0,0,0,1.35,9.83ZM12,2h2V8.54H12V2ZM2.9,2.68A.82.82,0,0,1,3.7,2H11V9.19L8.7,14a1.45,1.45,0,0,1-1.15-1.42V10.06a.5.5,0,0,0-.5-.5H2.67A.81.81,0,0,1,2,8.64Z"/></g></g></g></svg>