<svg xmlns="http://www.w3.org/2000/svg" viewBox="0 0 16 16"><defs><style>.cls-1{fill:none;}.cls-2{fill:#242424;}</style></defs><g id="Layer_2" data-name="Layer 2"><g id="Icons_Labels" data-name="Icons – Labels"><rect id="Rectangle_1047" data-name="Rectangle 1047" class="cls-1" width="16" height="16"/><g id="Group_4991" data-name="Group 4991"><path id="Path_5588" data-name="Path 5588" class="cls-2" d="M14.66,6.17a1.83,1.83,0,0,0-1.18-.71l-.29,0H9.45v-2A2.45,2.45,0,0,0,7,1a.49.49,0,0,0-.45.29L4.08,6.46H1V15h11.3a1.81,1.81,0,0,0,1.78-1.53l.9-6A1.84,1.84,0,0,0,14.66,6.17ZM4,14H2V7.46H4V14Zm9.08-.68a.82.82,0,0,1-.8.68H5V6.81L7.3,2A1.45,1.45,0,0,1,8.45,3.45V5.94a.5.5,0,0,0,.5.5h4.38a.81.81,0,0,1,.67.91Z"/></g></g></g></svg>