<?xml version="1.0" encoding="UTF-8"?>
<svg width="16" height="16" viewBox="0 0 16 16" version="1.1" xmlns="http://www.w3.org/2000/svg" xmlns:xlink="http://www.w3.org/1999/xlink">
    <title>icon/light/traffic-lights</title>
    <g id="icon/light/traffic-lights" stroke="none" stroke-width="1" fill="none" fill-rule="evenodd">
        <path d="M10.5,1 C11.0523,1 11.5,1.44772 11.5,2 L11.5,14 C11.5,14.5523 11.0523,15 10.5,15 L5.5,15 C4.94772,15 4.5,14.5523 4.5,14 L4.5,2 C4.5,1.44772 4.94772,1 5.5,1 L10.5,1 Z M10.5,2 L5.5,2 L5.5,14 L10.5,14 L10.5,2 Z M7.99999,10.05 C8.88365,10.05 9.59999,10.7664 9.59999,11.65 C9.59999,12.5337 8.88365,13.25 7.99999,13.25 C7.11634,13.25 6.39999,12.5337 6.39999,11.65 C6.39999,10.7664 7.11634,10.05 7.99999,10.05 Z M7.99999,11.05 C7.66862,11.05 7.39999,11.3187 7.39999,11.65 C7.39999,11.9814 7.66862,12.25 7.99999,12.25 C8.33136,12.25 8.59999,11.9814 8.59999,11.65 C8.59999,11.3187 8.33136,11.05 7.99999,11.05 Z M7.99999,6.40002 C8.88365,6.40002 9.59999,7.11637 9.59999,8.00002 C9.59999,8.88368 8.88365,9.60002 7.99999,9.60002 C7.11634,9.60002 6.39999,8.88368 6.39999,8.00002 C6.39999,7.11637 7.11634,6.40002 7.99999,6.40002 Z M7.99999,7.40002 C7.66862,7.40002 7.39999,7.66865 7.39999,8.00002 C7.39999,8.3314 7.66862,8.60002 7.99999,8.60002 C8.33136,8.60002 8.59999,8.3314 8.59999,8.00002 C8.59999,7.66865 8.33136,7.40002 7.99999,7.40002 Z M8,2.75 C8.88366,2.75 9.6,3.46634 9.6,4.35 C9.6,5.23366 8.88366,5.95 8,5.95 C7.11634,5.95 6.4,5.23366 6.4,4.35 C6.4,3.46634 7.11634,2.75 8,2.75 Z M8,3.75 C7.66863,3.75 7.4,4.01863 7.4,4.35 C7.4,4.68137 7.66863,4.95 8,4.95 C8.33137,4.95 8.6,4.68137 8.6,4.35 C8.6,4.01863 8.33137,3.75 8,3.75 Z" id="shape" fill="#242424"></path>
    </g>
</svg>