<?xml version="1.0" encoding="UTF-8"?>
<svg width="16" height="16" viewBox="0 0 16 16" version="1.1" xmlns="http://www.w3.org/2000/svg" xmlns:xlink="http://www.w3.org/1999/xlink">
    <title>icon/light/triangle-dashed</title>
    <g id="icon/light/triangle-dashed" stroke="none" stroke-width="1" fill="none" fill-rule="evenodd">
        <path d="M13.419,10.7542 L15.5,14.5 L11.4,14.5 L11.4,13.5 L13.8005,13.5 L12.5505,11.2501 L13.419,10.7542 Z M9.4,13.5 L9.4,14.5 L6.6,14.5 L6.6,13.5 L9.4,13.5 Z M2.58161,10.7531 L3.45009,11.249 L2.19951,13.5 L4.6,13.5 L4.6,14.5 L0.5,14.5 L2.58161,10.7531 Z M11.0688,6.5238 L12.4476,9.00576 L11.5792,9.50162 L10.1957,7.01136 L11.0688,6.5238 Z M4.93182,6.52273 L5.80491,7.01029 L4.42144,9.50054 L3.55296,9.00467 L4.93182,6.52273 Z M8,1 L10.0975,4.77548 L9.2244,5.26304 L8,3.05913 L6.7762,5.26197 L5.9031,4.77441 L8,1 Z" id="shape" fill="#242424"></path>
    </g>
</svg>