<?xml version="1.0" encoding="UTF-8"?>
<svg width="16" height="16" viewBox="0 0 16 16" version="1.1" xmlns="http://www.w3.org/2000/svg" xmlns:xlink="http://www.w3.org/1999/xlink">
    <title>icon/light/truck</title>
    <g id="icon/light/truck" stroke="none" stroke-width="1" fill="none" fill-rule="evenodd">
        <path d="M0,3 L13.5,3 C14.8807,3 16,4.11929 16,5.5 L16,11.5 L14.687,11.5 C14.465,12.3626 13.6819,13 12.75,13 C11.8181,13 11.035,12.3626 10.813,11.5 L9.18699,11.5 C8.96497,12.3626 8.18192,13 7.25,13 C6.31808,13 5.53503,12.3626 5.31301,11.5 L5.18699,11.5 C4.96497,12.3626 4.18192,13 3.25,13 C2.31808,13 1.53503,12.3626 1.31301,11.5 L0,11.5 L0,3 Z M1.31301,10.5 C1.53503,9.63739 2.31808,9 3.25,9 C4.18192,9 4.96497,9.63739 5.18699,10.5 L5.31301,10.5 C5.53503,9.63739 6.31808,9 7.25,9 C8.18192,9 8.96497,9.63739 9.18699,10.5 L9.5,10.5 L9.5,4 L1,4 L1,10.5 L1.31301,10.5 Z M10.5,4 L10.5,10.5 L10.813,10.5 C11.035,9.63739 11.8181,9 12.75,9 C13.6819,9 14.465,9.63739 14.687,10.5 L15,10.5 L15,7.5 L12,7.5 L12,4 L10.5,4 Z M13,4 L13,6.5 L15,6.5 L15,5.5 C15,4.67157 14.3284,4 13.5,4 L13,4 Z M3.25,12 C3.80228,12 4.25,11.5523 4.25,11 C4.25,10.4477 3.80228,10 3.25,10 C2.69772,10 2.25,10.4477 2.25,11 C2.25,11.5523 2.69772,12 3.25,12 Z M8.25,11 C8.25,11.5523 7.80228,12 7.25,12 C6.69772,12 6.25,11.5523 6.25,11 C6.25,10.4477 6.69772,10 7.25,10 C7.80228,10 8.25,10.4477 8.25,11 Z M12.75,12 C13.3023,12 13.75,11.5523 13.75,11 C13.75,10.4477 13.3023,10 12.75,10 C12.1977,10 11.75,10.4477 11.75,11 C11.75,11.5523 12.1977,12 12.75,12 Z" id="shape" fill="#242424"></path>
    </g>
</svg>