<?xml version="1.0" encoding="UTF-8"?>
<svg width="16" height="16" viewBox="0 0 16 16" version="1.1" xmlns="http://www.w3.org/2000/svg" xmlns:xlink="http://www.w3.org/1999/xlink">
    <title>icon/light/under-construction</title>
    <g id="icon/light/under-construction" stroke="none" stroke-width="1" fill="none" fill-rule="evenodd">
        <path d="M10.4749,7.64646 L14.4142,11.5858 C15.1953,12.3669 15.1953,13.6332 14.4142,14.4142 C13.6332,15.1953 12.3668,15.1953 11.5858,14.4142 L11.5858,14.4142 L8.53029,11.3588 L9.2374,10.6516 L12.2929,13.7071 C12.6834,14.0977 13.3166,14.0977 13.7071,13.7071 C14.0976,13.3166 14.0976,12.6834 13.7071,12.2929 L13.7071,12.2929 L9.76775,8.35357 L10.4749,7.64646 Z M13.5000004,1 L15.0000004,2.5 L13.6243,4.70112 C13.1419,5.47292 12.1626,5.70011 11.4065,5.30068 L8.30289,8.40426 C8.66851,9.07495 8.56755,9.9324 8.00000037,10.4999 L4.01777,14.4777 C3.32741,15.1681 2.20812,15.1681 1.51777,14.4777 C0.82741,13.7874 0.827411,12.6681 1.51777,11.9777 L5.50000037,7.99995 C6.06758,7.43236 6.9251,7.33142 7.59581,7.69713 L10.6993,4.59359 C10.2999,3.83747 10.5271,2.85809 11.2989,2.3757 L13.5000004,1 Z M7.29289,8.70705 C6.99306,8.40722 6.50694,8.40722 6.20711,8.70705 L6.20711,8.70705 L2.22487,12.6848 C1.92544,12.9847 1.92517,13.4709 2.22487,13.7706 C2.5247,14.0705 3.01122,14.0701 3.31105,13.7702 L3.31105,13.7702 L7.29289,9.79284 C7.59258,9.49299 7.59268,9.00683 7.29289,8.70705 Z M5,1 C7.16914,1 8.93502,2.7266 8.99825,4.88043 L8.99825,4.88043 L8.18934,5.68934 L7.96442,5.46442 C7.98781,5.31348 8,5.15843 8,5 C8,3.34315 6.65685,2 5,2 C4.81619,2 4.63647,2.01644 4.46214,2.04792 L4.46214,2.04792 L6,3.58579 L6,6 L3.58579,6 L2.04792,4.46214 C2.01644,4.63647 2,4.81619 2,5 C2,6.38514 2.93873,7.55102 4.2147,7.89617 L4.2147,7.89617 L3.43052,8.68035 C2.00152,8.07017 1,6.65204 1,5 C1,4.52563 1.08257,4.07055 1.23413,3.64835 C1.35388,3.31476 1.51669,3.0017 1.71586,2.71586 L1.71586,2.71586 L4,5 L5,5 L5,4 L2.71586,1.71586 C3.0017,1.51669 3.31476,1.35388 3.64835,1.23413 C4.07055,1.08257 4.52563,1 5,1 Z M13.3554,2.26962 L11.8289,3.2237 C11.4539,3.45804 11.3945,3.98025 11.7071,4.29289 C12.0197,4.60554 12.542,4.54606 12.7763,4.17113 L12.7763,4.17113 L13.7304,2.64459 L13.3554,2.26962 Z" id="shape" fill="#242424"></path>
    </g>
</svg>