<?xml version="1.0" encoding="UTF-8"?>
<svg width="16" height="16" viewBox="0 0 16 16" version="1.1" xmlns="http://www.w3.org/2000/svg" xmlns:xlink="http://www.w3.org/1999/xlink">
    <title>icon/light/unlink</title>
    <g id="icon/light/unlink" stroke="none" stroke-width="1" fill="none" fill-rule="evenodd">
        <path d="M3.34183,6.34184 L4.04894,7.04894 L1.14645,9.95144 C0.951185,10.1467 0.951184,10.4633 1.14645,10.6585 L1.14645,10.6585 L3.50347,13.0156 C3.69873,13.2108 4.01532,13.2108 4.21058,13.0156 L4.21058,13.0156 L6.0137,11.2124 L6.7208,11.9196 L4.91769,13.7227 C4.3319,14.3085 3.38215,14.3085 2.79636,13.7227 L2.79636,13.7227 L0.43934,11.3657 C-0.146446,10.7799 -0.146447,9.83012 0.43934,9.24433 L0.43934,9.24433 L3.34183,6.34184 Z M11.0813,2.27934 C11.6671,1.69355 12.6168,1.69355 13.2026,2.27934 L13.2026,2.27934 L15.5596,4.63636 C16.1454,5.22215 16.1454,6.17189 15.5596,6.75768 L15.5596,6.75768 L10.3271,11.9903 C9.74127,12.5761 8.79152,12.5761 8.20573,11.9903 L8.20573,11.9903 L5.84871,9.63325 C5.26292,9.04746 5.26292,8.09771 5.84871,7.51193 L5.84871,7.51193 L6.18032,7.18032 L6.88742,7.88742 L6.55581,8.21903 C6.36055,8.41429 6.36055,8.73088 6.55581,8.92614 L6.55581,8.92614 L8.91284,11.2832 C9.1081,11.4784 9.42468,11.4784 9.61995,11.2832 L9.61995,11.2832 L14.8525,6.05057 C15.0478,5.85531 15.0478,5.53873 14.8525,5.34347 L14.8525,5.34347 L12.4955,2.98644 C12.3002,2.79118 11.9837,2.79118 11.7884,2.98644 L11.7884,2.98644 L9.98528,4.78956 L9.27818,4.08246 Z M9.39075,5.60924 L10.1503,6.36876 C10.7361,6.95455 10.7361,7.9043 10.1503,8.49008 L10.1503,8.49008 L8.84212,9.79823 L8.13502,9.09113 L9.44317,7.78298 C9.63843,7.58772 9.63843,7.27113 9.44317,7.07587 L9.44317,7.07587 L8.68365,6.31635 L9.39075,5.60924 Z M2.39318,3.23591 L4.13208,3.97403 L3.74938,4.89795 L2,4.15538 L2,4.15333 L2.39318,3.23591 Z M7.88001,1 L8.80564,1.37025 L8.05302,3.14328 L7.12911,2.76058 L7.87644,1 L7.88001,1 Z M5.21323,1.00271 L5.91592,2.74194 L4.992,3.12463 L4.28475,1.3741 L5.21323,1.00271 Z" id="shape" fill="#242424"></path>
    </g>
</svg>