<?xml version="1.0" encoding="UTF-8"?>
<svg width="16" height="16" viewBox="0 0 16 16" version="1.1" xmlns="http://www.w3.org/2000/svg" xmlns:xlink="http://www.w3.org/1999/xlink">
    <title>icon/light/vehicle-train</title>
    <g id="icon/light/vehicle-train" stroke="none" stroke-width="1" fill="none" fill-rule="evenodd">
        <path d="M11.7118,1 C12.7292,1 13.5845,1.76383 13.699,2.77478 L13.699,2.77478 L14.4796,9.66216 C14.6766,11.4007 13.3523,12.9285 11.6211,12.9976 L11.6211,12.9976 L13.1229,15 L11.8729,15 L10.3729,13 L5.62288,13 L4.12288,15 L2.87288,15 L4.3748,12.9974 C2.6456,12.9266 1.32311,11.4004 1.51932,9.66327 L1.51932,9.66327 L2.29734,2.77551 C2.41157,1.76424 3.26699,1 4.2847,1 L4.2847,1 Z M13.3415,8.5 L2.65708,8.5 L2.513,9.77552 C2.37905,10.9615 3.30689,12 4.50037,12 L4.50037,12 L11.4987,12 C12.6925,12 13.6204,10.961 13.486,9.77477 L13.486,9.77477 L13.3415,8.5 Z M4.74789,9.5 C5.1621,9.5 5.49789,9.83579 5.49789,10.25 C5.49789,10.6642 5.1621,11 4.74789,11 C4.33367,11 3.99789,10.6642 3.99789,10.25 C3.99789,9.83579 4.33367,9.5 4.74789,9.5 Z M11.2479,9.5 C11.6621,9.5 11.9979,9.83579 11.9979,10.25 C11.9979,10.6642 11.6621,11 11.2479,11 C10.8337,11 10.4979,10.6642 10.4979,10.25 C10.4979,9.83579 10.8337,9.5 11.2479,9.5 Z M7.49789,2 L4.2847,2 C3.77584,2 3.34813,2.38212 3.29102,2.88776 L2.77004,7.5 L7.49789,7.5 L7.49789,2 Z M11.7118,2 L8.49789,2 L8.49789,7.5 L13.2282,7.5 L12.7054,2.88739 C12.6481,2.38191 12.2205,2 11.7118,2 Z" id="shape" fill="#242424"></path>
    </g>
</svg>