<?xml version="1.0" encoding="UTF-8"?>
<svg width="16" height="16" viewBox="0 0 16 16" version="1.1" xmlns="http://www.w3.org/2000/svg" xmlns:xlink="http://www.w3.org/1999/xlink">
    <title>icon/light/vehicle-bus</title>
    <g id="icon/light/vehicle-bus" stroke="none" stroke-width="1" fill="none" fill-rule="evenodd">
        <path d="M14,1 L14,15 L12,15 L12,14 L4,14 L4,15 L2,15 L2,1 L14,1 Z M3,9.5 L3,13 L13,13 L13,9.5 L3,9.5 Z M4.75,10.5 C5.16421,10.5 5.5,10.8358 5.5,11.25 C5.5,11.6642 5.16421,12 4.75,12 C4.33579,12 4,11.6642 4,11.25 C4,10.8358 4.33579,10.5 4.75,10.5 Z M11.25,10.5 C11.6642,10.5 12,10.8358 12,11.25 C12,11.6642 11.6642,12 11.25,12 C10.8358,12 10.5,11.6642 10.5,11.25 C10.5,10.8358 10.8358,10.5 11.25,10.5 Z M1,2 L1,6 L0,6 L0,2 L1,2 Z M16,2 L16,6 L15,6 L15,2 L16,2 Z M3,8.5 L13,8.5 L13,2 L3,2 L3,8.5 Z" id="shape" fill="#242424"></path>
    </g>
</svg>