<?xml version="1.0" encoding="UTF-8"?>
<svg width="16" height="16" viewBox="0 0 16 16" version="1.1" xmlns="http://www.w3.org/2000/svg" xmlns:xlink="http://www.w3.org/1999/xlink">
    <title>icon/light/vehicle-truck</title>
    <g id="icon/light/vehicle-truck" stroke="none" stroke-width="1" fill="none" fill-rule="evenodd">
        <path d="M14,1 L14,7 L15,7 L15,8 L14,8 L14,15 L12,15 L12,13 L4,13 L4,15 L2,15 L2,8 L1,8 L1,7 L2,7 L2,1 L14,1 Z M13,8.5 L3,8.5 L3,12 L13,12 L13,8.5 Z M4.75,9.5 C5.16421,9.5 5.5,9.83579 5.5,10.25 C5.5,10.6642 5.16421,11 4.75,11 C4.33579,11 4,10.6642 4,10.25 C4,9.83579 4.33579,9.5 4.75,9.5 Z M11.25,9.5 C11.6642,9.5 12,9.83579 12,10.25 C12,10.6642 11.6642,11 11.25,11 C10.8358,11 10.5,10.6642 10.5,10.25 C10.5,9.83579 10.8358,9.5 11.25,9.5 Z M11.35,5 L4.649,5 L3.538,7.5 L12.461,7.5 L11.35,5 Z M13,2 L3,2 L3,6.25 L4,4 L12,4 L13,6.25 L13,2 Z" id="shape" fill="#242424"></path>
    </g>
</svg>