<?xml version="1.0" encoding="UTF-8"?>
<svg width="16" height="16" viewBox="0 0 16 16" version="1.1" xmlns="http://www.w3.org/2000/svg" xmlns:xlink="http://www.w3.org/1999/xlink">
    <title>icon/light/view-list</title>
    <g id="icon/light/view-list" stroke="none" stroke-width="1" fill="none" fill-rule="evenodd">
        <path d="M3.5,12 L3.5,13 L1.5,13 L1.5,12 L3.5,12 Z M14.5,12 L14.5,13 L5.5,13 L5.5,12 L14.5,12 Z M3.5,7.5 L3.5,8.5 L1.5,8.5 L1.5,7.5 L3.5,7.5 Z M14.5,7.5 L14.5,8.5 L5.5,8.5 L5.5,7.5 L14.5,7.5 Z M3.5,3 L3.5,4 L1.5,4 L1.5,3 L3.5,3 Z M14.5,3 L14.5,4 L5.5,4 L5.5,3 L14.5,3 Z" id="shape" fill="#242424"></path>
    </g>
</svg>