<?xml version="1.0" encoding="UTF-8"?>
<svg width="16" height="16" viewBox="0 0 16 16" version="1.1" xmlns="http://www.w3.org/2000/svg" xmlns:xlink="http://www.w3.org/1999/xlink">
    <title>icon/light/view-tiles</title>
    <g id="icon/light/view-tiles" stroke="none" stroke-width="1" fill="none" fill-rule="evenodd">
        <path d="M7.5,8.5 L7.5,14 L2,14 L2,8.5 L7.5,8.5 Z M14,8.5 L14,14 L8.5,14 L8.5,8.5 L14,8.5 Z M6.5,9.5 L3,9.5 L3,13 L6.5,13 L6.5,9.5 Z M13,9.5 L9.5,9.5 L9.5,13 L13,13 L13,9.5 Z M7.5,2 L7.5,7.5 L2,7.5 L2,2 L7.5,2 Z M14,2 L14,7.5 L8.5,7.5 L8.5,2 L14,2 Z M6.5,3 L3,3 L3,6.5 L6.5,6.5 L6.5,3 Z M13,3 L9.5,3 L9.5,6.5 L13,6.5 L13,3 Z" id="shape" fill="#242424"></path>
    </g>
</svg>