<?xml version="1.0" encoding="UTF-8"?>
<svg width="16" height="16" viewBox="0 0 16 16" version="1.1" xmlns="http://www.w3.org/2000/svg" xmlns:xlink="http://www.w3.org/1999/xlink">
    <title>icon/light/volume-high</title>
    <g id="icon/light/volume-high" stroke="none" stroke-width="1" fill="none" fill-rule="evenodd">
        <path d="M11.0008,1.99847 C13.3493,2.97822 15,5.29633 15,7.99999 C15,10.7037 13.3493,13.0218 11.0008,14.0015 L10.5522,13.1044 C12.5733,12.291 14,10.3121 14,7.99999 C14,5.68786 12.5733,3.70896 10.5522,2.89562 L11.0008,1.99847 Z M8,1.99999 L8,13.99999 L4,10.99999 L1,10.99999 L1,4.99999 L4,4.99999 L8,1.99999 Z M7,3.99999 L4.33333,5.99999 L2,5.99999 L2,9.99999 L4.33333,9.99999 L7,11.99999 L7,3.99999 Z M9.65285,4.6943 C11.0195,5.17085 12,6.47091 12,7.99999 C12,9.52907 11.0195,10.8291 9.65285,11.3057 L9.65285,11.3057 L9.2003,10.4006 C10.2402,10.0978 11,9.13761 11,7.99999 C11,6.86238 10.2402,5.90223 9.2003,5.5994 L9.2003,5.5994 Z" id="shape" fill="#242424"></path>
    </g>
</svg>