<?xml version="1.0" encoding="UTF-8"?>
<svg width="16" height="16" viewBox="0 0 16 16" version="1.1" xmlns="http://www.w3.org/2000/svg" xmlns:xlink="http://www.w3.org/1999/xlink">
    <title>icon/light/warning-circle</title>
    <g id="icon/light/warning-circle" stroke="none" stroke-width="1" fill="none" fill-rule="evenodd">
        <path d="M8,1 C11.866,1 15,4.13401 15,8 C15,11.866 11.866,15 8,15 C4.13401,15 1,11.866 1,8 C1,4.13401 4.13401,1 8,1 Z M8,2 C4.68629,2 2,4.68629 2,8 C2,11.3137 4.68629,14 8,14 C11.3137,14 14,11.3137 14,8 C14,4.68629 11.3137,2 8,2 Z M8,10.5 C8.41421,10.5 8.75,10.8358 8.75,11.25 C8.75,11.6642 8.41421,12 8,12 C7.58579,12 7.25,11.6642 7.25,11.25 C7.25,10.8358 7.58579,10.5 8,10.5 Z M8.5,4 L8.5,9.5 L7.5,9.5 L7.5,4 L8.5,4 Z" id="shape" fill="#242424"></path>
    </g>
</svg>