<?xml version="1.0" encoding="UTF-8"?>
<svg width="16" height="16" viewBox="0 0 16 16" version="1.1" xmlns="http://www.w3.org/2000/svg" xmlns:xlink="http://www.w3.org/1999/xlink">
    <title>icon/light/washer-fluid</title>
    <g id="icon/light/washer-fluid" stroke="none" stroke-width="1" fill="none" fill-rule="evenodd">
        <path d="M1.5,6.49993 C5.41049,3.79267 10.5895,3.79267 14.5,6.49993 L14.5,6.49993 L12,14.9999 C11.7009,14.8391 11.3945,14.6976 11.0825,14.5753 C9.10182,13.7989 6.89818,13.7989 4.91748,14.5753 C4.60554,14.6976 4.29914,14.8391 4,14.9999 L4,14.9999 Z M2.67047,6.93552 L4.63434,13.6127 C6.80098,12.7865 9.19902,12.7865 11.3657,13.6127 L13.3295,6.93552 C10.0481,4.9808 5.9519,4.9808 2.67047,6.93552 Z M8.5,11.1999 L8.5,12.1999 L7.5,12.1999 L7.5,11.1999 L8.5,11.1999 Z M8.5,9.49988 L8.5,10.4999 L7.5,10.4999 L7.5,9.49988 L8.5,9.49988 Z M8.5,7.79993 L8.5,8.79993 L7.5,8.79993 L7.5,7.79993 L8.5,7.79993 Z M8.5,6.09991 L8.5,7.09991 L7.5,7.09991 L7.5,6.09991 L8.5,6.09991 Z M2.49953,3.98732 L3.49951361,3.99064 C3.4991,4.1191 3.51112,4.24985 3.53673,4.3816 C3.56233,4.51334 3.60017,4.63908 3.64869,4.75802 L3.64869,4.75802 L2.72275,5.1357 C2.64976,4.95676 2.59321,4.76845 2.5551,4.57241 C2.51699,4.37636 2.49889,4.18058 2.49953,3.98732 L2.49953,3.98732 Z M13.5004,3.98732 C13.5011,4.18058 13.483,4.37636 13.4449,4.57241 C13.4067,4.76845 13.3502,4.95676 13.2772,5.1357 L12.3513,4.75802 C12.3998,4.63908 12.4376,4.51334 12.4632,4.3816 C12.4888,4.24985 12.5009,4.1191 12.5004,3.99064 L13.5004,3.98732 Z M8.5,2.99994 L8.5,3.99994 L7.5,3.99994 L7.5,2.99994 L8.5,2.99994 Z M3.38746,1.86953 L4.09211,2.57908 C3.90569,2.76421 3.75696,2.98471 3.65515,3.22691 L3.65515,3.22691 L2.73329,2.83936 C2.88577,2.47667 3.10829,2.14677 3.38746,1.86953 L3.38746,1.86953 Z M12.6125,1.86953 C12.8917,2.14677 13.1142,2.47667 13.2667,2.83936 L12.3448,3.22691 C12.243,2.98471 12.0943,2.76421 11.9078,2.57908 L12.6125,1.86953 Z M6.66059,1.23329 C7.02329,1.38577 7.35319,1.60829 7.63043,1.88746 L7.63043,1.88746 L6.92088,2.59211 C6.73575,2.40569 6.51525,2.25696 6.27305,2.15515 L6.27305,2.15515 Z M9.33936,1.23329 L9.7269,2.15515 C9.48471,2.25696 9.2642,2.40569 9.07907,2.59211 L8.36952,1.88746 C8.64676,1.60829 8.97666,1.38577 9.33936,1.23329 Z M5.51264,0.999528 L5.50932,1.99951152 C5.38086,1.9991 5.25011,2.01112 5.11836,2.03673 C4.98662,2.06233 4.86088,2.10017 4.74194,2.14869 L4.74194,2.14869 L4.36425,1.22275 C4.5432,1.14976 4.73151,1.09321 4.92755,1.0551 C5.1236,1.01699 5.31938,0.998886 5.51264,0.999528 L5.51264,0.999528 Z M10.4873,0.999528 C10.6806,0.998886 10.8764,1.01699 11.0724,1.0551 C11.2684,1.09321 11.4568,1.14976 11.6357,1.22275 L11.258,2.14869 C11.1391,2.10017 11.0133,2.06233 10.8816,2.03673 C10.7498,2.01112 10.6191,1.9991 10.4906,1.99951152 L10.4873,0.999528 Z" id="shape" fill="#242424"></path>
    </g>
</svg>