<?xml version="1.0" encoding="UTF-8"?>
<svg width="16" height="16" viewBox="0 0 16 16" version="1.1" xmlns="http://www.w3.org/2000/svg" xmlns:xlink="http://www.w3.org/1999/xlink">
    <title>icon/light/weather-wind</title>
    <g id="icon/light/weather-wind" stroke="none" stroke-width="1" fill="none" fill-rule="evenodd">
        <path d="M11.5,12 C12.3284,12 13,12.6716 13,13.5 C13,14.3284 12.3284,15 11.5,15 L11.5,15 L11,15 L11,14 L11.5,14 C11.7761,14 12,13.7761 12,13.5 C12,13.2239 11.7761,13 11.5,13 L11.5,13 L3,13 L3,12 Z M8.5,8 C9.32843,8 10,8.67157 10,9.5 C10,10.3284 9.32843,11 8.5,11 L8.5,11 L1,11 L1,10 L8.5,10 C8.77614,10 9,9.77614 9,9.5 C9,9.22386 8.77614,9 8.5,9 L8.5,9 L8,9 L8,8 Z M8,1 C9.76324,1 11.2219,2.30385 11.4646,4 L11.4646,4 L11.75,4 C13.5449,4 15,5.45507 15,7.25 C15,9.04493 13.5449,10.5 11.75,10.5 L11.75,10.5 L11,10.5 L11,9.5 L11.75,9.5 C12.9926,9.5 14,8.49264 14,7.25 C14,6.00736 12.9926,5 11.75,5 L11.75,5 L10.5,5 L10.5,4.5 C10.5,3.11929 9.38071,2 8,2 C6.61929,2 5.5,3.11929 5.5,4.5 L5.5,4.5 L5.5,5 L4.25,5 C3.00736,5 2,6.00736 2,7.25 C2,7.73232 2.1512,8.17783 2.40881,8.54366 L2.40881,8.54366 L1.59119,9.11942 C1.21878,8.59057 1,7.94509 1,7.25 C1,5.45507 2.45507,4 4.25,4 L4.25,4 L4.53544,4 C4.77806,2.30385 6.23676,1 8,1 Z" id="shape" fill="#242424"></path>
    </g>
</svg>