<?xml version="1.0" encoding="UTF-8"?>
<svg width="16" height="16" viewBox="0 0 16 16" version="1.1" xmlns="http://www.w3.org/2000/svg" xmlns:xlink="http://www.w3.org/1999/xlink">
    <title>icon/light/weather-windforce</title>
    <g id="icon/light/weather-windforce" stroke="none" stroke-width="1" fill="none" fill-rule="evenodd">
        <path d="M11,10 C12.1046,10 13,10.8954 13,12 C13,13.1046 12.1046,14 11,14 C10.1284,14 9.38825,13.4427 9.11393,12.6666 L9.11393,12.6666 L10.0568,12.3334 C10.1943,12.7224 10.5654,13 11,13 C11.5523,13 12,12.5523 12,12 C12,11.4477 11.5523,11 11,11 L11,11 L2,11 L2,10 Z M12.9118,4 C14.0651,4 15,4.93493 15,6.08824 L15,6.25 C15,7.49264 13.9926,8.5 12.75,8.5 L3,8.5 L3,7.5 L12.75,7.5 C13.4404,7.5 14,6.94036 14,6.25 L14,6.08824 C14,5.48722 13.5128,5 12.9118,5 C12.5015,5 12.1532,5.2714 12.0393,5.64562 L11.0827,5.35438 C11.3212,4.57093 12.0491,4 12.9118,4 Z M8,2 C9.10457,2 10,2.89543 10,4 C10,5.10457 9.10457,6 8,6 L1,6 L1,5 L8,5 C8.55228,5 9,4.55228 9,4 C9,3.44772 8.55228,3 8,3 C7.56537,3 7.19429,3.27755 7.05677,3.66662 L6.11393,3.33338 C6.38825,2.55726 7.12841,2 8,2 Z" id="shape" fill="#242424"></path>
    </g>
</svg>