<?xml version="1.0" encoding="UTF-8"?>
<svg width="16" height="16" viewBox="0 0 16 16" version="1.1" xmlns="http://www.w3.org/2000/svg" xmlns:xlink="http://www.w3.org/1999/xlink">
    <title>icon/light/weather-sun-cloud</title>
    <g id="icon/light/weather-sun-cloud" stroke="none" stroke-width="1" fill="none" fill-rule="evenodd">
        <path d="M6.5,4 C8.08703,4 9.42736,5.05628 9.8563,6.50417 L10,6.5 C11.4866,6.5 12.7207,7.58129 12.9586,9.00029 L13,9 C14.6569,9 16,10.3431 16,12 C16,13.6569 14.6569,15 13,15 L7,15 C5.34315,15 4,13.6569 4,12 C4,11.4083 4.17132,10.8565 4.46706,10.3917 L4.48601,10.3623 C3.58766,9.73023 3,8.68374 3,7.5 C3,5.567 4.567,4 6.5,4 Z M10,7.5 C9.07416,7.5 8.28067,8.1339 8.06048,9.00883 L8.02766,9.16565 L7.88671,10.0063 L7,10 C5.89543,10 5,10.8954 5,12 C5,13.0544 5.81588,13.9182 6.85074,13.9945 L7,14 L13,14 C14.1046,14 15,13.1046 15,12 C15,10.9456 14.1841,10.0818 13.1554,10.0055 L13.0071,9.99998 L12.1133,10.0063 L11.9723,9.16565 C11.8122,8.21067 10.9803,7.5 10,7.5 Z M2.96447,10.3284 L3.67157,11.0355 L2.25736,12.4497 L1.55025,11.7426 L2.96447,10.3284 Z M6.5,5 C5.11929,5 4,6.11929 4,7.5 C4,8.39412 4.46938,9.1786 5.17517,9.62049 L5.25495,9.55947 C5.70191,9.23931 6.24047,9.03889 6.82373,9.00509 L7.04143,9.00029 C7.20677,8.01419 7.85316,7.19118 8.73106,6.78079 L8.87449,6.71828 C8.54803,5.7211 7.60823,5 6.5,5 Z M2,7 L2,8 L0,8 L0,7 L2,7 Z M2.25736,2.55025 L3.67157,3.96447 L2.96447,4.67157 L1.55025,3.25736 L2.25736,2.55025 Z M10.7426,2.55025 L11.4497,3.25736 L10.0355,4.67157 L9.32843,3.96447 L10.7426,2.55025 Z M7,1 L7,3 L6,3 L6,1 L7,1 Z" id="shape" fill="#242424"></path>
    </g>
</svg>