<?xml version="1.0" encoding="UTF-8"?>
<svg width="16" height="16" viewBox="0 0 16 16" version="1.1" xmlns="http://www.w3.org/2000/svg" xmlns:xlink="http://www.w3.org/1999/xlink">
    <title>icon/light/weather-snow</title>
    <g id="icon/light/weather-snow" stroke="none" stroke-width="1" fill="none" fill-rule="evenodd">
        <path d="M8.5,9 L8.5,11.1339 L10.3481,10.067 L10.8481,10.933 L9,12 L10.8481,13.067 L10.3481,13.933 L8.5,12.866 L8.5,15 L7.5,15 L7.5,12.866 L5.65192,13.933 L5.15192,13.067 L7,12 L5.15192,10.933 L5.65192,10.067 L7.5,11.1339 L7.5,9 L8.5,9 Z M8,1 C9.76324,1 11.2219,2.30385 11.4646,4 L11.4646,4 L11.75,4 C13.5449,4 15,5.45507 15,7.25 C15,9.04493 13.5449,10.5 11.75,10.5 L11.75,10.5 L11.75,9.5 C12.9926,9.5 14,8.49264 14,7.25 C14,6.00736 12.9926,5 11.75,5 L11.75,5 L10.5,5 L10.5,4.5 C10.5,3.11929 9.38071,2 8,2 C6.61929,2 5.5,3.11929 5.5,4.5 L5.5,4.5 L5.5,5 L4.25,5 C3.00736,5 2,6.00736 2,7.25 C2,8.49264 3.00736,9.5 4.25,9.5 L4.25,9.5 L4.25,10.5 C2.45507,10.5 1,9.04493 1,7.25 C1,5.45507 2.45507,4 4.25,4 L4.25,4 L4.53544,4 C4.77806,2.30385 6.23676,1 8,1 Z" id="shape" fill="#242424"></path>
    </g>
</svg>