<?xml version="1.0" encoding="UTF-8"?>
<svg width="16" height="16" viewBox="0 0 16 16" version="1.1" xmlns="http://www.w3.org/2000/svg" xmlns:xlink="http://www.w3.org/1999/xlink">
    <title>icon/light/weather-sun</title>
    <g id="icon/light/weather-sun" stroke="none" stroke-width="1" fill="none" fill-rule="evenodd">
        <path d="M8.5,13 L8.5,15 L7.5,15 L7.5,13 L8.5,13 Z M11.8891,11.182 L13.3033,12.5962 L12.5962,13.3033 L11.182,11.8891 L11.8891,11.182 Z M4.11091,11.182 L4.81802,11.8891 L3.40381,13.3033 L2.6967,12.5962 L4.11091,11.182 Z M8,4 C10.2091,4 12,5.79086 12,8 C12,10.2091 10.2091,12 8,12 C5.79086,12 4,10.2091 4,8 C4,5.79086 5.79086,4 8,4 Z M8,5 C6.34315,5 5,6.34315 5,8 C5,9.65685 6.34315,11 8,11 C9.65685,11 11,9.65685 11,8 C11,6.34315 9.65685,5 8,5 Z M3,7.5 L3,8.5 L1,8.5 L1,7.5 L3,7.5 Z M15,7.5 L15,8.5 L13,8.5 L13,7.5 L15,7.5 Z M3.40381,2.69672 L4.81802,4.11093 L4.11091,4.81804 L2.6967,3.40382 L3.40381,2.69672 Z M12.5962,2.69672 L13.3033,3.40382 L11.8891,4.81804 L11.182,4.11093 L12.5962,2.69672 Z M8.5,1 L8.5,3 L7.5,3 L7.5,1 L8.5,1 Z" id="shape" fill="#242424"></path>
    </g>
</svg>