<?xml version="1.0" encoding="UTF-8"?>
<svg width="16" height="16" viewBox="0 0 16 16" version="1.1" xmlns="http://www.w3.org/2000/svg" xmlns:xlink="http://www.w3.org/1999/xlink">
    <title>icon/light/weather-fog</title>
    <g id="icon/light/weather-fog" stroke="none" stroke-width="1" fill="none" fill-rule="evenodd">
        <path d="M11,14 L11,15 L3,15 L3,14 L11,14 Z M13,11.75 L13,12.75 L5,12.75 L5,11.75 L13,11.75 Z M8,1 C9.76324,1 11.2219,2.30385 11.4646,4 L11.4646,4 L11.75,4 C13.5449,4 15,5.45507 15,7.25 C15,9.04493 13.5449,10.5 11.75,10.5 L11.75,10.5 L11,10.5 L11,9.5 L11.75,9.5 C12.9926,9.5 14,8.49264 14,7.25 C14,6.00736 12.9926,5 11.75,5 L11.75,5 L10.5,5 L10.5,4.5 C10.5,3.11929 9.38071,2 8,2 C6.61929,2 5.5,3.11929 5.5,4.5 L5.5,4.5 L5.5,5 L4.25,5 C3.00736,5 2,6.00736 2,7.25 C2,7.60889 2.08366,7.94681 2.23208,8.24663 L2.23208,8.24663 L1.33589,8.69028 C1.12071,8.25561 1,7.76619 1,7.25 C1,5.45507 2.45507,4 4.25,4 L4.25,4 L4.53544,4 C4.77806,2.30385 6.23676,1 8,1 Z M10,9.5 L10,10.5 L2,10.5 L2,9.5 L10,9.5 Z" id="shape" fill="#242424"></path>
    </g>
</svg>