<?xml version="1.0" encoding="UTF-8"?>
<svg width="16" height="16" viewBox="0 0 16 16" version="1.1" xmlns="http://www.w3.org/2000/svg" xmlns:xlink="http://www.w3.org/1999/xlink">
    <title>icon/light/weather-rain</title>
    <g id="icon/light/weather-rain" stroke="none" stroke-width="1" fill="none" fill-rule="evenodd">
        <path d="M4.44085,12.4251 L5.39083,12.7374 L4.64755,14.9983 L3.69757,14.686 L4.44085,12.4251 Z M6.74377,12.4252 L7.69375,12.7375 L6.95047,14.9984 L6.00049,14.6861 L6.74377,12.4252 Z M9.04085,12.4252 L9.99083,12.7375 L9.24755,14.9984 L8.29757,14.6861 L9.04085,12.4252 Z M5.48144,9.25989 L6.43142,9.5722 L5.68814,11.8331 L4.73816,11.5208 L5.48144,9.25989 Z M7.78436,9.26 L8.73434,9.57231 L7.99106,11.8332 L7.04108,11.5209 L7.78436,9.26 Z M10.0814,9.25995 L11.0314,9.57227 L10.2881,11.8332 L9.33816,11.5208 L10.0814,9.25995 Z M8,1 C9.76324,1 11.2219,2.30385 11.4646,4 L11.4646,4 L11.75,4 C13.5449,4 15,5.45507 15,7.25 C15,9.04493 13.5449,10.5 11.75,10.5 L11.75,10.5 L11.75,9.5 C12.9926,9.5 14,8.49264 14,7.25 C14,6.00736 12.9926,5 11.75,5 L11.75,5 L10.5,5 L10.5,4.5 C10.5,3.11929 9.38071,2 8,2 C6.61929,2 5.5,3.11929 5.5,4.5 L5.5,4.5 L5.5,5 L4.25,5 C3.00736,5 2,6.00736 2,7.25 C2,8.49264 3.00736,9.5 4.25,9.5 L4.25,9.5 L4.25,10.5 C2.45507,10.5 1,9.04493 1,7.25 C1,5.45507 2.45507,4 4.25,4 L4.25,4 L4.53544,4 C4.77806,2.30385 6.23676,1 8,1 Z" id="shape" fill="#242424"></path>
    </g>
</svg>