<?xml version="1.0" encoding="UTF-8"?>
<svg width="16" height="16" viewBox="0 0 16 16" version="1.1" xmlns="http://www.w3.org/2000/svg" xmlns:xlink="http://www.w3.org/1999/xlink">
    <title>icon/light/wifi</title>
    <g id="icon/light/wifi" stroke="none" stroke-width="1" fill="none" fill-rule="evenodd">
        <path d="M8.00183,12 C8.55411,12 9.00183,12.4477 9.00183,13 C9.00183,13.5523 8.55411,14 8.00183,14 C7.44954,14 7.00183,13.5523 7.00183,13 C7.00183,12.4477 7.44954,12 8.00183,12 Z M8.00184,9 C9.23407,9 10.3362,9.55719 11.0699,10.4334 L10.406,11.2052 C9.85888,10.4736 8.98566,10 8.00184,10 C7.01801,10 6.14479,10.4736 5.59771,11.2052 L4.93376,10.4334 C5.66751,9.55719 6.7696,9 8.00184,9 Z M8.00184,6 C9.98089,6 11.7681,6.82128 13.0413,8.14162 L12.3859,8.90358 C11.2908,7.73219 9.73184,7 8.00184,7 C6.27183,7 4.71283,7.73219 3.61782,8.90358 L2.96237,8.14162 C4.23555,6.82128 6.02278,6 8.00184,6 Z M8.00184,3 C10.7282,3 13.1998,4.09106 15.0037,5.86037 L14.35,6.62027 C12.7226,5.00086 10.4791,4 8.00184,4 C5.52458,4 3.2811,5.00086 1.65368,6.62027 L1,5.86037 C2.80391,4.09106 5.27546,3 8.00184,3 Z" id="shape" fill="#242424"></path>
    </g>
</svg>