<?xml version="1.0" encoding="UTF-8"?>
<svg width="16" height="16" viewBox="0 0 16 16" version="1.1" xmlns="http://www.w3.org/2000/svg" xmlns:xlink="http://www.w3.org/1999/xlink">
    <title>icon/light/wifi-modem</title>
    <g id="icon/light/wifi-modem" stroke="none" stroke-width="1" fill="none" fill-rule="evenodd">
        <path d="M5,5 L5,9 L15,9 L15,15 L1,15 L1,9 L4,9 L4,5 L5,5 Z M14,10 L2,10 L2,14 L14,14 L14,10 Z M3.5,11.5 C3.77614,11.5 4,11.7239 4,12 C4,12.2761 3.77614,12.5 3.5,12.5 C3.22386,12.5 3,12.2761 3,12 C3,11.7239 3.22386,11.5 3.5,11.5 Z M5.5,11.5 C5.77614,11.5 6,11.7239 6,12 C6,12.2761 5.77614,12.5 5.5,12.5 C5.22386,12.5 5,12.2761 5,12 C5,11.7239 5.22386,11.5 5.5,11.5 Z M7.5,11.5 C7.77614,11.5 8,11.7239 8,12 C8,12.2761 7.77614,12.5 7.5,12.5 C7.22386,12.5 7,12.2761 7,12 C7,11.7239 7.22386,11.5 7.5,11.5 Z M13,11.5 L13,12.5 L12,12.5 L12,11.5 L13,11.5 Z M4.49999,3 C5.2835,3 5.98283,3.36044 6.44121,3.92455 L6.44121,3.92455 L5.66472,4.55473 C5.38969,4.21626 4.97009,4 4.49999,4 C4.02976,4 3.61006,4.21637 3.33504,4.55499 L3.33504,4.55499 L2.55841,3.92498 C3.01678,3.36062 3.71627,3 4.49999,3 Z M4.50031,1 C5.91285,1 7.17362,1.64879 8,2.66419 L7.22229,3.29437 C6.57955,2.50461 5.59896,2 4.50031,2 C3.40139,2 2.42058,2.50487 1.77785,3.29497 L1,2.66496 C1.82637,1.64912 3.08742,1 4.50031,1 Z" id="shape" fill="#242424"></path>
    </g>
</svg>